<svg xmlns="http://www.w3.org/2000/svg" width="71" height="65" viewBox="0 0 71 65">
    <g fill="none" fill-rule="evenodd">
        <g>
            <g>
                <path fill="#11AF4B" d="M24.68 9.591c-.18.302-.18.678 0 .98l30.968 51.804c.172.288.483.465.82.465h10.385c.742 0 1.2-.808.82-1.445L31.121.243c-.194-.324-.664-.324-.858 0L24.68 9.591z" transform="translate(-788.000000, -249.000000) translate(788.000000, 249.000000)"/>
                <path fill="#FF7300" d="M19.092 20.653h10.462c.367 0 .597.397.413.715l-5.231 9.06c-.184.319-.643.319-.827 0l-5.23-9.06c-.184-.318.045-.715.413-.715zM12.846 31.159h10.462c.367 0 .597.397.413.716l-2.616 4.53-2.615 4.53c-.184.318-.643.318-.827 0l-2.615-4.53-2.616-4.53c-.183-.319.046-.716.414-.716zM6.559 41.83H17.02c.368 0 .598.398.414.716l-2.616 4.53-2.615 4.53c-.184.32-.643.32-.827 0l-2.615-4.53-2.616-4.53c-.184-.318.046-.715.414-.715zM.478 52.786H10.94c.367 0 .597.397.413.716l-2.615 4.53-2.616 4.53c-.183.318-.643.318-.826 0l-2.616-4.53-2.615-4.53c-.184-.319.046-.716.413-.716zM12.887 52.786h10.462c.367 0 .597.397.413.716l-2.615 4.53-2.616 4.53c-.183.318-.643.318-.826 0l-2.616-4.53-2.615-4.53c-.184-.319.046-.716.413-.716zM38.036 52.786h10.462c.367 0 .597.397.413.716l-2.615 4.53-2.616 4.53c-.183.318-.643.318-.826 0l-2.616-4.53-2.615-4.53c-.184-.319.046-.716.413-.716zM19.257 41.83H29.72c.368 0 .597.398.413.716l-2.615 4.53-2.616 4.53c-.183.32-.642.32-.826 0l-2.616-4.53-2.615-4.53c-.184-.318.046-.715.413-.715zM31.5 41.83h10.463c.367 0 .597.398.413.716l-2.616 4.53-2.615 4.53c-.184.32-.643.32-.827 0l-2.615-4.53-2.616-4.53c-.183-.318.046-.715.414-.715zM25.627 31.159h10.462c.367 0 .597.397.413.716l-2.615 4.53-2.616 4.53c-.183.318-.643.318-.826 0l-2.616-4.53-2.615-4.53c-.184-.319.046-.716.413-.716zM25.461 52.786h10.462c.368 0 .597.397.414.716l-2.616 4.53-2.615 4.53c-.184.318-.643.318-.827 0l-2.615-4.53-2.616-4.53c-.184-.319.046-.716.413-.716z" transform="translate(-788.000000, -249.000000) translate(788.000000, 249.000000)"/>
            </g>
        </g>
    </g>
</svg>
