<svg xmlns="http://www.w3.org/2000/svg" width="20" height="20" viewBox="0 0 20 20">
    <g fill="none" fill-rule="evenodd">
        <g>
            <g>
                <g>
                    <path d="M0 0L20 0 20 20 0 20z" transform="translate(-1137 -22) translate(1137 16) translate(0 6)"/>
                    <path fill="#2B2F3F" fill-rule="nonzero" d="M16.667 14.167h1.666v1.666H1.667v-1.666h1.666V8.333c0-3.682 2.985-6.666 6.667-6.666s6.667 2.984 6.667 6.666v5.834zm-1.667 0V8.333c0-2.761-2.239-5-5-5s-5 2.239-5 5v5.834h10zM7.5 17.5h5v1.667h-5V17.5z" transform="translate(-1137 -22) translate(1137 16) translate(0 6)"/>
                </g>
            </g>
        </g>
    </g>
</svg>
