<svg xmlns="http://www.w3.org/2000/svg" width="18" height="18" viewBox="0 0 18 18">
    <g fill="none" fill-rule="evenodd">
        <g>
            <g>
                <g>
                    <g>
                        <path d="M0 0L18 0 18 18 0 18z" transform="translate(-1313 -181) translate(1279 64) translate(22 117) translate(12)"/>
                        <path fill="#2B2F3F" fill-rule="nonzero" d="M15.75 6v9.745c.001.199-.076.39-.216.532-.14.141-.33.222-.529.223H2.995c-.411 0-.745-.333-.745-.744V2.244c0-.403.337-.744.752-.744h8.246L15.75 6zm-1.5.75H10.5V3H3.75v12h10.5V6.75zM6 5.25h2.25v1.5H6v-1.5zm0 3h6v1.5H6v-1.5zm0 3h6v1.5H6v-1.5z" transform="translate(-1313 -181) translate(1279 64) translate(22 117) translate(12)"/>
                    </g>
                </g>
            </g>
        </g>
    </g>
</svg>
