<svg xmlns="http://www.w3.org/2000/svg" width="24" height="24" viewBox="0 0 24 24">
    <g fill="none" fill-rule="evenodd">
        <g>
            <g>
                <g>
                    <path d="M0 0H24V24H0z" transform="translate(-573 -665) translate(384 665) translate(189)"/>
                    <g fill="#4F5164" fill-rule="nonzero" stroke="#4F5164" stroke-width=".5">
                        <path d="M6.6 2.243c.061-.396.345-.818.75-.818.41 0 .742.32.742.713h1.485C9.577.959 8.577 0 7.35 0 6.1 0 5.289 1.022 5.13 2.033L4.654 5.13H2.376v1.426h2.057L2.978 13.72l-.005.033c-.04.378-.348.783-.746.783-.41 0-.742-.32-.742-.712H0c0 1.179 1 2.138 2.227 2.138 1.25 0 2.108-1.039 2.222-2.049l1.485-7.357h2.232V5.13H6.154L6.6 2.243zM12.769 8.513L11.128 8.513 10.241 9.796 9.649 8.513 8.154 8.513 9.344 11.093 7.449 13.833 9.09 13.833 10 12.517 10.607 13.833 12.102 13.833 10.897 11.22z" transform="translate(-573 -665) translate(384 665) translate(189) translate(6 4)"/>
                    </g>
                </g>
            </g>
        </g>
    </g>
</svg>
