<svg xmlns="http://www.w3.org/2000/svg" width="16" height="16" viewBox="0 0 16 16">
    <g fill="none" fill-rule="evenodd">
        <g>
            <g>
                <g>
                    <g>
                        <g>
                            <path d="M0 0L16 0 16 16 0 16z" transform="translate(-288 -315) translate(49 123) translate(0 176) translate(24 16) translate(215)"/>
                            <path fill="#2B2F3F" fill-rule="nonzero" d="M4.276 10.667l6.761-6.762-.942-.942-6.762 6.761v.943h.943zM4.829 12H2V9.171l7.623-7.623c.26-.26.683-.26.943 0l1.886 1.886c.26.26.26.682 0 .943L4.829 12zM2 13.333h12v1.334H2v-1.334z" transform="translate(-288 -315) translate(49 123) translate(0 176) translate(24 16) translate(215)"/>
                        </g>
                    </g>
                </g>
            </g>
        </g>
    </g>
</svg>
