<svg xmlns="http://www.w3.org/2000/svg" width="24" height="24" viewBox="0 0 24 24">
    <g fill="none" fill-rule="evenodd">
        <g>
            <g>
                <g>
                    <g>
                        <path fill="#FFF" fill-rule="nonzero" d="M15.21 7.694h-.917c-.06-.583-.246-1.128-.54-1.55h1.456c.349 0 .631-.285.631-.668 0-.382-.282-.675-.63-.675h-4.936L10.22 4.8H7.83c-.349 0-.631.294-.631.676 0 .383.282.668.63.668h2.799c.884.07 1.81.446 2.053 1.55H7.831c-.349 0-.631.31-.631.692 0 .382.282.692.63.692h4.79c-.299.873-1.117 1.405-2.254 1.405H8.376c-.34 0-.616.302-.616.675 0 .373.276.675.616.675h.723l.008.002h1.142c1.24.051 1.792.641 2.109 2.256.247 1.198.43 1.98.573 2.447.107.433.32 1.085.688 1.474.145.152.33.228.516.228.195 0 .39-.084.536-.25.267-.305.272-.777.027-1.092-.001-.004 0-.008-.002-.012-.227-.46-.5-1.695-.834-3.262-.266-1.273-.762-2.067-1.513-2.419.943-.397 1.593-1.157 1.847-2.127h1.013c.349 0 .631-.31.631-.692 0-.382-.282-.692-.63-.692z" transform="translate(-851 -555) translate(832 523) translate(11 24) translate(8 8)"/>
                        <path d="M0 0H23.04V23.04H0z" transform="translate(-851 -555) translate(832 523) translate(11 24) translate(8 8)"/>
                    </g>
                </g>
            </g>
        </g>
    </g>
</svg>
