<svg xmlns="http://www.w3.org/2000/svg" width="12" height="12" viewBox="0 0 12 12">
    <g fill="none" fill-rule="evenodd">
        <g>
            <g>
                <g>
                    <g>
                        <path d="M0 0L12 0 12 12 0 12z" transform="translate(-493 -1512) translate(385 1433) translate(108 76) translate(0 3)"/>
                        <path fill="#414246" fill-rule="nonzero" d="M6 11c-2.761 0-5-2.239-5-5s2.239-5 5-5 5 2.239 5 5-2.239 5-5 5zm0-1c2.21 0 4-1.79 4-4S8.21 2 6 2 2 3.79 2 6s1.79 4 4 4zm.5-4h2v1h-3V3.5h1V6z" transform="translate(-493 -1512) translate(385 1433) translate(108 76) translate(0 3)"/>
                    </g>
                </g>
            </g>
        </g>
    </g>
</svg>
