<svg xmlns="http://www.w3.org/2000/svg" width="24" height="24" viewBox="0 0 24 24">
    <g fill="none" fill-rule="evenodd">
        <g>
            <g>
                <path d="M0 0L24 0 24 24 0 24z" transform="translate(-1168 -344) translate(1168 344)"/>
                <path fill="#1D1E20" fill-rule="nonzero" d="M12 3c5.392 0 9.878 3.88 10.819 9-.94 5.12-5.427 9-10.819 9-5.392 0-9.878-3.88-10.819-9C2.121 6.88 6.608 3 12 3zm0 16c4.2 0 7.842-2.905 8.777-7-.939-4.091-4.58-6.991-8.777-6.991-4.198 0-7.838 2.9-8.777 6.991.935 4.095 4.577 7 8.777 7zm0-2.5c-2.485 0-4.5-2.015-4.5-4.5S9.515 7.5 12 7.5s4.5 2.015 4.5 4.5-2.015 4.5-4.5 4.5zm0-2c1.38 0 2.5-1.12 2.5-2.5S13.38 9.5 12 9.5 9.5 10.62 9.5 12s1.12 2.5 2.5 2.5z" transform="translate(-1168 -344) translate(1168 344)"/>
            </g>
        </g>
    </g>
</svg>
