<svg xmlns="http://www.w3.org/2000/svg" width="12" height="12" viewBox="0 0 12 12">
    <g fill="none" fill-rule="evenodd">
        <g>
            <g>
                <g>
                    <g>
                        <g>
                            <path d="M0 0L12 0 12 12 0 12z" transform="translate(-1212 -364) translate(362.5 64) translate(20.5 290) translate(829 7) translate(0 3)"/>
                            <path fill="#EF5854" fill-rule="nonzero" d="M6 1c2.761 0 5 2.239 5 5s-2.239 5-5 5-5-2.239-5-5 2.239-5 5-5zm0 1C3.79 2 2 3.79 2 6s1.79 4 4 4 4-1.79 4-4-1.79-4-4-4zM4.721 4.014l1.278 1.278 1.28-1.278c.126-.13.311-.182.486-.136.175.045.312.182.357.357.046.175-.006.36-.136.486l-1.28 1.278 1.28 1.28c.143.143.185.358.108.544-.077.187-.26.309-.461.309v.001c-.132 0-.26-.053-.353-.147l-1.281-1.28-1.278 1.28c-.094.093-.22.146-.353.146l-.001.001c-.202 0-.384-.122-.46-.309-.078-.186-.036-.401.107-.544l1.278-1.281-1.278-1.278c-.13-.126-.182-.311-.136-.486.045-.175.182-.312.357-.357.175-.046.36.006.486.136z" transform="translate(-1212 -364) translate(362.5 64) translate(20.5 290) translate(829 7) translate(0 3)"/>
                        </g>
                    </g>
                </g>
            </g>
        </g>
    </g>
</svg>
