<svg xmlns="http://www.w3.org/2000/svg" width="12" height="12" viewBox="0 0 12 12">
    <g fill="none" fill-rule="evenodd">
        <g>
            <g>
                <g>
                    <g>
                        <g>
                            <path d="M0 0L12 0 12 12 0 12z" transform="translate(-1197 -285) translate(362.5 64) translate(20.5 211) translate(814 7) translate(0 3)"/>
                            <path fill="#21B7A8" fill-rule="nonzero" d="M6 1c2.761 0 5 2.239 5 5 0 1.326-.527 2.598-1.464 3.536C8.598 10.473 7.326 11 6 11c-2.761 0-5-2.239-5-5s2.239-5 5-5zm0 .989c-1.623 0-3.086.977-3.707 2.477s-.278 3.225.87 4.373c1.148 1.147 2.874 1.49 4.373.869 1.5-.622 2.477-2.085 2.476-3.708 0-2.216-1.796-4.011-4.012-4.011zm2.18 2.127c.175.045.312.182.357.357.046.175-.006.36-.136.486L5.259 8.1 3.6 6.442c-.13-.126-.182-.311-.136-.486.045-.175.182-.312.357-.357.175-.046.36.006.486.136l.953.952 2.434-2.435c.126-.13.311-.182.486-.136z" transform="translate(-1197 -285) translate(362.5 64) translate(20.5 211) translate(814 7) translate(0 3)"/>
                        </g>
                    </g>
                </g>
            </g>
        </g>
    </g>
</svg>
