<svg xmlns="http://www.w3.org/2000/svg" width="12" height="14" viewBox="0 0 12 14">
    <g fill="none" fill-rule="evenodd">
        <g fill="#000" fill-rule="nonzero">
            <g>
                <g>
                    <path d="M11.59 6.27c-.225 0-.408-.195-.408-.437 0-1.675-.61-3.25-1.717-4.434-.16-.171-.16-.448 0-.62.16-.17.419-.17.579 0C11.305 2.13 12 3.926 12 5.834c0 .242-.183.438-.41.438zM.41 6.27c-.227 0-.41-.195-.41-.437C0 3.925.695 2.13 1.957.78c.16-.17.419-.17.579 0 .16.171.16.449 0 .62C1.428 2.583.818 4.157.818 5.832c0 .242-.183.438-.409.438zM6 14c-1.128 0-2.045-.981-2.045-2.188 0-.241.183-.437.409-.437.226 0 .409.196.409.438 0 .723.55 1.312 1.227 1.312s1.227-.589 1.227-1.313c0-.241.184-.437.41-.437.225 0 .409.196.409.438C8.046 13.018 7.128 14 6 14z" transform="translate(-306 -240) translate(290 233) translate(16 7)"/>
                    <path d="M10.5 12.25h-9c-.526 0-.955-.458-.955-1.02 0-.3.122-.582.334-.777.83-.75 1.303-1.839 1.303-2.993V5.833C2.182 3.582 3.895 1.75 6 1.75s3.818 1.832 3.818 4.083V7.46c0 1.154.473 2.244 1.297 2.99.218.198.34.48.34.78 0 .562-.429 1.02-.955 1.02zM6 2.625c-1.654 0-3 1.44-3 3.208V7.46c0 1.412-.579 2.745-1.587 3.657-.02.018-.05.054-.05.112 0 .08.063.146.137.146h9c.074 0 .136-.067.136-.146 0-.058-.03-.094-.048-.11C9.578 10.204 9 8.871 9 7.458V5.834c0-1.769-1.346-3.208-3-3.208z" transform="translate(-306 -240) translate(290 233) translate(16 7)"/>
                    <path d="M6 2.625c-.226 0-.409-.196-.409-.438V.438C5.591.197 5.774 0 6 0c.226 0 .41.196.41.438v1.75c0 .241-.184.437-.41.437z" transform="translate(-306 -240) translate(290 233) translate(16 7)"/>
                </g>
            </g>
        </g>
    </g>
</svg>
