<svg xmlns="http://www.w3.org/2000/svg" width="16" height="14" viewBox="0 0 16 14">
    <g fill="none" fill-rule="evenodd">
        <g fill="#FFF" fill-rule="nonzero">
            <g>
                <g>
                    <g>
                        <g>
                            <g>
                                <path d="M9.062 5.162c.954.955.954 2.503 0 3.457-.955.955-2.503.955-3.457 0-.955-.954-.955-2.502 0-3.457.954-.954 2.502-.954 3.457 0" transform="translate(-849 -287) translate(520 174) translate(225 32) translate(24.005) translate(70.995 72) translate(9.075 9.9)"/>
                                <path d="M12.833 1.85h-1.266L10.649.015H4.016L3.1 1.85l-1.265.002c-1.008.002-1.83.824-1.83 1.833L0 11.015c0 1.012.822 1.834 1.833 1.834h11c1.011 0 1.834-.822 1.834-1.833V3.682c0-1.01-.823-1.833-1.834-1.833zm-5.5 8.708c-2.022 0-3.667-1.645-3.667-3.667s1.645-3.667 3.667-3.667S11 4.87 11 6.891s-1.645 3.667-3.667 3.667z" transform="translate(-849 -287) translate(520 174) translate(225 32) translate(24.005) translate(70.995 72) translate(9.075 9.9)"/>
                            </g>
                        </g>
                    </g>
                </g>
            </g>
        </g>
    </g>
</svg>
