<svg xmlns="http://www.w3.org/2000/svg" width="48" height="32" viewBox="0 0 48 32">
    <g fill="none" fill-rule="evenodd">
        <g>
            <g>
                <g>
                    <path fill="#3F5BD9" fill-rule="nonzero" d="M47.423 3.266c.057.27-.115.535-.385.593-.27.058-.535-.114-.593-.384C46.2 2.33 45.185 1.5 44 1.5c-.276 0-.5-.224-.5-.5s.224-.5.5-.5c1.66 0 3.08 1.163 3.423 2.766zm.077 7.142c0 .276-.224.5-.5.5s-.5-.224-.5-.5v-4c0-.276.224-.5.5-.5s.5.224.5.5v4zm0 7c0 .276-.224.5-.5.5s-.5-.224-.5-.5v-4c0-.276.224-.5.5-.5s.5.224.5.5v4zm0 7c0 .276-.224.5-.5.5s-.5-.224-.5-.5v-4c0-.276.224-.5.5-.5s.5.224.5.5v4zm-2.075 6.79c-.252.112-.548-.001-.66-.253-.113-.252 0-.548.252-.66.895-.4 1.483-1.289 1.483-2.285v-.592c0-.276.224-.5.5-.5s.5.224.5.5V28c0 1.395-.823 2.64-2.075 3.198zm-7.24.302c-.277 0-.5-.224-.5-.5s.223-.5.5-.5h4c.276 0 .5.224.5.5s-.224.5-.5.5h-4zm-7 0c-.277 0-.5-.224-.5-.5s.223-.5.5-.5h4c.276 0 .5.224.5.5s-.224.5-.5.5h-4zm-7 0c-.277 0-.5-.224-.5-.5s.223-.5.5-.5h4c.276 0 .5.224.5.5s-.224.5-.5.5h-4zm-7 0c-.277 0-.5-.224-.5-.5s.223-.5.5-.5h4c.276 0 .5.224.5.5s-.224.5-.5.5h-4zm-7 0c-.277 0-.5-.224-.5-.5s.223-.5.5-.5h4c.276 0 .5.224.5.5s-.224.5-.5.5h-4zm-7.127-.128c-.266-.075-.422-.35-.348-.616.075-.266.35-.422.616-.348.218.06.443.092.674.092h3.184c.277 0 .5.224.5.5s-.223.5-.5.5H4c-.322 0-.638-.044-.942-.128zM.5 24.777c0-.276.224-.5.5-.5s.5.223.5.5v3.266c.004.219.036.434.094.64.076.266-.079.542-.344.618-.266.075-.542-.08-.618-.345-.082-.29-.126-.59-.132-.905v-3.274zm0-7c0-.277.224-.5.5-.5s.5.223.5.5v4c0 .276-.224.5-.5.5s-.5-.224-.5-.5v-4zm0-7c0-.277.224-.5.5-.5s.5.223.5.5v4c0 .276-.224.5-.5.5s-.5-.224-.5-.5v-4zM.51 3.74c.02-.275.26-.482.535-.462.275.02.482.26.462.535l-.005.093-.002 3.87c0 .277-.224.5-.5.5s-.5-.223-.5-.5V4c0-.087.003-.174.01-.26zM6.63.5c.276 0 .5.224.5.5s-.224.5-.5.5H3.958c-.39.007-.766.103-1.105.278-.246.127-.547.031-.674-.214s-.031-.547.214-.674C2.869.644 3.396.51 3.95.5h2.681zm7 0c.276 0 .5.224.5.5s-.224.5-.5.5h-4c-.276 0-.5-.224-.5-.5s.224-.5.5-.5h4zm7 0c.276 0 .5.224.5.5s-.224.5-.5.5h-4c-.276 0-.5-.224-.5-.5s.224-.5.5-.5h4zm7 0c.276 0 .5.224.5.5s-.224.5-.5.5h-4c-.276 0-.5-.224-.5-.5s.224-.5.5-.5h4zm7 0c.276 0 .5.224.5.5s-.224.5-.5.5h-4c-.276 0-.5-.224-.5-.5s.224-.5.5-.5h4zm7 0c.276 0 .5.224.5.5s-.224.5-.5.5h-4c-.276 0-.5-.224-.5-.5s.224-.5.5-.5h4z" transform="translate(-544 -1587) translate(520 1054) translate(24 533)"/>
                    <g stroke="#3F5BD9" stroke-linecap="round" stroke-linejoin="round" stroke-width="1.5">
                        <path d="M4 0L4 8M0 4L8 4" transform="translate(-544 -1587) translate(520 1054) translate(24 533) translate(20 12)"/>
                    </g>
                </g>
            </g>
        </g>
    </g>
</svg>
