<svg xmlns="http://www.w3.org/2000/svg" width="19" height="18" viewBox="0 0 19 18">
    <g fill="none" fill-rule="evenodd">
        <g>
            <g>
                <g>
                    <g>
                        <path d="M0 0L18 0 18 18 0 18z" transform="translate(-1312 -274) translate(1279 64) translate(16 210) translate(17.5)"/>
                        <path fill="#2B2F3F" fill-rule="nonzero" d="M11.25 2.25c.414 0 .75.336.75.75v1.5h3.75c.414 0 .75.336.75.75V15c0 .414-.336.75-.75.75H2.25c-.414 0-.75-.336-.75-.75V5.25c0-.414.336-.75.75-.75H6V3c0-.414.336-.75.75-.75h4.5zM12 6H6v8.25h6V6zM3 6v8.25h1.5V6H3zm7.5-2.25h-3v.75h3v-.75zm3 2.25v8.25H15V6h-1.5z" transform="translate(-1312 -274) translate(1279 64) translate(16 210) translate(17.5)"/>
                    </g>
                </g>
            </g>
        </g>
    </g>
</svg>
