<svg xmlns="http://www.w3.org/2000/svg" width="20" height="20" viewBox="0 0 20 20">
    <g fill="none" fill-rule="evenodd">
        <g>
            <g>
                <g>
                    <g>
                        <path d="M0 0L20 0 20 20 0 20z" transform="translate(-988 -102) translate(384 84) translate(594 8) translate(10 10)"/>
                        <path fill="#2B2F3F" fill-rule="nonzero" d="M10 18.333c-2.68 0-5.155-1.43-6.495-3.75-1.34-2.32-1.34-5.18 0-7.5 1.34-2.32 3.816-3.75 6.495-3.75 4.142 0 7.5 3.358 7.5 7.5 0 4.142-3.358 7.5-7.5 7.5zm0-1.666c2.084 0 4.01-1.112 5.052-2.917 1.042-1.805 1.042-4.028 0-5.833C14.01 6.112 12.084 5 10 5c-3.222 0-5.833 2.612-5.833 5.833 0 3.222 2.611 5.834 5.833 5.834zm.833-5.834h2.5V12.5H9.167V6.667h1.666v4.166zM1.456 5.235l2.946-2.946L5.58 3.467 2.633 6.415 1.456 5.235zm14.142-2.946l2.946 2.946-1.178 1.18-2.947-2.948L15.6 2.29h-.002z" transform="translate(-988 -102) translate(384 84) translate(594 8) translate(10 10)"/>
                    </g>
                </g>
            </g>
        </g>
    </g>
</svg>
