<svg xmlns="http://www.w3.org/2000/svg" width="24" height="24" viewBox="0 0 24 24">
    <g fill="none" fill-rule="evenodd">
        <g>
            <g>
                <path d="M0 0L24 0 24 24 0 24z" transform="translate(-774 -370) translate(774 370)"/>
                <path fill="#1D1E20" fill-rule="nonzero" d="M3 17h18v2H3v-2zm0-6h3v3H3v-3zm5 0h3v3H8v-3zM3 5h3v3H3V5zm10 0h3v3h-3V5zm5 0h3v3h-3V5zm-5 6h3v3h-3v-3zm5 0h3v3h-3v-3zM8 5h3v3H8V5z" transform="translate(-774 -370) translate(774 370)"/>
            </g>
        </g>
    </g>
</svg>
