<svg xmlns="http://www.w3.org/2000/svg" width="18" height="18" viewBox="0 0 18 18">
    <g fill="none" fill-rule="evenodd">
        <g>
            <g>
                <g>
                    <g>
                        <path d="M0 0H18V18H0z" transform="translate(-1313 -88) translate(1279 64) translate(14 24) translate(20)"/>
                        <g fill="#3F5BD9" fill-rule="nonzero">
                            <path d="M7.5 11.454L2.865 14 3.9 8.887 0 5.347l5.275-.613L7.5 0l2.225 4.734L15 5.348l-3.9 3.539L12.135 14 7.5 11.454zm0-1.478l2.79 1.533-.623-3.079L12.015 6.3l-3.176-.37L7.5 3.08 6.16 5.93 2.986 6.3 5.333 8.43l-.624 3.079L7.5 9.976z" transform="translate(-1313 -88) translate(1279 64) translate(14 24) translate(20) translate(2 2)"/>
                        </g>
                    </g>
                </g>
            </g>
        </g>
    </g>
</svg>
