<svg xmlns="http://www.w3.org/2000/svg" width="12" height="12" viewBox="0 0 12 12">
    <g fill="none" fill-rule="evenodd">
        <g>
            <g>
                <g>
                    <g>
                        <g>
                            <g>
                                <path d="M0 0L12 0 12 12 0 12z" transform="translate(-1199 -206) translate(362.5 64) translate(.5 107) translate(20 25) translate(816 7) translate(0 3)"/>
                                <g fill="#F19D0C" fill-rule="nonzero">
                                    <path d="M5 0c2.761 0 5 2.239 5 5s-2.239 5-5 5-5-2.239-5-5 2.239-5 5-5zm0 1C2.79 1 1 2.79 1 5s1.79 4 4 4 4-1.79 4-4-1.79-4-4-4zm0 1c.276 0 .5.224.5.5v2.472l1.327 1.15c.158.137.214.357.141.553C6.895 6.87 6.708 7 6.5 7c-.12 0-.236-.043-.327-.122L4.5 5.429V2.5c0-.276.224-.5.5-.5z" transform="translate(-1199 -206) translate(362.5 64) translate(.5 107) translate(20 25) translate(816 7) translate(0 3) translate(1 1)"/>
                                </g>
                            </g>
                        </g>
                    </g>
                </g>
            </g>
        </g>
    </g>
</svg>
