<svg xmlns="http://www.w3.org/2000/svg" width="12" height="16" viewBox="0 0 12 16">
    <g fill="none" fill-rule="evenodd">
        <g fill="#6A7582" fill-rule="nonzero">
            <g>
                <path d="M7.716 16.969c.31 0 .578-.101.804-.304.226-.202.34-.464.34-.786 0-.333-.161-.643-.483-.929l-4.68-4.394.411-.018c1.62-.023 2.846-.428 3.68-1.214.833-.786 1.334-1.697 1.5-2.733h1.59c.238 0 .432-.08.58-.241.15-.161.224-.349.224-.563 0-.548-.268-.822-.804-.822H9.306c-.06-.44-.167-.845-.321-1.214-.155-.37-.364-.709-.626-1.018h2.448c.226 0 .416-.08.571-.242.155-.16.232-.354.232-.58 0-.548-.268-.822-.803-.822H7.27c-.274-.024-.563-.044-.866-.062C6.1 1.009 5.799 1 5.502 1H1.054c-.298 0-.548.101-.75.304C.1 1.506 0 1.756 0 2.054s.101.55.304.759c.202.208.452.313.75.313h2.93c.738 0 1.35.16 1.84.482.487.321.803.774.946 1.357H.965c-.227 0-.417.078-.572.233-.155.154-.232.35-.232.59 0 .213.077.401.232.562.155.16.345.24.572.24h5.84c-.142.632-.473 1.102-.99 1.412-.519.31-1.195.464-2.028.464H1.41c-.369 0-.676.108-.92.322-.244.214-.366.512-.366.893 0 .286.06.515.179.688.119.172.28.36.482.562l5.859 5.538c.369.333.726.5 1.071.5z" transform="translate(-250 -192) translate(250 191)"/>
            </g>
        </g>
    </g>
</svg>
