<?xml version="1.0" encoding="UTF-8"?>
<svg width="24px" height="24px" viewBox="0 0 24 24" version="1.1" xmlns="http://www.w3.org/2000/svg" xmlns:xlink="http://www.w3.org/1999/xlink">
    <title>726AB0C0-E995-4561-BB22-64FDB8C10E39</title>
    <g id="Page-1" stroke="none" stroke-width="1" fill="none" fill-rule="evenodd">
        <g id="Derivatives-Market---1" transform="translate(-1235.000000, -981.000000)">
            <g id="Group-49" transform="translate(362.000000, 65.000000)">
                <g id="Group-92" transform="translate(0.000000, 641.000000)">
                    <g id="Group-83" transform="translate(0.000000, 106.500000)">
                        <g id="Group-69-Copy" transform="translate(20.000000, 158.000000)">
                            <g id="watchlist-copy-2" transform="translate(853.000000, 10.500000)">
                                <path d="M12,0 C18.627417,-1.21743675e-15 24,5.372583 24,12 C24,18.627417 18.627417,24 12,24 C5.372583,24 8.11624501e-16,18.627417 0,12 C-8.11624501e-16,5.372583 5.372583,1.21743675e-15 12,0 Z" id="Path"></path>
                                <g id="Group" stroke-linecap="round" stroke-linejoin="round" transform="translate(5.000000, 5.000000)" stroke="#919294" stroke-width="1.6">
                                    <path d="M6.27797685,12.5361404 L3.46422246,13.8361263 C3.20485404,13.9438035 2.91090316,13.9060772 2.68533123,13.7347368 C2.4597593,13.5641825 2.33400492,13.283593 2.35286807,12.9935719 L2.60594878,9.06924912 L0.18910667,6.05035789 C0.00990667001,5.82635789 -0.0466828037,5.5237614 0.0397733367,5.24631579 C0.126229477,4.96965614 0.343155793,4.75901754 0.613527723,4.68749474 L4.27062246,3.72547368 L6.27797685,0.395340351 C6.42652421,0.149333333 6.68589263,0 6.96412421,0 C7.24235579,0 7.50251018,0.149333333 7.65105755,0.396126316 L9.65998386,3.72547368 L13.3170786,4.68670877 C13.5874505,4.75744561 13.8043768,4.96887018 13.890833,5.24552982 C13.9772891,5.52218947 13.9206997,5.82557193 13.7414997,6.04957193 L13.1205874,6.7648 M10.7336119,8.88454737 L10.7336119,13.3692632 M8.61700842,11.1269053 L12.8510014,11.1269053" id="Shape"></path>
                                </g>
                            </g>
                        </g>
                    </g>
                </g>
            </g>
        </g>
    </g>
</svg>