<svg width="32" height="32" xmlns="http://www.w3.org/2000/svg">
    <g fill="none" fill-rule="evenodd">
        <rect width="32" height="32" rx="4"/>
        <g fill-rule="nonzero">
            <path d="m7.989 20.75-2.9-7.32-2.939 7.322H.006l3.98-9.316h2.22l3.98 9.316-2.197-.001zm9.191 0-2.022-3.007h-1.755v3.009h-2.085v-9.246h4.4a5.604 5.604 0 0 1 1.847.264c.44.144.84.387 1.173.71.534.513.79 1.189.79 2.073v.03c.025.603-.147 1.2-.491 1.696a3.202 3.202 0 0 1-1.362 1.036l-.392.165 2.263 3.27H17.18zm-3.777-4.476h2.184c.476.027.946-.114 1.328-.399.337-.273.527-.69.512-1.123v-.029a1.355 1.355 0 0 0-.544-1.163 2.194 2.194 0 0 0-1.31-.359h-2.17v3.073z" fill="#0A73B8"/>
            <path fill="#FFC906" d="m25.222 18.079 6.103 3.613-4.087-5.85z"/>
            <path d="M26.388 19.092c-.292.087-.595.13-.9.13A3.113 3.113 0 0 1 25.531 13a3.112 3.112 0 0 1 2.917 4.158l1.126 1.594a4.794 4.794 0 0 0 .79-2.641 4.885 4.885 0 1 0-2.179 4.034l-1.796-1.053z" fill="#0A73B8"/>
        </g>
    </g>
</svg>
