<svg width="302" height="181" xmlns="http://www.w3.org/2000/svg">
    <g transform="translate(1)" fill="none" fill-rule="evenodd">
        <circle fill="#FFD63F" cx="299" cy="108" r="2"/>
        <circle fill="#78D3FF" cx="145" cy="2" r="2"/>
        <path d="M285.215 180.51a4.965 4.965 0 0 1 2.164-.099c.215-1.623-.514-3.221-1.228-4.73-.253-.534-.63-1.152-1.267-1.187-.654-.036-2.365 1.654-2.357 2.196.008.47 1.217 1.258 1.536 1.66a6.654 6.654 0 0 1 1.152 2.16z" fill="#78D3FF"/>
        <path d="M248.215 116.51a4.965 4.965 0 0 1 2.164-.099c.215-1.623-.514-3.221-1.228-4.73-.253-.534-.63-1.152-1.267-1.187-.654-.036-2.365 1.654-2.357 2.196.008.47 1.217 1.258 1.536 1.66a6.654 6.654 0 0 1 1.152 2.16z" fill="#FF7D77"/>
        <path d="M200.5 96.77c-.954 0-1.73.776-1.73 1.73s.776 1.73 1.73 1.73 1.73-.776 1.73-1.73-.776-1.73-1.73-1.73zm0 4.23a2.503 2.503 0 0 1-2.5-2.5c0-1.379 1.122-2.5 2.5-2.5 1.379 0 2.5 1.121 2.5 2.5 0 1.378-1.121 2.5-2.5 2.5z" fill="#2EEAC5"/>
        <path d="M4 149.181v-.362c0-.951-.92-1.861-2-1.817-1.083.044-2 .798-2 1.817v.362c0 .951.92 1.861 2 1.817 1.084-.044 2-.798 2-1.817z" stroke="#FFD63F"/>
        <path d="M23 90.181v-.362c0-.951-.92-1.861-2-1.817-1.083.044-2 .798-2 1.817v.362c0 .951.92 1.861 2 1.817 1.084-.044 2-.798 2-1.817z" stroke="#78D3FF"/>
        <path d="M68 105.82c.216.69.275 1.439.173 2.16 1.63.158 3.202-.627 4.685-1.394.525-.271 1.129-.668 1.142-1.307.014-.655-1.736-2.305-2.277-2.279-.468.024-1.215 1.26-1.605 1.593-.634.54-1.353.961-2.118 1.227z" fill="#2EEAC5"/>
        <circle fill="#FF7D77" cx="57" cy="40" r="2"/>
        <path d="M231.5 48.77c-.954 0-1.73.776-1.73 1.73s.776 1.73 1.73 1.73 1.73-.776 1.73-1.73-.776-1.73-1.73-1.73zm0 4.23a2.503 2.503 0 0 1-2.5-2.5c0-1.379 1.122-2.5 2.5-2.5 1.379 0 2.5 1.121 2.5 2.5 0 1.378-1.121 2.5-2.5 2.5z" fill="#FF7D77"/>
    </g>
</svg>
