<svg xmlns="http://www.w3.org/2000/svg" width="40" height="40" viewBox="0 0 40 40">
    <g fill="none" fill-rule="evenodd">
        <g>
            <g>
                <g>
                    <g transform="translate(-383 -1170) translate(362 64) translate(0 975) translate(21 131)">
                        <circle cx="20" cy="20" r="20" fill="#F4F6FB"/>
                        <g>
                            <path d="M0 0L24 0 24 24 0 24z" transform="translate(8 8)"/>
                            <path fill="#3F5BD9" fill-rule="nonzero" d="M19.88 13.649c-.683 3.332-3.386 5.875-6.754 6.353v-1.628c2.479-.443 4.473-2.289 5.104-4.726h1.65zm-14.109 0c.624 2.408 2.58 4.241 5.023 4.71v1.631c-3.333-.507-5.997-3.04-6.673-6.342h1.65zm11.053-2.413v1.608h-2.412c-.841 0-1.54.648-1.604 1.487l-.004.12v2.413h-1.608v-2.412c0-.842-.648-1.541-1.487-1.604l-.12-.004H7.176v-1.608h9.647zM12 4c4.169 0 7.597 3.173 8 7.236h-1.618C17.976 8.02 15.242 5.609 12 5.609c-3.24 0-5.976 2.411-6.382 5.627H4C4.404 7.173 7.832 4 12 4z" transform="translate(8 8)"/>
                        </g>
                    </g>
                </g>
            </g>
        </g>
    </g>
</svg>
