<svg xmlns="http://www.w3.org/2000/svg" width="7" height="13" viewBox="0 0 7 13">
    <g fill="none" fill-rule="evenodd">
        <g fill="#6A7582" fill-rule="nonzero">
            <g>
                <path d="M30.253 39c.138 0 .264-.033.377-.098.114-.065.204-.16.27-.282.067-.123.1-.254.1-.395 0-.214-.076-.402-.23-.564L25.782 32.5l4.99-5.16c.153-.163.229-.35.229-.565 0-.146-.033-.279-.1-.4-.066-.12-.156-.212-.27-.277-.113-.065-.239-.098-.377-.098-.207 0-.381.073-.524.22l-5.485 5.693c-.089.083-.152.173-.189.27-.037.096-.055.202-.055.317 0 .115.018.22.055.317.037.097.1.187.189.27l5.485 5.694c.143.146.317.219.524.219z" transform="translate(-24.000000, -50.000000) translate(0.000000, 24.000000)"/>
            </g>
        </g>
    </g>
</svg>
