<svg width="24" height="24" viewBox="0 0 24 24" xmlns="http://www.w3.org/2000/svg">
    <g fill="none" fill-rule="evenodd">
        <path d="M0 0h24v24H0z"/>
        <path d="M7.267 5.371a1.896 1.896 0 0 0 0 3.792h1.896V7.267a1.896 1.896 0 0 0-1.896-1.896zm3.267 1.896V9.164h2.932V7.266a3.267 3.267 0 1 1 3.267 3.267h-1.896v2.932h1.896a3.267 3.267 0 1 1-3.267 3.267v-1.896h-2.932V16.847h-.002a3.267 3.267 0 1 1-3.265-3.381h1.896V10.534H7.267a3.267 3.267 0 1 1 3.265-3.382h.002V7.268zm0 3.267V13.466h2.932v-2.932h-2.932zm-1.37 4.303H7.266a1.896 1.896 0 1 0 1.896 1.896V14.836zm5.673 0v1.896a1.896 1.896 0 1 0 1.896-1.896h-1.896zm0-5.674h1.896a1.896 1.896 0 1 0-1.896-1.896v1.896z" fill="#000"/>
    </g>
</svg>
