<svg xmlns="http://www.w3.org/2000/svg" width="24" height="24" viewBox="0 0 24 24">
    <g fill="none" fill-rule="evenodd">
        <g>
            <g>
                <g>
                    <g>
                        <path d="M0 0H24V24H0z" transform="translate(-1026 -791) translate(385 779) translate(546 12) translate(95)"/>
                        <path fill="#F65E5A" d="M19.655 4c.413 0 .78.261.916.65l.331.954c.136.39.01.825-.315 1.08l-1.16.914c-.322.254-.45.682-.32 1.07l1.8 5.369c.133.396-.003.833-.337 1.084l-7.825 5.876c-.34.255-.807.259-1.151.01L3.442 15.11c-.338-.245-.482-.68-.356-1.079l1.708-5.39c.12-.376 0-.786-.303-1.038l-1.1-.917c-.31-.259-.428-.683-.294-1.065l.34-.973C3.574 4.26 3.941 4 4.353 4h15.302zm-5.314 4.338H9.566c-.934 2.056-1.168 3.704-.7 4.944.467 1.239 1.512 1.92 3.136 2.044 1.56-.165 2.592-.847 3.096-2.044.504-1.198.252-2.846-.757-4.944zm-2.237 4.816c-.062.05-.148.052-.213.01l-.012-.01-2.213-1.748c-.044-.035-.07-.088-.07-.143 0-.097.074-.175.169-.182h4.439c.056 0 .109.025.143.069.06.075.05.182-.019.246l-.011.01-2.213 1.748z" transform="translate(-1026 -791) translate(385 779) translate(546 12) translate(95)"/>
                    </g>
                </g>
            </g>
        </g>
    </g>
</svg>
