<svg xmlns="http://www.w3.org/2000/svg" width="40" height="40" viewBox="0 0 40 40">
    <g fill="none" fill-rule="evenodd">
        <g>
            <g>
                <g>
                    <g>
                        <g transform="translate(-383 -1691) translate(362 64) translate(0 975) translate(21 551) translate(0 101)">
                            <circle cx="20" cy="20" r="20" fill="#F4F6FB"/>
                            <g>
                                <path d="M0 0H24V24H0z" transform="translate(8 8)"/>
                                <path fill="#3F5BD9" fill-rule="nonzero" stroke="#3F5BD9" stroke-width=".8" d="M19.714 4.285c-.272-.276-.684-.36-1.043-.213L7.952 8.398c-.297.124-.514.388-.578.704-.065.316.032.643.257.874l2.989 2.991-1.169 1.169c-.105-.09-.251-.31-.415-.292-.163.017-.37.271-.485.365l-.254-.254c-.114-.113-.298-.113-.412 0L4.55 17.239c-1.604 1.525.669 3.815 2.194 2.226l3.31-3.357c.113-.114.113-.298 0-.412l-.254-.254c.17-.181.537-.42.292-.693l-.208-.207 1.169-1.169 2.971 3.007c.23.226.558.324.875.26.316-.065.58-.283.703-.582l4.326-10.73c.15-.359.065-.772-.213-1.043zM9.042 14.539h0l-.073.073h0l.073-.073zM6.316 19.07c-.952 1.026-2.422-.455-1.373-1.402l3.153-3.103 1.338 1.341-3.118 3.164zm3.144-4.113l-.073.073h0l.073-.073zm9.933-9.848l-4.336 10.718c-.048.119-.152.205-.277.23-.124.026-.254-.012-.345-.101l-2.989-2.989 1.292-1.294c.099-.116.092-.289-.016-.396-.108-.108-.28-.115-.396-.016l-1.294 1.292-2.99-2.99c-.09-.09-.128-.22-.101-.344.023-.126.11-.231.23-.277l10.72-4.327c.14-.06.304-.028.412.08.109.11.14.272.081.414h.009z" transform="translate(8 8)"/>
                            </g>
                        </g>
                    </g>
                </g>
            </g>
        </g>
    </g>
</svg>
