<svg xmlns="http://www.w3.org/2000/svg" width="16" height="16" viewBox="0 0 16 16">
    <g fill="none" fill-rule="evenodd" stroke-linecap="round" stroke-linejoin="round">
        <g stroke="#1EC7B5" stroke-width="1.5">
            <g>
                <g>
                    <g>
                        <g>
                            <g>
                                <g>
                                    <path d="M13.333 6.057v.614c-.001 2.952-1.945 5.552-4.776 6.39-2.831.836-5.876-.289-7.483-2.765-1.607-2.477-1.393-5.716.525-7.96C3.517.09 6.683-.624 9.38.577" transform="translate(-422 -423) translate(362.5 64) translate(20.5 211) translate(0 62) translate(20 65) translate(20 20) translate(0 2)"/>
                                    <path d="M13.333 1.337L6.667 8.011 4.667 6.011" transform="translate(-422 -423) translate(362.5 64) translate(20.5 211) translate(0 62) translate(20 65) translate(20 20) translate(0 2)"/>
                                </g>
                            </g>
                        </g>
                    </g>
                </g>
            </g>
        </g>
    </g>
</svg>
