<svg xmlns="http://www.w3.org/2000/svg" width="36" height="36" viewBox="0 0 36 36">
    <g fill="none" fill-rule="evenodd">
        <g fill-rule="nonzero">
            <g>
                <g>
                    <g>
                        <g transform="translate(-1082.000000, -624.000000) translate(938.000000, 510.000000) translate(40.000000, 24.000000) translate(32.000000, 90.000000) translate(72.000000, 0.000000)">
                            <circle cx="18" cy="18" r="18" fill="#E8E8E8"/>
                            <path fill="#E8E8E8" d="M36 18c0 9.945-8.06 18-18 18-5.659 0-10.71-2.61-14.012-6.7 3.088 2.498 7.02 3.989 11.3 3.989 9.94 0 18-8.055 18-18 0-4.28-1.49-8.213-3.987-11.3C33.384 7.29 36 12.34 36 18z"/>
                            <g fill="#3E4347" transform="translate(9.588375, 11.878875)">
                                <path d="M16.467 12.337c0 .54-.438.979-.98.979H1.335c-.535 0-.979-.438-.979-.98 0-.54.444-.978.98-.978h14.153c.542.001.979.438.979.979z"/>
                                <circle cx="2.682" cy="2.682" r="2.682"/>
                            </g>
                            <circle cx="13.406" cy="13.465" r="1" fill="#3E4347" transform="translate(13.406428, 13.465239) rotate(-126.653329) translate(-13.406428, -13.465239)"/>
                            <circle cx="23.726" cy="14.561" r="2.682" fill="#3E4347"/>
                            <circle cx="24.862" cy="13.468" r="1" fill="#5A5F63" transform="translate(24.861609, 13.468114) rotate(-126.656750) translate(-24.861609, -13.468114)"/>
                        </g>
                    </g>
                </g>
            </g>
        </g>
    </g>
</svg>
