<svg xmlns="http://www.w3.org/2000/svg" width="40" height="40" viewBox="0 0 40 40">
    <g fill="none" fill-rule="evenodd">
        <g>
            <g>
                <g>
                    <g>
                        <g transform="translate(-383 -621) translate(362 65) translate(0 20) translate(21 191) translate(0 345)">
                            <circle cx="20" cy="20" r="20" fill="#F4F6FB"/>
                            <g>
                                <path d="M0 0L24 0 24 24 0 24z" transform="translate(8 8)"/>
                                <path fill="#3F5BD4" fill-rule="nonzero" d="M12.347 13.752v1.538c-1.35-.478-2.846-.27-4.015.558-1.168.827-1.863 2.172-1.863 3.605H5c0-1.822.84-3.54 2.278-4.656 1.437-1.115 3.309-1.501 5.07-1.046zm-1.47-.922c-2.435 0-4.408-1.975-4.408-4.415S8.442 4 10.878 4c2.435 0 4.408 1.976 4.408 4.415 0 2.44-1.973 4.415-4.408 4.415zm0-1.471c1.624 0 2.94-1.318 2.94-2.944s-1.316-2.943-2.94-2.943c-1.623 0-2.938 1.317-2.938 2.943 0 1.626 1.315 2.944 2.939 2.944zm4.49 6.56l2.598-2.602 1.04 1.04L15.368 20l-2.598-2.602 1.04-1.04 1.557 1.56z" transform="translate(8 8)"/>
                            </g>
                        </g>
                    </g>
                </g>
            </g>
        </g>
    </g>
</svg>
