<svg width="24" height="24" xmlns="http://www.w3.org/2000/svg">
    <g fill="none" fill-rule="evenodd">
        <path d="M0 0h24v24H0z"/>
        <path d="M18.234 8.36a9 9 0 1 0-2.813 10.825" stroke="#3F5BD9" stroke-width="1.5" stroke-linecap="round" stroke-linejoin="round"/>
        <path d="M9.988 16.196c.92 0 1.646-.212 2.178-.636.532-.424.798-.996.798-1.716 0-.472-.122-.866-.366-1.182a2.62 2.62 0 0 0-.876-.738c-.34-.176-.794-.372-1.362-.588-.536-.192-.932-.35-1.188-.474-.256-.124-.448-.262-.576-.414-.128-.152-.192-.348-.192-.588 0-.336.122-.596.366-.78.244-.184.586-.276 1.026-.276.544 0 .97.13 1.278.39.308.26.462.578.462.954v.132c0 .04.014.074.042.102a.139.139 0 0 0 .102.042h1.08c.04 0 .074-.014.102-.042a.139.139 0 0 0 .042-.102v-.204a2.22 2.22 0 0 0-.384-1.29 2.535 2.535 0 0 0-1.074-.87c-.46-.208-.99-.312-1.59-.312-.856 0-1.54.204-2.052.612-.512.408-.768.964-.768 1.668 0 .472.118.866.354 1.182.236.316.53.566.882.75.352.184.812.38 1.38.588.504.192.882.352 1.134.48.252.128.446.27.582.426a.837.837 0 0 1 .204.57c0 .328-.124.596-.372.804-.248.208-.616.312-1.104.312-.568 0-1.016-.122-1.344-.366-.328-.244-.492-.55-.492-.918v-.228a.139.139 0 0 0-.042-.102.139.139 0 0 0-.102-.042H7.048a.139.139 0 0 0-.102.042.139.139 0 0 0-.042.102v.3c0 .488.126.912.378 1.272s.61.64 1.074.84c.464.2 1.008.3 1.632.3z" fill="#3F5BD9" fill-rule="nonzero"/>
        <path stroke="#3F5BD9" stroke-width="1.2" stroke-linejoin="round" d="M21.102 17.93h-3.668v-3.622H15.44l3.828-4.083 3.866 3.963h-2.033z"/>
    </g>
</svg>
