<svg xmlns="http://www.w3.org/2000/svg" width="24" height="24" viewBox="0 0 24 24">
    <g fill="none" fill-rule="evenodd">
        <g>
            <g>
                <g>
                    <g>
                        <g>
                            <path d="M0 0H24V24H0z" transform="translate(-544 -1660) translate(520 996) translate(1 24) translate(0 640) translate(23)"/>
                            <g stroke="#1D1E20" stroke-linecap="round" stroke-linejoin="round" stroke-width="1.5" transform="translate(-544 -1660) translate(520 996) translate(1 24) translate(0 640) translate(23) translate(5 4)">
                                <path d="M9.75 1.6h1.625c.897 0 1.625.716 1.625 1.6v11.2c0 .884-.728 1.6-1.625 1.6h-9.75C.728 16 0 15.284 0 14.4V3.2c0-.884.728-1.6 1.625-1.6H3.25"/>
                                <rect width="6.5" height="3.2" x="3.25" rx="1"/>
                            </g>
                        </g>
                    </g>
                </g>
            </g>
        </g>
    </g>
</svg>
