<svg xmlns="http://www.w3.org/2000/svg" width="24" height="24" viewBox="0 0 24 24">
    <g fill="none" fill-rule="evenodd">
        <g>
            <g>
                <g>
                    <path d="M0 0H24V24H0z" transform="translate(-1192 -230) translate(1180 222) translate(12 8)"/>
                    <g stroke="#2A394E" stroke-linecap="round" stroke-linejoin="round" stroke-width="1.5">
                        <path d="M6.25 1.5H1.389C.622 1.5 0 2.122 0 2.89v9.721c0 .768.622 1.39 1.389 1.39h9.722c.767 0 1.389-.622 1.389-1.39v-4.86" transform="translate(-1192 -230) translate(1180 222) translate(12 8) translate(5 5)"/>
                        <path d="M11.439.44c.586-.586 1.536-.586 2.122 0 .586.585.586 1.536 0 2.121l-6.719 6.72-2.829.706.707-2.829L11.439.44z" transform="translate(-1192 -230) translate(1180 222) translate(12 8) translate(5 5)"/>
                    </g>
                </g>
            </g>
        </g>
    </g>
</svg>
