<svg xmlns="http://www.w3.org/2000/svg" width="24" height="24" viewBox="0 0 24 24">
    <g fill="none" fill-rule="evenodd">
        <g>
            <g>
                <g>
                    <g>
                        <g>
                            <path d="M0 0H24V24H0z" transform="translate(-544 -1734) translate(520 996) translate(1 24) translate(0 714) translate(23)"/>
                            <g stroke="#1D1E20" stroke-linecap="round" stroke-linejoin="round" stroke-width="1.5">
                                <path d="M8.125 0h-6.5C.728 0 0 .716 0 1.6v12.8c0 .884.728 1.6 1.625 1.6h9.75c.897 0 1.625-.716 1.625-1.6V4.8L8.125 0z" transform="translate(-544 -1734) translate(520 996) translate(1 24) translate(0 714) translate(23) translate(6 4)"/>
                                <path d="M8.125 0L8.125 4.8 13 4.8M4.063 10.4L8.938 10.4" transform="translate(-544 -1734) translate(520 996) translate(1 24) translate(0 714) translate(23) translate(6 4)"/>
                            </g>
                        </g>
                    </g>
                </g>
            </g>
        </g>
    </g>
</svg>
