<svg xmlns="http://www.w3.org/2000/svg" width="24" height="24" viewBox="0 0 24 24">
    <g fill="none" fill-rule="evenodd">
        <g>
            <g>
                <g>
                    <path d="M0 0L24 0 24 24 0 24z" transform="translate(-1142 -346) translate(1080 338) translate(62 8)"/>
                    <g>
                        <path stroke="#2A394E" stroke-linecap="round" stroke-linejoin="round" stroke-width="1.5" d="M17.234 5.36C15.836 2.203 12.675 0 9 0 4.03 0 0 4.03 0 9s4.03 9 9 9c2.036 0 3.913-.676 5.42-1.815" transform="translate(-1142 -346) translate(1080 338) translate(62 8) translate(1 3)"/>
                        <text fill="#2A394E" font-family="Barlow-SemiBold, Barlow" font-size="12" font-weight="500" transform="translate(-1142 -346) translate(1080 338) translate(62 8) translate(1 3)">
                            <tspan x="5.4" y="13.1">B</tspan>
                        </text>
                        <path stroke="#2A394E" stroke-linejoin="round" stroke-width="1.2" d="M15.474 8.225L19.142 8.225 19.142 11.847 21.135 11.847 17.307 15.929 13.441 11.967 15.474 11.967z" transform="translate(-1142 -346) translate(1080 338) translate(62 8) translate(1 3)"/>
                    </g>
                </g>
            </g>
        </g>
    </g>
</svg>
