<svg xmlns="http://www.w3.org/2000/svg" width="24" height="24" viewBox="0 0 24 24">
    <g fill="none" fill-rule="evenodd">
        <g>
            <g>
                <g>
                    <path d="M0 0L24 0 24 24 0 24z" transform="translate(-627 -1785) translate(385 1643) translate(242 142)"/>
                    <g>
                        <path stroke="#3F5BD9" stroke-linecap="round" stroke-linejoin="round" d="M0 0H12V8.471H0z" transform="translate(-627 -1785) translate(385 1643) translate(242 142) translate(6 7.2)"/>
                        <g transform="translate(-627 -1785) translate(385 1643) translate(242 142) translate(6 7.2) translate(5.647 2.118)">
                            <path stroke="#3F5BD9" stroke-linecap="round" stroke-linejoin="round" d="M0.529 2.824L0.529 1.032 0.529 0" transform="rotate(-180 .53 1.412)"/>
                            <circle cx=".529" cy="4.059" r="1" fill="#3F5BD9" stroke="#8F836B"/>
                        </g>
                        <path stroke="#3F5BD9" stroke-linecap="round" stroke-linejoin="round" d="M3.529 11.647L8.471 11.647M5.948 8.471L5.948 11.294" transform="translate(-627 -1785) translate(385 1643) translate(242 142) translate(6 7.2)"/>
                    </g>
                </g>
            </g>
        </g>
    </g>
</svg>
