<svg xmlns="http://www.w3.org/2000/svg" width="20" height="20" viewBox="0 0 20 20">
    <g fill="none" fill-rule="evenodd">
        <g>
            <g>
                <g>
                    <g>
                        <g transform="translate(-1107 -152) translate(10 123) translate(20 12) translate(1011 8) translate(66 9)">
                            <rect width="20" height="20" fill="#D8D8D8" fill-opacity="0" rx="2"/>
                            <g fill-rule="nonzero">
                                <path fill="#ECEFF1" d="M18.37 15.408h-8.296c-.327 0-.593-.266-.593-.593V2.964c0-.327.266-.593.593-.593h8.296c.327 0 .592.266.592.593v11.85c0 .328-.265.594-.592.594z" transform="translate(0 1.111)"/>
                                <path fill="#ADAFB8" d="M10.452.137c.109.09.18.215.205.352l.01.104-.001 4.148h1.778c.327 0 .592.266.592.593 0 .327-.265.592-.592.592h-1.778v1.185h1.778c.327 0 .592.266.592.593 0 .327-.265.593-.592.593l-1.778-.001v1.185h1.778c.327 0 .592.266.592.593 0 .328-.265.593-.592.593l-1.778-.001v1.186h1.778c.327 0 .592.266.592.593 0 .327-.265.592-.592.592h-1.778v4.148c0 .176-.078.344-.214.456-.107.09-.24.137-.378.137l-.055-.003-.054-.008L.484 15.99c-.25-.046-.438-.245-.477-.488L0 15.408V2.37c0-.254.16-.475.393-.558l.09-.024L9.966.011c.17-.035.352.014.487.126zm5.547 11.715c.327 0 .593.266.593.593 0 .327-.266.592-.593.592h-1.185c-.327 0-.592-.265-.592-.592 0-.327.265-.593.592-.593H16zm-8.764-6.29L5.48 7.82 4.001 6.13c-.217-.249-.591-.271-.836-.056-.246.216-.27.59-.055.836l1.63 1.863-1.653 2.124c-.201.258-.154.63.103.832.11.084.239.124.365.124.177 0 .351-.078.469-.229l1.51-1.943 1.724 1.968c.117.135.28.204.445.204.139 0 .278-.048.39-.147.247-.216.272-.59.056-.835L6.275 8.728 8.17 6.291c.202-.258.154-.63-.103-.831-.257-.202-.63-.155-.832.103zM16 9.483c.327 0 .593.265.593.592 0 .328-.266.593-.593.593h-1.185c-.327 0-.592-.265-.592-.593 0-.327.265-.592.592-.592H16zm0-2.37c.327 0 .593.265.593.592 0 .327-.266.593-.593.593h-1.185c-.327 0-.592-.266-.592-.593 0-.327.265-.592.592-.592H16zm0-2.37c.327 0 .593.265.593.592 0 .327-.266.592-.593.592h-1.185c-.327 0-.592-.265-.592-.592 0-.327.265-.593.592-.593H16z" transform="translate(0 1.111)"/>
                            </g>
                        </g>
                    </g>
                </g>
            </g>
        </g>
    </g>
</svg>
