<svg xmlns="http://www.w3.org/2000/svg" width="40" height="40" viewBox="0 0 40 40">
    <g fill="none" fill-rule="evenodd">
        <g>
            <g>
                <g>
                    <g>
                        <g>
                            <g transform="translate(-406 -154) translate(362 116) translate(20 16) translate(24) translate(0 15) translate(0 7)">
                                <circle cx="20" cy="20" r="20" fill="#1EC7B5" fill-opacity=".16"/>
                                <g fill="#21B7A8" fill-rule="nonzero" stroke="#21B7A8" stroke-width=".5">
                                    <path d="M8.302-.25c.662 0 1.253.261 1.679.687.426.426.687 1.017.687 1.68 0 .349-.073.678-.204.974l-.085.173 3.867 4.031c.36-.222.789-.35 1.251-.35.346 0 .673.072.967.2l.172.085 5.286-5.287h-4.717L24.213.542v6.215l-1.215-3.986-5.413 5.413c.178.334.279.717.279 1.128 0 .663-.261 1.254-.687 1.68-.426.425-1.017.687-1.68.687-.662 0-1.253-.262-1.68-.687-.425-.426-.686-1.017-.686-1.68 0-.35.073-.678.204-.974l.085-.174-3.988-3.961c-.334.179-.718.28-1.13.28-.358 0-.694-.076-.995-.213l-.176-.09L.582 9.967l-.947-.947L6.201 3.22c-.17-.328-.266-.703-.266-1.104 0-.662.261-1.253.687-1.679C7.048.011 7.64-.25 8.302-.25zm7.195 8.542c-.289 0-.545.11-.728.292-.183.183-.292.44-.292.728 0 .29.11.545.292.728.183.183.44.292.728.292.29 0 .545-.109.728-.292.183-.183.292-.439.292-.728s-.109-.545-.292-.728c-.183-.183-.439-.292-.728-.292zM8.302 1.097c-.29 0-.545.108-.728.291-.184.184-.292.44-.292.728 0 .29.108.545.292.728.183.183.439.292.728.292s.544-.109.728-.292c.183-.183.291-.439.291-.728s-.108-.545-.291-.728c-.184-.183-.44-.291-.728-.291z" transform="translate(8 14)"/>
                                </g>
                            </g>
                        </g>
                    </g>
                </g>
            </g>
        </g>
    </g>
</svg>
