<svg width="209" height="119" xmlns="http://www.w3.org/2000/svg" xmlns:xlink="http://www.w3.org/1999/xlink">
    <defs>
        <filter x="-9.1%" y="-21.1%" width="118.3%" height="168.9%" filterUnits="objectBoundingBox" id="a">
            <feMorphology radius="3.5" in="SourceAlpha" result="shadowSpreadOuter1"/>
            <feOffset dy="6" in="shadowSpreadOuter1" result="shadowOffsetOuter1"/>
            <feGaussianBlur stdDeviation="8" in="shadowOffsetOuter1" result="shadowBlurOuter1"/>
            <feComposite in="shadowBlurOuter1" in2="SourceAlpha" operator="out" result="shadowBlurOuter1"/>
            <feColorMatrix values="0 0 0 0 0.536799347 0 0 0 0 0.61016128 0 0 0 0 0.997141078 0 0 0 1 0" in="shadowBlurOuter1"/>
        </filter>
        <path d="M169.5 5.087C169.5 2.28 167.38 0 164.767 0H4.734C2.12 0 0 2.28 0 5.087v34.826C0 42.72 2.121 45 4.734 45h160.033c2.613 0 4.733-2.28 4.733-5.087V5.087z" id="b"/>
    </defs>
    <g fill="none" fill-rule="evenodd">
        <path d="M207.28 45.831c.431-3.07-1.972-5.949-5.362-6.425L16.646 13.368c-3.392-.477-6.493 1.627-6.925 4.698L1.16 78.984c-.432 3.071 1.97 5.949 5.361 6.426l185.272 26.038c3.39.476 6.494-1.628 6.925-4.699l8.562-60.918z" fill-opacity=".8" fill="#F7F8FF"/>
        <g transform="translate(89.176 12.5)">
            <circle fill="#3F5BD9" cx="13.5" cy="13.5" r="13.5"/>
            <path d="M6 6h15v15H6z"/>
            <g stroke="#FFF" stroke-linecap="round" stroke-linejoin="round" stroke-width="1.5">
                <path d="M7.5 19.266h12M7.5 11.42h12M7.962 9.346 13.5 7.5l5.538 1.846M8.725 11.42v7.384M18.3 11.42v7.384M11.015 14.189v1.846M13.5 14.189v1.846M16.03 14.189v1.846"/>
            </g>
        </g>
        <g stroke-linecap="round" stroke-linejoin="round" transform="translate(18.25 46.25)">
            <use fill="#000" filter="url(#a)" xlink:href="#b"/>
            <use stroke="#3F5BD9" fill="#FFF" xlink:href="#b"/>
        </g>
        <g fill-rule="nonzero">
            <path fill="#097939" d="m51.926 72.009 3.572-3.259-1.692-3.37z"/>
            <path fill="#ED752E" d="m50.723 72.009 3.572-3.259-1.692-3.37z"/>
            <path d="m33.654 65.417-1.504 5.356 5.34.038 1.466-5.395h1.352l-1.757 6.271a.628.628 0 0 1-.572.433h-6.844c-.414 0-.66-.323-.548-.723l1.677-5.98h1.39zm16.505-.037h1.354l-1.88 6.74H48.24l1.918-6.74zm-9.7 2.808 6.768-.037.451-1.423h-6.881l.414-1.31 7.332-.068c.456-.005.728.348.608.79l-.691 2.524c-.12.44-.589.797-1.044.797H41.36l-.712 2.772H39.33l1.127-4.045h.001z" fill="#747474"/>
        </g>
        <path d="M62.795 71.684c.322 0 .615-.05.877-.152.263-.102.485-.247.667-.436.035-.021.053-.014.053.021v.378c0 .07.035.105.105.105h.797c.07 0 .106-.035.106-.105v-3.549c0-.343-.086-.65-.258-.919a1.713 1.713 0 0 0-.735-.63c-.318-.15-.691-.225-1.118-.225-.581 0-1.064.13-1.449.393s-.606.6-.662 1.013c-.006.042.025.07.095.084l.85.116c.064.007.105-.025.127-.095a.713.713 0 0 1 .34-.467c.186-.115.426-.173.72-.173.364 0 .635.086.814.257.178.172.268.412.268.72v.283c0 .028-.014.042-.042.042h-1.176c-.687 0-1.22.156-1.602.467-.381.312-.572.74-.572 1.287 0 .531.17.929.51 1.191.339.263.768.394 1.285.394zm.221-.85c-.301 0-.544-.067-.73-.2-.185-.133-.278-.329-.278-.588 0-.287.122-.511.367-.672.245-.161.575-.242.987-.242h.988c.028 0 .042.014.042.042v.62c0 .301-.137.55-.41.746a1.613 1.613 0 0 1-.966.293zm4.651.766c.07 0 .106-.035.106-.105v-1.701c0-.007.007-.025.02-.052l.987-1.093c.022-.028.039-.024.053.011l1.25 2.856c.02.056.059.084.115.084h.84c.063 0 .094-.028.094-.084l-.01-.042-1.606-3.465c-.008-.014-.004-.035.01-.063l1.355-1.564c.028-.036.036-.065.026-.09-.01-.024-.037-.037-.079-.037h-.934c-.056 0-.099.018-.127.053l-1.942 2.11c-.007.014-.017.018-.032.011-.014-.007-.02-.017-.02-.031v-4.043c0-.07-.035-.105-.106-.105h-.797c-.07 0-.106.035-.106.105v7.14c0 .07.035.105.106.105h.797zm6.353.063c.623 0 1.122-.14 1.496-.42.375-.28.562-.658.562-1.134 0-.343-.095-.621-.284-.835a1.806 1.806 0 0 0-.687-.483 9.628 9.628 0 0 0-1.013-.33c-.413-.12-.713-.231-.898-.337a.502.502 0 0 1-.279-.462c0-.203.097-.364.29-.483.192-.118.442-.178.75-.178.343 0 .614.068.814.205.2.136.299.306.299.509v.031c0 .07.035.106.105.106h.735c.07 0 .105-.035.105-.106v-.031a1.29 1.29 0 0 0-.252-.777 1.641 1.641 0 0 0-.72-.54 2.785 2.785 0 0 0-1.076-.195c-.609 0-1.097.138-1.464.415-.368.276-.551.649-.551 1.118 0 .336.092.61.278.824.185.214.413.378.682.494.27.115.604.229 1.003.341.406.112.7.219.882.32a.492.492 0 0 1 .273.457c0 .21-.098.383-.294.52-.196.136-.451.205-.766.205-.33 0-.6-.074-.814-.221-.214-.147-.32-.319-.32-.514v-.053c0-.07-.036-.105-.106-.105h-.755c-.07 0-.105.035-.105.105v.116c0 .266.087.509.262.73.175.22.422.393.74.519.319.126.688.189 1.108.189zm4.137-.063c.07 0 .105-.035.105-.105v-3.276c0-.343.105-.623.315-.84.21-.217.48-.326.809-.326.335 0 .605.109.808.326.203.217.305.5.305.85v3.266c0 .07.035.105.105.105h.797c.07 0 .106-.035.106-.105V68.03c0-.567-.168-1.017-.505-1.35-.335-.332-.79-.498-1.364-.498-.589 0-1.033.192-1.334.578-.007.013-.016.017-.026.01a.035.035 0 0 1-.016-.031v-2.384c0-.07-.035-.105-.105-.105h-.798c-.07 0-.105.035-.105.105v7.14c0 .07.035.105.105.105h.798zm5.313 0a.141.141 0 0 0 .126-.063l1.228-1.796c.008-.014.018-.02.032-.02.014 0 .025.006.032.02l1.218 1.796c.028.042.07.063.126.063h.86c.064 0 .095-.024.095-.073l-.021-.053-1.743-2.51a.097.097 0 0 1 0-.063l1.743-2.52c.021-.035.025-.064.01-.089-.014-.024-.041-.037-.084-.037h-.913a.141.141 0 0 0-.126.064l-1.218 1.795c-.007.007-.017.01-.031.01-.014 0-.025-.003-.032-.01l-1.229-1.796a.141.141 0 0 0-.126-.063h-.85c-.063 0-.094.025-.094.074l.02.053 1.744 2.52a.053.053 0 0 1 0 .063l-1.743 2.509c-.022.035-.025.065-.011.09.014.024.042.036.084.036h.903zm5.24 0a.141.141 0 0 0 .126-.063l1.228-1.796c.007-.014.018-.02.032-.02.013 0 .024.006.031.02l1.218 1.796c.028.042.07.063.126.063h.861c.063 0 .095-.024.095-.073l-.022-.053-1.743-2.51a.097.097 0 0 1 0-.063l1.743-2.52c.022-.035.025-.064.011-.089-.014-.024-.042-.037-.084-.037h-.913a.141.141 0 0 0-.126.064l-1.219 1.795c-.007.007-.017.01-.031.01-.014 0-.025-.003-.032-.01l-1.228-1.796a.141.141 0 0 0-.126-.063h-.85c-.064 0-.095.025-.095.074l.021.053 1.743 2.52a.053.053 0 0 1 0 .063l-1.743 2.509c-.021.035-.025.065-.01.09.014.024.041.036.084.036h.903zm5.239 0a.141.141 0 0 0 .126-.063l1.228-1.796c.008-.014.018-.02.032-.02.014 0 .025.006.032.02l1.218 1.796c.028.042.07.063.126.063h.86c.064 0 .095-.024.095-.073l-.021-.053-1.743-2.51a.097.097 0 0 1 0-.063l1.743-2.52c.021-.035.025-.064.01-.089-.014-.024-.041-.037-.084-.037h-.913a.141.141 0 0 0-.126.064l-1.218 1.795c-.007.007-.017.01-.031.01-.014 0-.025-.003-.032-.01l-1.229-1.796a.141.141 0 0 0-.126-.063h-.85c-.063 0-.095.025-.095.074l.022.053 1.743 2.52a.053.053 0 0 1 0 .063l-1.743 2.509c-.022.035-.025.065-.011.09.014.024.042.036.084.036h.903zm5.24 0a.141.141 0 0 0 .126-.063l1.228-1.796c.007-.014.017-.02.031-.02.014 0 .025.006.032.02l1.218 1.796c.028.042.07.063.126.063h.861c.063 0 .094-.024.094-.073l-.02-.053-1.744-2.51a.097.097 0 0 1 0-.063l1.743-2.52c.022-.035.025-.064.011-.089-.014-.024-.042-.037-.084-.037h-.914a.141.141 0 0 0-.126.064l-1.218 1.795c-.007.007-.017.01-.031.01-.014 0-.025-.003-.032-.01l-1.228-1.796a.141.141 0 0 0-.126-.063h-.85c-.064 0-.095.025-.095.074l.021.053 1.743 2.52a.053.053 0 0 1 0 .063l-1.743 2.509c-.021.035-.025.065-.01.09.014.024.041.036.084.036h.903zm5.239 0a.141.141 0 0 0 .126-.063l1.228-1.796c.008-.014.018-.02.032-.02.014 0 .025.006.032.02l1.218 1.796c.028.042.07.063.126.063h.86c.064 0 .095-.024.095-.073l-.021-.053-1.743-2.51a.097.097 0 0 1 0-.063l1.743-2.52c.021-.035.025-.064.01-.089-.013-.024-.041-.037-.084-.037h-.913a.141.141 0 0 0-.126.064l-1.218 1.795c-.007.007-.018.01-.032.01-.013 0-.024-.003-.031-.01l-1.229-1.796a.141.141 0 0 0-.126-.063h-.85c-.063 0-.095.025-.095.074l.021.053 1.744 2.52a.053.053 0 0 1 0 .063l-1.743 2.509c-.022.035-.025.065-.011.09.014.024.042.036.084.036h.903zm5.24 0a.141.141 0 0 0 .125-.063l1.229-1.796c.007-.014.017-.02.031-.02.014 0 .025.006.032.02l1.218 1.796c.028.042.07.063.126.063h.861c.063 0 .094-.024.094-.073l-.02-.053-1.743-2.51a.097.097 0 0 1 0-.063l1.743-2.52c.02-.035.024-.064.01-.089-.014-.024-.042-.037-.084-.037h-.914a.141.141 0 0 0-.126.064l-1.218 1.795c-.007.007-.017.01-.031.01-.014 0-.025-.003-.032-.01l-1.228-1.796a.141.141 0 0 0-.126-.063h-.85c-.064 0-.095.025-.095.074l.021.053 1.743 2.52a.053.053 0 0 1 0 .063l-1.743 2.509c-.021.035-.025.065-.01.09.014.024.041.036.084.036h.903zm5.239 0a.141.141 0 0 0 .126-.063l1.228-1.796c.008-.014.018-.02.032-.02.014 0 .024.006.031.02l1.219 1.796c.027.042.07.063.125.063h.861c.064 0 .095-.024.095-.073l-.021-.053-1.743-2.51a.097.097 0 0 1 0-.063l1.743-2.52c.021-.035.025-.064.01-.089-.013-.024-.041-.037-.084-.037h-.913a.141.141 0 0 0-.126.064l-1.218 1.795c-.007.007-.018.01-.032.01-.013 0-.024-.003-.031-.01l-1.228-1.796a.141.141 0 0 0-.126-.063h-.851c-.063 0-.095.025-.095.074l.021.053 1.743 2.52a.053.053 0 0 1 0 .063l-1.743 2.509c-.02.035-.024.065-.01.09.014.024.042.036.084.036h.903zm5.618 0c.07 0 .104-.035.104-.105v-3.318c0-.343.097-.616.29-.819.192-.203.449-.305.771-.305s.58.104.772.31c.192.207.288.485.288.835v3.297c0 .07.035.105.106.105h.787c.07 0 .105-.035.105-.105v-3.318c0-.343.102-.616.304-.819.203-.203.466-.305.788-.305s.58.104.772.31c.192.207.288.485.288.835v3.297c0 .07.035.105.105.105h.788c.07 0 .105-.035.105-.105v-3.507c0-.567-.154-1.01-.462-1.328-.308-.319-.728-.478-1.26-.478-.336 0-.642.067-.919.2a1.573 1.573 0 0 0-.666.608c-.021.029-.042.029-.063 0a1.42 1.42 0 0 0-.589-.603c-.251-.137-.556-.205-.913-.205-.588 0-1.036.186-1.344.556-.014.014-.026.018-.037.011a.035.035 0 0 1-.016-.031v-.358c0-.07-.035-.105-.105-.105h-.797c-.07 0-.106.036-.106.106v5.134c0 .07.035.105.106.105h.797zm9.229.084c.322 0 .614-.05.877-.152.262-.102.484-.247.667-.436.034-.021.052-.014.052.021v.378c0 .07.035.105.105.105h.798c.07 0 .105-.035.105-.105v-3.549c0-.343-.086-.65-.257-.919a1.713 1.713 0 0 0-.735-.63c-.319-.15-.692-.225-1.119-.225-.58 0-1.064.13-1.449.393s-.605.6-.661 1.013c-.007.042.024.07.094.084l.851.116c.063.007.105-.025.126-.095a.713.713 0 0 1 .341-.467c.186-.115.425-.173.72-.173.363 0 .635.086.813.257.179.172.268.412.268.72v.283c0 .028-.014.042-.042.042h-1.176c-.686 0-1.22.156-1.601.467-.382.312-.573.74-.573 1.287 0 .531.17.929.51 1.191.34.263.768.394 1.286.394zm.22-.85c-.3 0-.544-.067-.73-.2-.185-.133-.278-.329-.278-.588 0-.287.123-.511.368-.672.245-.161.574-.242.987-.242h.987c.028 0 .042.014.042.042v.62c0 .301-.136.55-.41.746a1.613 1.613 0 0 1-.965.293zm6.763 1.742c.42 0 .833-.055 1.239-.167.406-.112.731-.26.976-.442a.1.1 0 0 0 .042-.084c0-.027-.007-.049-.021-.063l-.263-.314c-.02-.029-.045-.043-.073-.043a.13.13 0 0 0-.073.022c-.168.118-.412.218-.73.299-.319.08-.653.12-1.003.12-.525 0-.982-.113-1.37-.34a2.263 2.263 0 0 1-.893-.956 3.07 3.07 0 0 1-.31-1.402c0-.749.16-1.393.478-1.932.319-.539.74-.948 1.266-1.228a3.538 3.538 0 0 1 1.69-.42c.791 0 1.426.224 1.906.671.48.448.719 1.065.719 1.849 0 .111-.014.293-.042.546-.063.448-.187.794-.373 1.039-.185.245-.411.368-.677.368a.58.58 0 0 1-.478-.216.851.851 0 0 1-.173-.551c0-.077.003-.136.01-.178l.284-2.111a.084.084 0 0 0-.021-.079.105.105 0 0 0-.084-.037h-.494c-.063 0-.098.032-.105.095l-.02.178a.035.035 0 0 1-.016.032c-.01.007-.023.004-.037-.01-.189-.231-.473-.347-.85-.347-.33 0-.629.091-.898.273-.27.182-.46.438-.572.767a3.609 3.609 0 0 0-.2.892 4.458 4.458 0 0 0-.052.609c0 .07.006.168.02.294.043.301.188.546.436.735.249.189.569.284.961.284.196 0 .388-.043.577-.127.19-.084.35-.199.483-.346.021-.035.042-.035.064 0 .111.161.26.284.446.368.185.084.4.126.645.126.505 0 .917-.183 1.24-.547.322-.364.528-.878.619-1.543.021-.189.031-.374.031-.556 0-.623-.138-1.171-.414-1.644a2.83 2.83 0 0 0-1.16-1.097c-.498-.259-1.075-.388-1.733-.388a4.27 4.27 0 0 0-1.953.467 4.07 4.07 0 0 0-1.528 1.339c-.402.58-.631 1.26-.688 2.036-.007.085-.01.207-.01.368 0 .672.131 1.265.394 1.78.262.514.633.911 1.113 1.191s1.037.42 1.674.42zm.21-2.456a.735.735 0 0 1-.5-.169.622.622 0 0 1-.214-.44.973.973 0 0 1-.022-.19c0-.126.018-.29.053-.493.049-.364.101-.616.157-.756a.978.978 0 0 1 .337-.42.87.87 0 0 1 .524-.168c.19 0 .345.056.468.168a.63.63 0 0 1 .204.43l.011.179c0 .077-.01.21-.032.399l-.063.483c-.02.14-.055.263-.105.368a1.02 1.02 0 0 1-.314.44.782.782 0 0 1-.504.169zm7.601 1.564c.512 0 .956-.131 1.334-.394.378-.262.644-.628.798-1.097.126-.371.189-.801.189-1.291 0-.484-.063-.903-.189-1.26a2.153 2.153 0 0 0-.803-1.077c-.375-.262-.814-.393-1.318-.393-.532 0-.99.13-1.376.393a2.066 2.066 0 0 0-.808 1.087c-.119.343-.178.763-.178 1.26 0 .476.063.903.188 1.281.155.469.424.835.809 1.097.385.263.837.394 1.355.394zm0-.871c-.3 0-.558-.08-.771-.237a1.227 1.227 0 0 1-.446-.666c-.077-.252-.116-.582-.116-.987 0-.406.038-.732.115-.977.091-.287.242-.51.452-.667.21-.157.458-.236.745-.236.302 0 .557.079.767.236.21.158.36.38.451.667.07.259.106.585.106.977 0 .391-.039.72-.116.987-.091.287-.242.509-.452.666-.21.158-.454.237-.734.237zm4.547.787c.07 0 .105-.035.105-.105v-1.701c0-.007.007-.025.021-.052l.987-1.093c.021-.028.038-.024.053.011l1.249 2.856c.021.056.06.084.115.084h.84c.064 0 .095-.028.095-.084l-.01-.042-1.607-3.465c-.007-.014-.004-.035.01-.063l1.355-1.564c.028-.036.037-.065.026-.09-.01-.024-.036-.037-.078-.037h-.935c-.056 0-.098.018-.126.053l-1.942 2.11c-.007.014-.018.018-.032.011-.014-.007-.021-.017-.021-.031v-4.043c0-.07-.035-.105-.105-.105h-.798c-.07 0-.105.035-.105.105v7.14c0 .07.035.105.105.105h.798zm4.998 0a.141.141 0 0 0 .126-.063l1.228-1.796c.007-.014.018-.02.032-.02.014 0 .024.006.031.02l1.219 1.796c.027.042.07.063.125.063h.861c.064 0 .095-.024.095-.073l-.021-.053-1.743-2.51a.097.097 0 0 1 0-.063l1.743-2.52c.021-.035.025-.064.01-.089-.013-.024-.042-.037-.084-.037h-.913a.141.141 0 0 0-.126.064l-1.218 1.795c-.007.007-.018.01-.031.01-.014 0-.025-.003-.032-.01l-1.228-1.796a.141.141 0 0 0-.126-.063h-.851c-.063 0-.095.025-.095.074l.022.053 1.743 2.52a.052.052 0 0 1 0 .063l-1.744 2.509c-.02.035-.024.065-.01.09.014.024.042.036.084.036h.903z" fill="#6A7582" fill-rule="nonzero"/>
        <path d="M160.186 75.56c.03 0 .055-.02.076-.063a.337.337 0 0 0 .032-.152v-14.63c0-.06-.01-.11-.032-.152-.02-.042-.046-.063-.076-.063h-.828c-.03 0-.055.02-.077.063a.337.337 0 0 0-.031.152v14.63c0 .06.01.11.031.152.022.042.047.063.077.063h.828z" fill="#3F5BD9" fill-rule="nonzero"/>
        <path stroke="#F8BF50" stroke-width="1.286" stroke-linecap="round" stroke-linejoin="round" d="M174.853 113 172 114.647l1.647 2.853 2.853-1.647z"/>
        <path stroke="#1EC7B6" stroke-width=".643" stroke-linecap="round" stroke-linejoin="round" d="M33.005 97.25 29.5 99.023 33.25 101z"/>
        <path d="M51.625 1.25a1.876 1.876 0 1 1-.002 3.752 1.876 1.876 0 0 1 .002-3.752z" stroke="#597AFA" stroke-width=".643" stroke-linecap="round" stroke-linejoin="round"/>
    </g>
</svg>
