<svg width="240" height="120" xmlns="http://www.w3.org/2000/svg" xmlns:xlink="http://www.w3.org/1999/xlink">
    <defs>
        <filter x="-9.2%" y="-25.3%" width="118.5%" height="182.7%" filterUnits="objectBoundingBox" id="a">
            <feMorphology radius="3.5" in="SourceAlpha" result="shadowSpreadOuter1"/>
            <feOffset dy="6" in="shadowSpreadOuter1" result="shadowOffsetOuter1"/>
            <feGaussianBlur stdDeviation="8" in="shadowOffsetOuter1" result="shadowBlurOuter1"/>
            <feComposite in="shadowBlurOuter1" in2="SourceAlpha" operator="out" result="shadowBlurOuter1"/>
            <feColorMatrix values="0 0 0 0 0.536799347 0 0 0 0 0.61016128 0 0 0 0 0.997141078 0 0 0 1 0" in="shadowBlurOuter1"/>
        </filter>
        <path d="M168.273 4.24c0-2.34-2.102-4.24-4.691-4.24H4.963C2.375 0 .273 1.9.273 4.24v29.02c0 2.34 2.102 4.24 4.691 4.24h158.618c2.59 0 4.69-1.9 4.69-4.24V4.24z" id="b"/>
    </defs>
    <g fill="none" fill-rule="evenodd">
        <path d="M0 0h240v120H0z"/>
        <path d="M24.006 48.933c-.365-2.596 1.886-5.06 5.021-5.5l171.341-24.08c3.137-.442 5.978 1.307 6.343 3.902l7.237 51.499c.365 2.595-1.884 5.059-5.02 5.5l-171.342 24.08c-3.135.44-5.978-1.307-6.342-3.903l-7.238-51.498z" fill="#C3CEF4" opacity=".1"/>
        <g transform="translate(59.48 24.61)" stroke-linecap="round" stroke-linejoin="round" stroke-width=".7">
            <circle stroke="#597AFA" cx="113.561" cy="3.311" r="1.875"/>
            <circle stroke="#F58852" cx="29.561" cy="72.311" r="1.875"/>
            <path stroke="#F8BF50" d="m113.79 77.186-2.854 1.647 1.647 2.853 2.853-1.647z"/>
            <path stroke="#1EC7B6" d="m1.624.938 3.499 2.31-3.248 1.875z"/>
        </g>
        <g transform="translate(76.304 68.124)" fill="#E3E7FF" fill-rule="nonzero">
            <rect x=".273" width="50.25" height="4.5" rx="1"/>
            <rect x="79.5" width="31.5" height="4.5" rx="1"/>
        </g>
        <g transform="translate(35.804 52.374)">
            <g stroke-linecap="round" stroke-linejoin="round">
                <use fill="#000" filter="url(#a)" xlink:href="#b"/>
                <use stroke="#3F5BD9" fill="#FFF" xlink:href="#b"/>
            </g>
            <rect fill="#E3E7FF" fill-rule="nonzero" x="10.773" y="11.25" width="51" height="8.25" rx="1"/>
            <rect fill="#E3E7FF" fill-rule="nonzero" x="127.5" y="11.25" width="31.5" height="8.25" rx="1"/>
            <rect fill="#E3E7FF" fill-rule="nonzero" x="10.773" y="22.5" width="72.75" height="4.5" rx="1"/>
            <rect fill="#E3E7FF" fill-rule="nonzero" x="120" y="22.5" width="39" height="4.5" rx="1"/>
        </g>
        <g transform="translate(107.054 13.5)">
            <circle fill="#1EC7B6" fill-rule="nonzero" cx="13.5" cy="13.5" r="13.5"/>
            <path d="m9.375 13.5 2.898 2.733 6.102-5.733" stroke="#FFF" stroke-linecap="round" stroke-linejoin="round" stroke-width="2"/>
        </g>
    </g>
</svg>
