<svg xmlns="http://www.w3.org/2000/svg" width="180" height="180" viewBox="0 0 180 180">
    <g fill="none" fill-rule="evenodd">
        <g>
            <g>
                <g>
                    <path d="M0 0L180 0 180 180 0 180z" transform="translate(-94 -212) translate(66 212) translate(28)"/>
                    <g>
                        <path d="M0 0L162 0 162 150.75 0 150.75z" transform="translate(-94 -212) translate(66 212) translate(28) translate(9 14.625)"/>
                        <g>
                            <g fill="#F7F8FF" fill-opacity=".6">
                                <path d="M70.647 1.065c-.262-.796-1.11-1.24-1.913-.999L1.055 20.683c-.382.115-.702.38-.887.734-.185.354-.22.768-.095 1.147l27.465 84.853c.261.797 1.11 1.24 1.912 1l67.678-20.616c.382-.116.702-.38.887-.735.184-.354.218-.768.094-1.148L70.647 1.066z" transform="translate(-94 -212) translate(66 212) translate(28) translate(9 14.625) translate(20.706 21.339)"/>
                            </g>
                            <g fill="#EEF0FF">
                                <path d="M60.993.583c-.142-.435-.605-.678-1.044-.547L.575 18.123c-.209.063-.383.208-.483.4-.1.194-.12.42-.051.627l12.365 38.204c.143.434.606.676 1.043.544l59.374-18.087c.209-.062.383-.206.484-.4.101-.192.12-.417.052-.624L60.993.583z" transform="translate(-94 -212) translate(66 212) translate(28) translate(9 14.625) translate(20.706 21.339) translate(6.318 6.495)"/>
                            </g>
                        </g>
                        <g fill="#EEF0FF">
                            <g>
                                <path d="M89.97 28.657c.288-.7-.024-1.504-.71-1.827L31.525.124c-.323-.153-.695-.166-1.028-.037-.333.13-.598.39-.733.72L.108 71.684c-.287.7.025 1.504.71 1.828l57.737 26.705c.324.153.695.165 1.029.036.333-.13.598-.391.733-.722L89.97 28.657z" transform="translate(-94 -212) translate(66 212) translate(28) translate(9 14.625) translate(52.036 20.713)"/>
                            </g>
                            <g>
                                <path d="M65.43 24.477c.15-.367-.012-.788-.37-.958L14.352.065c-.17-.08-.364-.086-.538-.018-.175.068-.313.205-.384.378L.06 32.375c-.15.367.013.787.37.955l50.71 23.454c.168.082.363.09.537.022.175-.068.313-.206.382-.38l13.371-31.95z" transform="translate(-94 -212) translate(66 212) translate(28) translate(9 14.625) translate(52.036 20.713) translate(18.872 6.035)"/>
                            </g>
                        </g>
                        <g fill="#F8BF50">
                            <path d="M3.309 0c.18.01.343.11.435.266l1.6 2.863c.031.05.051.107.06.166.043.212-.056.427-.246.531L2.386 5.48c-.05.031-.106.053-.165.063-.221.052-.449-.054-.553-.256l-1.6-2.863c-.031-.05-.05-.107-.059-.166-.044-.212.056-.427.245-.531L3.026.073C3.11.016 3.21-.01 3.31 0zM1.217 2.362l1.095 1.96 1.882-1.126-1.095-1.959-1.882 1.125z" transform="translate(-94 -212) translate(66 212) translate(28) translate(9 14.625) translate(18.94 103.87)"/>
                        </g>
                        <g fill="#FFF">
                            <path d="M88.659 1.615C88.599.67 87.787-.052 86.839 0H1.82C.873-.053.06.668 0 1.615v101.746c.06.947.872 1.669 1.82 1.616h85.02c.947.052 1.76-.67 1.819-1.617V1.615z" transform="translate(-94 -212) translate(66 212) translate(28) translate(9 14.625) translate(38.67 24.244)"/>
                        </g>
                        <g fill="#FFF">
                            <path d="M88.659 1.615C88.599.67 87.787-.052 86.839 0H1.82C.873-.053.06.668 0 1.615v101.746c.06.947.872 1.669 1.82 1.616h85.02c.947.052 1.76-.67 1.819-1.617V1.615z" transform="translate(-94 -212) translate(66 212) translate(28) translate(9 14.625) translate(38.67 24.244)"/>
                        </g>
                        <g fill="#597AFA">
                            <path d="M87.08.253c.987-.01 1.82.73 1.923 1.711.136 34.281.025 68.019 0 101.877-.096.975-.918 1.716-1.898 1.711-28.36.477-56.731.162-85.096 0-.979.015-1.81-.715-1.921-1.688-.196-33.81 0-67.92 0-101.878.092-.981.915-1.73 1.9-1.733 28.358-.478 56.728-.16 85.093 0zM2.03.478C1.17.461.438 1.104.344 1.961c.052 34.08-.042 67.885 0 101.892.1.833.807 1.46 1.646 1.463 28.364.477 56.733.477 85.107 0 .839-.004 1.544-.63 1.646-1.463-.06-33.905-.18-67.725 0-101.911-.1-.834-.806-1.461-1.646-1.463C58.751.005 30.388.484 2.036.484L2.03.478z" transform="translate(-94 -212) translate(66 212) translate(28) translate(9 14.625) translate(38.455 23.83)"/>
                        </g>
                        <g fill="#EEF0FF">
                            <path d="M76.193 1.073C76.193.48 75.712 0 75.118 0H1.076C.482-.001 0 .479 0 1.073v17.84c0 .594.481 1.075 1.074 1.075h74.043c.594 0 1.075-.481 1.075-1.075V1.073z" transform="translate(-94 -212) translate(66 212) translate(28) translate(9 14.625) translate(44.976 104.492)"/>
                        </g>
                        <g fill="#D9E1FF">
                            <path d="M75.31.238c.633.036 1.139.54 1.174 1.173.077 5.957 0 11.915 0 17.87-.017.646-.528 1.17-1.173 1.204-24.69.316-49.388 0-74.075 0-.644-.02-1.165-.529-1.202-1.172-.077-5.957 0-11.915 0-17.87C.05.795.562.271 1.207.237c24.7-.316 49.4-.316 74.104 0zM1.238.498c-.505.016-.915.415-.946.92-.075 5.962-.075 11.924 0 17.888.029.496.424.893.92.921 24.696.315 49.393.315 74.093 0 .496-.029.892-.425.92-.92.075-5.962.075-11.924 0-17.888-.028-.496-.424-.892-.92-.922-24.69-.316-49.377 0-74.065 0h-.002z" transform="translate(-94 -212) translate(66 212) translate(28) translate(9 14.625) translate(44.812 104.113)"/>
                        </g>
                        <g fill="#8093DA" fill-opacity=".18" fill-rule="nonzero" transform="translate(-94 -212) translate(66 212) translate(28) translate(9 14.625) translate(107.08 91.434)">
                            <ellipse cx="19.925" cy="20.249" rx="16.362" ry="16.805" transform="rotate(-13.924 19.925 20.25)"/>
                        </g>
                        <g>
                            <path d="M17.595 0c9.625.06 17.387 7.895 17.357 17.52-.03 9.624-7.84 17.41-17.466 17.41C7.862 34.93.051 27.145.021 17.52-.01 7.895 7.753.06 17.378 0h.217zm-.206 2.071c-4.168.044-8.144 1.757-11.04 4.756-3.218 3.42-4.75 8.094-4.183 12.756C3.28 27.294 9.789 33.08 17.578 33.286c4.17-.013 8.159-1.703 11.07-4.687 3.216-3.375 4.78-7.996 4.275-12.63-1.074-7.737-7.54-13.593-15.346-13.897h-.188z" transform="translate(-94 -212) translate(66 212) translate(28) translate(9 14.625) translate(109.997 93.118)"/>
                        </g>
                        <g>
                            <g fill="#F2F5FF" fill-rule="nonzero" transform="translate(-94 -212) translate(66 212) translate(28) translate(9 14.625) translate(108.515 91.744)">
                                <ellipse cx="18.916" cy="19.647" rx="16.14" ry="17.037" transform="rotate(-10.26 18.916 19.647)"/>
                            </g>
                            <g fill="#FEFEFF" fill-rule="nonzero" transform="translate(-94 -212) translate(66 212) translate(28) translate(9 14.625) translate(108.515 91.744) translate(5.673 4.861)">
                                <ellipse cx="13.827" cy="14.361" rx="11.798" ry="12.454" transform="rotate(-10.26 13.827 14.361)"/>
                            </g>
                            <g>
                                <path d="M8.14 0L11.437 11.568 0.001 14.831" transform="translate(-94 -212) translate(66 212) translate(28) translate(9 14.625) translate(108.515 91.744) translate(9.198 5.83)"/>
                            </g>
                            <g fill="#3F5BD9">
                                <path d="M.059 14.01c-.083.206-.077.436.014.637.092.201.263.356.471.428 4.23 1.402 8.885.42 12.187-2.571C16.032 9.513 17.468 4.976 16.489.63c-.048-.216-.182-.403-.373-.517-.19-.113-.419-.143-.631-.082-2.333.66-9.054 2.576-10.73 3.054-.241.069-.437.245-.53.478C3.58 5.192.964 11.756.058 14.01z" transform="translate(-94 -212) translate(66 212) translate(28) translate(9 14.625) translate(108.515 91.744) translate(16.054 13.922)"/>
                            </g>
                        </g>
                        <g fill="#F7F8FF" fill-opacity=".6">
                            <path d="M28.052.31c0-.172-.14-.311-.31-.311H.31c-.083 0-.162.033-.22.09C.033.149 0 .228 0 .31v5.148c0 .172.139.31.31.31h27.431c.172 0 .31-.138.31-.31V.31z" transform="translate(-94 -212) translate(66 212) translate(28) translate(9 14.625) translate(47.184 83.96)"/>
                        </g>
                        <g>
                            <path d="M28.82.083c.708.04 1.272.607 1.31 1.315.02 1.728 0 3.456 0 5.184-.022.72-.592 1.303-1.31 1.34-9.157.113-18.316 0-27.472 0C.63 7.897.05 7.33.008 6.612c-.02-1.73 0-3.46 0-5.189C.034.706.6.126 1.318.083c9.167-.115 18.334-.115 27.501 0zM1.352 1.12c-.163.006-.295.133-.309.295-.066 1.725-.066 3.45 0 5.175.013.16.141.286.301.295 9.151.112 18.311.347 27.45 0 .16-.013.285-.142.294-.302.021-1.723.065-3.449 0-5.175-.013-.16-.141-.285-.301-.294-9.141-.105-18.287.01-27.435.01V1.12z" transform="translate(-94 -212) translate(66 212) translate(28) translate(9 14.625) translate(46.169 82.821)"/>
                        </g>
                        <g fill="#DAE9F4" fill-rule="nonzero">
                            <path d="M9.97 1.306H.654C.304 1.292.027 1.004.027.653.027.303.303.015.654 0H9.97c.24-.01.465.112.588.318.123.207.123.464 0 .67-.123.206-.348.328-.588.318z" transform="translate(-94 -212) translate(66 212) translate(28) translate(9 14.625) translate(47.376 93.898)"/>
                        </g>
                        <g fill="#DAE9F4" fill-rule="nonzero">
                            <path d="M27.809 1.306H.652C.302 1.292.026 1.004.026.653.026.303.302.015.652 0H27.81c.35.015.626.303.626.653 0 .35-.276.639-.626.653z" transform="translate(-94 -212) translate(66 212) translate(28) translate(9 14.625) translate(46.843 97.325)"/>
                        </g>
                        <g fill="#DAE9F4" fill-rule="nonzero">
                            <path d="M23.152 1.306H.652C.302 1.292.026 1.004.026.653.026.303.302.015.652 0h22.5c.35.015.627.303.627.653 0 .35-.276.639-.627.653z" transform="translate(-94 -212) translate(66 212) translate(28) translate(9 14.625) translate(46.995 101.055)"/>
                        </g>
                        <g fill="#597AFA">
                            <path d="M2.48.002c.087-.001.166.046.205.123l2.025 3.28c.19.337-.063.39-.225.394l-4.2-.055c-.385-.02-.296-.266-.212-.404L2.25.116c.104-.14.121-.116.232-.114zM.773 3.232l3.25.043L2.455.738.772 3.232z" transform="translate(-94 -212) translate(66 212) translate(28) translate(9 14.625) translate(135.65 30.059)"/>
                        </g>
                        <g fill="#3F5BD9" fill-rule="nonzero">
                            <path d="M0 0L5.202 0 5.202 14.093 0 14.093z" transform="translate(-94 -212) translate(66 212) translate(28) translate(9 14.625) translate(64.595 57.984)"/>
                        </g>
                        <g>
                            <path d="M6.31.004c.124.004.246.035.357.09.361.178.594.54.606.943V15.13c.005.125-.018.249-.066.363-.16.398-.541.664-.97.676H1.034c-.124.003-.248-.02-.362-.067-.4-.159-.665-.541-.675-.97V1.037C-.01.762.097.495.292.298.487.104.754-.004 1.03.002h5.204l.076.003zM1.034 1.037V15.13h5.203V1.037H1.034z" transform="translate(-94 -212) translate(66 212) translate(28) translate(9 14.625) translate(63.576 56.961)"/>
                        </g>
                        <g fill="#F58852" fill-rule="nonzero">
                            <path d="M0 0L5.21 0 5.21 20.981 0 20.981z" transform="translate(-94 -212) translate(66 212) translate(28) translate(9 14.625) translate(74.959 51.46)"/>
                        </g>
                        <g>
                            <path d="M6.336.003c.523.07.922.505.946 1.032v20.98c-.026.561-.475 1.01-1.036 1.035H1.035c-.56-.026-1.009-.474-1.036-1.035V1.035C.029.475.475.029 1.035 0h5.211c.03 0 .06 0 .09.003zm-5.3 1.032v20.98h5.211V1.035h-5.21z" transform="translate(-94 -212) translate(66 212) translate(28) translate(9 14.625) translate(73.927 50.445)"/>
                        </g>
                        <g fill="#F8BF50" fill-rule="nonzero">
                            <path d="M0 0L5.284 0 5.284 19.168 0 19.168z" transform="translate(-94 -212) translate(66 212) translate(28) translate(9 14.625) translate(85.328 53.174)"/>
                        </g>
                        <g>
                            <path d="M6.406.003c.526.067.927.503.95 1.033v19.168c-.027.56-.475 1.009-1.036 1.036H1.033c-.56-.029-1.007-.476-1.035-1.036V1.036C.025.476.473.028 1.033 0H6.32l.086.003zM1.035 1.036v19.168h5.287V1.036H1.035z" transform="translate(-94 -212) translate(66 212) translate(28) translate(9 14.625) translate(84.285 52.156)"/>
                        </g>
                        <g fill="#3F5BD9" fill-rule="nonzero">
                            <path d="M0 0L5.183 0 5.183 28.296 0 28.296z" transform="translate(-94 -212) translate(66 212) translate(28) translate(9 14.625) translate(95.769 44.576)"/>
                        </g>
                        <g>
                            <path d="M6.325.006c.518.075.91.506.935 1.029V29.33c-.027.561-.475 1.01-1.037 1.04H1.037C.476 30.34.027 29.89.001 29.33V1.035C.03.475.477.028 1.037.001h5.184c.035-.001.07 0 .104.005zM1.037 1.035V29.33h5.184V1.035H1.037z" transform="translate(-94 -212) translate(66 212) translate(28) translate(9 14.625) translate(94.714 43.569)"/>
                        </g>
                        <g fill="#96ACFF">
                            <path d="M75.773.236c.623.034 1.121.532 1.156 1.155.225 17.158 0 34.312 0 51.475-.017.637-.52 1.154-1.157 1.188-24.828.308-49.659 0-74.488 0-.637-.017-1.153-.521-1.186-1.158-.225-17.158 0-34.312 0-51.475C.118.786.62.27 1.254.236c24.838-.315 49.678-.315 74.52 0zM1.286.495c-.495.016-.897.406-.928.9-.225 17.162-.225 34.326 0 51.492.029.485.415.871.9.9 24.833.312 49.668.312 74.505 0 .485-.027.873-.414.9-.9.225-17.164.225-34.328 0-51.492-.03-.484-.416-.87-.9-.9C50.943.18 26.113.494 1.287.494l-.001.001z" transform="translate(-94 -212) translate(66 212) translate(28) translate(9 14.625) translate(44.532 27.177)"/>
                        </g>
                        <g fill="#E2E5FF">
                            <path d="M22.363 1.127c.124.032.207.15.196.277-.011.128-.113.229-.241.239H.219c-.127-.021-.22-.13-.22-.26 0-.128.093-.237.22-.258h22.098c.015.002.03.003.046.002z" transform="translate(-94 -212) translate(66 212) translate(28) translate(9 14.625) translate(96.27 82.842)"/>
                        </g>
                        <g fill="#3F5BD9">
                            <path d="M31.497 1.132c.12.036.197.153.184.278-.013.125-.113.223-.238.234H.227C.097 1.626 0 1.515 0 1.384c0-.132.098-.243.228-.26h31.216c.018.004.036.004.054.008z" transform="translate(-94 -212) translate(66 212) translate(28) translate(9 14.625) translate(87.421 85.323)"/>
                        </g>
                        <g fill="#95A2FF">
                            <path d="M13.773 1.128c.12.036.198.149.19.273-.01.124-.104.225-.227.243H.236c-.265-.018-.36-.494 0-.52h13.5c.013.001.025.004.037.004z" transform="translate(-94 -212) translate(66 212) translate(28) translate(9 14.625) translate(104.62 87.9)"/>
                        </g>
                        <g fill="#597AFA">
                            <path d="M2.098 0c.808.069 1.507.587 1.808 1.34.301.752.152 1.61-.385 2.216-1.2 1.171-3.845.14-3.487-1.85C.228.72 1.092.007 2.098 0zm-.046.517C1.447.57.922.958.696 1.522c-.225.565-.113 1.208.29 1.663.985.962 3.391-.176 2.444-1.87C3.147.822 2.621.518 2.052.52V.517z" transform="translate(-94 -212) translate(66 212) translate(28) translate(9 14.625) translate(22.355 20.74)"/>
                        </g>
                        <g fill="#597AFA" fill-rule="nonzero" transform="translate(-94 -212) translate(66 212) translate(28) translate(9 14.625) translate(36.017 68.513)">
                            <circle cx="1.242" cy="1.242" r="1.242"/>
                        </g>
                        <g>
                            <path d="M2.64 0c1.303.025 2.122 2.223.562 2.883-.552.234-1.19.116-1.623-.298-.432-.414-.577-1.046-.368-1.608.21-.561.732-.944 1.33-.975L2.64 0zm-.032.517c-.854.016-1.39 1.456-.37 1.888.867.367 1.951-1.17.85-1.77-.147-.078-.312-.12-.48-.118z" transform="translate(-94 -212) translate(66 212) translate(28) translate(9 14.625) translate(34.651 68.256)"/>
                        </g>
                        <g fill="#3F5BD9" fill-rule="nonzero">
                            <path d="M37.162 2.733c.042-.203-.01-.414-.14-.574-.136-.169-.334-.276-.55-.297l-.038-.008-4.647-.72c-.262-.058-.534.035-.706.24-.173.204-.218.488-.117.736.101.248.331.42.598.446l2.87.444-11.298 7.496-2.453-3.094c-.266-.325-.735-.398-1.087-.168L1.43 18.884c-.163.106-.273.276-.303.468-.03.192.024.388.148.538.266.325.734.398 1.086.168L19.91 8.827l2.454 3.094c.266.325.735.398 1.087.168l11.918-7.914-.373 2.404c-.032.407.255.77.659.832.403.062.786-.197.878-.595l.627-4.05.002-.033z" transform="translate(-94 -212) translate(66 212) translate(28) translate(9 14.625) translate(62.829 33.776)"/>
                        </g>
                        <g>
                            <path d="M30.68 0c.038 0 .075 0 .112.008 1.564.225 3.128.45 4.685.726.509.055.877.512.822 1.021v.023c-.178 1.366-.402 2.727-.632 4.084-.015.205-.128.39-.304.497-.29.206-.674.23-.989.062-.315-.169-.507-.5-.496-.858l.328-2.115c-3.897 2.588-7.78 5.197-11.691 7.763-.086.059-.183.1-.285.119-.355.079-.724-.047-.956-.326L18.894 8c-5.828 3.73-11.603 7.538-17.482 11.19-.099.065-.211.106-.329.12-.72.112-1.59-.923-.707-1.534 6.067-3.891 12.077-7.875 18.201-11.673.407-.23.92-.138 1.223.218l2.38 3.002 10.919-7.245c-.854-.133-1.71-.254-2.562-.397-.3-.054-.551-.26-.662-.544-.11-.284-.066-.606.119-.849.178-.188.427-.293.686-.29zm-.036.26c-.167.003-.326.074-.44.198-.112.123-.17.287-.159.454.054.274.275.484.552.522l2.868.445c.165.052.159.14.052.236L22.22 9.611c-.057.031-.128.02-.173-.027-.822-1.035-1.63-2.08-2.463-3.106-.226-.253-.599-.31-.89-.138C12.678 10.293 6.574 14.113.515 18c-.14.109-.225.275-.23.453-.005.178.07.35.204.466.236.183.562.199.814.038l17.55-11.232c.057-.03.126-.018.17.028.822 1.035 1.63 2.083 2.465 3.106.229.256.608.31.9.129l11.917-7.915c.155-.07.198.023.199.127-.125.807-.261 1.612-.375 2.42.01.28.194.526.461.614.267.09.561.003.738-.215.04-.062.068-.13.081-.202.225-1.35.45-2.706.63-4.068.04-.375-.23-.713-.604-.76-1.544-.32-3.114-.5-4.675-.724-.039-.004-.077-.006-.116-.005z" transform="translate(-94 -212) translate(66 212) translate(28) translate(9 14.625) translate(63.821 34.777)"/>
                        </g>
                    </g>
                </g>
            </g>
        </g>
    </g>
</svg>
