<svg width="24" height="24" xmlns="http://www.w3.org/2000/svg">
    <g fill="none" fill-rule="evenodd">
        <path fill="#FFF" fill-rule="nonzero" d="M0 0h24v24H0z"/>
        <path d="M22 11.444a9.312 9.312 0 0 1-1 4.223 9.444 9.444 0 0 1-8.444 5.222 9.31 9.31 0 0 1-4.223-1L2 22l2.111-6.333a9.311 9.311 0 0 1-1-4.223A9.444 9.444 0 0 1 8.333 3a9.311 9.311 0 0 1 4.223-1h.555A9.422 9.422 0 0 1 22 10.889v.555z" stroke="#3F5BD9" stroke-width="1.5" stroke-linecap="round" stroke-linejoin="round"/>
        <g stroke="#3F5BD9" stroke-linecap="round" stroke-linejoin="round" stroke-width="1.5">
            <path d="m9 13.434 7.83.007M9 10.498l7.833.004"/>
        </g>
    </g>
</svg>
