<svg xmlns="http://www.w3.org/2000/svg" width="40" height="40" viewBox="0 0 40 40">
    <g fill="none" fill-rule="evenodd">
        <g>
            <g>
                <g>
                    <g>
                        <g transform="translate(-383 -1853) translate(362 64) translate(0 975) translate(21 551) translate(0 263)">
                            <circle cx="20" cy="20" r="20" fill="#F4F6FB"/>
                            <g>
                                <path d="M0 0H24V24H0z" transform="translate(8 8)"/>
                                <g stroke="#3F5BD9" transform="translate(8 8) translate(4 4)">
                                    <circle cx="8" cy="8" r="8" stroke-linecap="round" stroke-linejoin="round" stroke-width="1.5"/>
                                    <path fill="#3F5BD9" fill-rule="nonzero" stroke-width=".4" d="M10.5 5.288c0-.159-.13-.288-.29-.288H5.792c-.162 0-.292.13-.292.288 0 .16.13.289.291.289h1.441c.435 0 .847.21 1.103.564.12.167.201.35.245.54H5.79c-.16 0-.291.13-.291.288 0 .159.13.289.291.289h2.8c-.011.05-.023.098-.04.147-.122.355-.397.615-.776.73-.576.175-1.22.152-1.842.132L5.8 8.262c-.122-.007-.234.068-.28.182-.045.113-.014.24.077.32l3.59 3.163c.056.049.124.073.194.073.079 0 .16-.033.216-.097.107-.118.096-.302-.024-.406L6.578 8.86c.457-.001.918-.036 1.368-.174.562-.17.972-.56 1.155-1.096.037-.108.061-.22.076-.332h1.033c.16 0 .29-.13.29-.288 0-.159-.13-.289-.29-.289H9.175c-.05-.307-.174-.608-.367-.876-.06-.081-.127-.156-.198-.227h1.6c.16 0 .29-.129.29-.289z"/>
                                </g>
                            </g>
                        </g>
                    </g>
                </g>
            </g>
        </g>
    </g>
</svg>
