<svg xmlns="http://www.w3.org/2000/svg" width="180" height="180" viewBox="0 0 180 180">
    <g fill="none" fill-rule="evenodd">
        <g>
            <g>
                <g>
                    <g>
                        <path d="M0 0L180 0 180 180 0 180z" transform="translate(-734 -677) translate(362 527) translate(359 150) translate(13)"/>
                        <g>
                            <g fill="#597AFA">
                                <path d="M2.692 0C3.73.092 4.628.763 5.01 1.733c.381.97.181 2.073-.517 2.847C2.998 6.01-.18 4.853.008 2.453.145 1.107 1.245.065 2.595 0L2.692 0zm-.058.664C.928.696-.18 3.622 1.884 4.489c.748.32 1.616.155 2.193-.42.577-.573.747-1.44.43-2.19-.318-.75-1.06-1.23-1.873-1.215z" transform="translate(-734 -677) translate(362 527) translate(359 150) translate(13) translate(2.25 32.038) translate(1.125 12.883)"/>
                            </g>
                            <g fill="#F37B90">
                                <path d="M2.691 0c2.025.038 3.516 2.946 1.8 4.581C2.943 6.055-.443 4.719.047 2.155.3.897 1.407-.006 2.691 0zm-.058.664c-.686.045-1.305.429-1.649 1.024C.64 2.282.614 3.01.917 3.627c.848 1.519 4.075 1.101 3.712-1.275C4.457 1.382 3.618.673 2.633.665V.664z" transform="translate(-734 -677) translate(362 527) translate(359 150) translate(13) translate(2.25 32.038) translate(168.009 3.667)"/>
                            </g>
                            <g fill="#597AFA" fill-rule="nonzero" transform="translate(-734 -677) translate(362 527) translate(359 150) translate(13) translate(2.25 32.038) translate(2.193 129.203)">
                                <circle cx="1.592" cy="1.592" r="1.592"/>
                            </g>
                            <g>
                                <path d="M3.062 0c1.67.032 2.722 2.85.725 3.696-.707.298-1.525.148-2.08-.383-.554-.531-.74-1.34-.472-2.06S2.173.042 2.94.003L3.062 0zm-.04.664c-1.112.021-1.702 1.9-.475 2.42 1.107.469 2.514-1.494 1.09-2.268C3.45.715 3.24.662 3.027.664h-.005z" transform="translate(-734 -677) translate(362 527) translate(359 150) translate(13) translate(2.25 32.038) translate(.741 128.871)"/>
                            </g>
                            <g fill="#597AFA" fill-rule="nonzero" transform="translate(-734 -677) translate(362 527) translate(359 150) translate(13) translate(2.25 32.038) translate(165.2 82.778)">
                                <circle cx="1.592" cy="1.592" r="1.592"/>
                            </g>
                            <g>
                                <path d="M3.063 0c1.05.033 1.878.903 1.861 1.952-.016 1.05-.872 1.892-1.922 1.892-1.05 0-1.906-.842-1.922-1.892C1.063.902 1.89.033 2.94 0h.123zm-.04.664c-.555.063-1.007.475-1.121 1.022-.114.547.135 1.106.62 1.385 1.104.5 2.569-1.462 1.117-2.255C3.451.714 3.24.662 3.026.664h-.003z" transform="translate(-734 -677) translate(362 527) translate(359 150) translate(13) translate(2.25 32.038) translate(163.75 82.446)"/>
                            </g>
                            <g fill="#E1E6FF">
                                <path d="M19.306 0c-.416 0-.83.059-1.23.175L.002 5.448h137.025L119.608.188C119.197.064 118.77 0 118.34 0L19.306 0z" transform="translate(-734 -677) translate(362 527) translate(359 150) translate(13) translate(2.25 32.038) translate(20.146 61.397)"/>
                            </g>
                            <g fill="#B3BFED">
                                <path d="M118.532.234c.42.005.835.066 1.238.182l.041.013 17.42 5.26.12.15-.101.162-.07.013H.155l-.152-.112.049-.185.06-.031C6.16 3.92 12.186 2.086 18.258.39c.365-.097.74-.15 1.118-.16C52.423-.205 85.48.078 118.532.235zM19.456.566c-.4.002-.798.059-1.183.169L1.32 5.685h134.734c-5.469-1.653-10.922-3.375-16.418-4.958-.347-.096-.705-.15-1.066-.158C85.536.114 52.492.566 19.456.566z" transform="translate(-734 -677) translate(362 527) translate(359 150) translate(13) translate(2.25 32.038) translate(19.995 60.998)"/>
                            </g>
                            <g fill="#FFF">
                                <path d="M137.148.206L0 0v65.755c0 1.52.604 2.977 1.679 4.052 1.074 1.074 2.532 1.677 4.052 1.677h125.685c1.521 0 2.98-.605 4.057-1.68 1.076-1.077 1.68-2.536 1.68-4.058l-.005-65.54z" transform="translate(-734 -677) translate(362 527) translate(359 150) translate(13) translate(2.25 32.038) translate(20.13 66.845)"/>
                            </g>
                            <g fill="#597AFA">
                                <path d="M137.312.206c.085.013.151.08.163.165v65.546c-.08 3.196-2.63 5.778-5.824 5.898-41.92.257-83.84 0-125.762 0-3.252 0-5.889-2.637-5.889-5.89V.167L.101.013.164 0l137.148.206zM.329 65.925c.08 3.01 2.482 5.442 5.492 5.558 41.918.268 83.838 0 125.758 0 3.045-.07 5.496-2.522 5.566-5.567V.536L.337.338C.332 22.197.33 44.06.33 65.925z" transform="translate(-734 -677) translate(362 527) translate(359 150) translate(13) translate(2.25 32.038) translate(19.964 66.679)"/>
                            </g>
                            <g fill="#DEE4FF">
                                <path d="M35.346 1.623C35.346.727 34.62 0 33.723 0h-32.1C.727 0 0 .727 0 1.623v11.11c0 .896.727 1.623 1.623 1.623h32.1c.897 0 1.623-.727 1.623-1.623V1.623z" transform="translate(-734 -677) translate(362 527) translate(359 150) translate(13) translate(2.25 32.038) translate(104.241 116.425)"/>
                            </g>
                            <g fill="#F9FAFF">
                                <path d="M33.941.053c.957.045 1.722.81 1.767 1.766.038 3.726.038 7.453 0 11.18-.054.939-.804 1.689-1.743 1.743-10.725.207-21.456.207-32.192 0-.948-.054-1.7-.817-1.744-1.765C-.01 9.25-.01 5.524.03 1.797.084.85.846.098 1.794.055 12.51-.018 23.226-.018 33.941.053zM1.82.383C1.031.409.395 1.035.357 1.822c-.04 3.723-.04 7.446 0 11.17.045.77.666 1.383 1.437 1.418 10.72.07 21.44.206 32.156 0 .772-.045 1.384-.665 1.42-1.437.039-3.722.039-7.445 0-11.169-.046-.77-.666-1.383-1.438-1.418C23.232.314 12.525.384 1.82.384z" transform="translate(-734 -677) translate(362 527) translate(359 150) translate(13) translate(2.25 32.038) translate(104.037 116.206)"/>
                            </g>
                            <g fill="#E1E6FF">
                                <path d="M16.009.046c.598.031 1.077.51 1.108 1.108.019 2.237.019 4.473 0 6.71-.035.597-.511 1.073-1.108 1.108-4.957.062-9.915.062-14.873 0C.54 8.937.063 8.46.028 7.864c-.037-2.237-.037-4.473 0-6.71C.063.557.54.081 1.136.046c4.958-.061 9.915-.061 14.873 0zM1.167.384C.734.397.384.739.36 1.17.323 3.402.323 5.634.36 7.865c.023.425.363.764.787.787 4.95.062 9.9.062 14.85 0 .425-.023.765-.362.788-.787.019-2.231.019-4.463 0-6.694-.023-.425-.363-.764-.787-.787C11.056.316 6.11.378 1.167.378v.006z" transform="translate(-734 -677) translate(362 527) translate(359 150) translate(13) translate(2.25 32.038) translate(122.87 77.65)"/>
                            </g>
                            <g fill="#F7F8FF" fill-opacity=".6">
                                <path d="M63.961 0.196L0.329 0 21.22 8.019 63.961 8.213z" transform="translate(-734 -677) translate(362 527) translate(359 150) translate(13) translate(2.25 32.038) rotate(-90 104.578 26.426)"/>
                            </g>
                            <g>
                                <path d="M54.15 9.702c-.014.273-.13.53-.325.722-.26.278-.62.44-1 .45l-33.894-.2c-.197-.002-.392-.047-.57-.133L1.793 2.523c-.521-.294-.787-.896-.652-1.48C1.276.46 1.78.035 2.377 0l50.46.195c.715.042 1.285.614 1.324 1.328v8.018l-.01.161zm-1.318-8.179l-50.46-.196 16.567 8.02 33.894.194V1.523z" transform="translate(-734 -677) translate(362 527) translate(359 150) translate(13) translate(2.25 32.038) rotate(-90 98.353 21.522)"/>
                            </g>
                            <g fill="#DAE9F4" fill-rule="nonzero">
                                <path d="M13.038 1.562H1.9c-.431 0-.78-.35-.78-.781C1.12.35 1.468 0 1.9 0h11.138c.43 0 .78.35.78.78 0 .432-.35.782-.78.782z" transform="translate(-734 -677) translate(362 527) translate(359 150) translate(13) translate(2.25 32.038) translate(26.304 93.582)"/>
                            </g>
                            <g fill="#DAE9F4" fill-rule="nonzero">
                                <path d="M33.231 1.562H.78c-.432 0-.781-.35-.781-.781C-.001.35.349 0 .779 0h32.452c.432 0 .781.35.781.78 0 .432-.35.782-.78.782z" transform="translate(-734 -677) translate(362 527) translate(359 150) translate(13) translate(2.25 32.038) translate(27.115 99.376)"/>
                            </g>
                            <g fill="#DAE9F4" fill-rule="nonzero">
                                <path d="M27.667 1.56H.78c-.432 0-.781-.35-.781-.78 0-.432.35-.781.78-.781h26.888c.431 0 .78.35.78.78 0 .432-.349.781-.78.781z" transform="translate(-734 -677) translate(362 527) translate(359 150) translate(13) translate(2.25 32.038) translate(27.205 105.168)"/>
                            </g>
                            <g fill-rule="nonzero">
                                <g fill="#63E299">
                                    <path d="M9.853 6.018c-.615 1.714-2.201 2.889-4.02 2.976-1.82.088-3.511-.93-4.287-2.577-.776-1.647-.483-3.6.743-4.946C3.514.124 5.43-.351 7.144.267c2.334.842 3.546 3.415 2.709 5.75z" transform="translate(-734 -677) translate(362 527) translate(359 150) translate(13) translate(2.25 32.038) translate(27.395 77.861)"/>
                                </g>
                                <g fill="#FFF">
                                    <path d="M1.228 1.706l1.576 1.61c.085.108.213.173.35.18.137.006.27-.047.366-.146L6.232.808c.183-.19.178-.493-.012-.676-.19-.183-.493-.177-.676.013L3.211 2.294 1.973 1.11C1.87.968 1.697.893 1.523.916c-.175.024-.322.14-.385.305-.062.165-.028.35.087.483l.003.002z" transform="translate(-734 -677) translate(362 527) translate(359 150) translate(13) translate(2.25 32.038) translate(27.395 77.861) translate(1.854 2.952)"/>
                                </g>
                            </g>
                            <g fill="#EEF0FF" fill-rule="nonzero">
                                <path d="M1.125 0L1.789 0 1.789 64.005 1.125 64.005z" transform="translate(-734 -677) translate(362 527) translate(359 150) translate(13) translate(2.25 32.038) translate(76.993 67.046)"/>
                            </g>
                            <g fill="#EEF0FF" fill-rule="nonzero">
                                <path d="M1.125 0L1.789 0 1.789 40.983 1.125 40.983z" transform="translate(-734 -677) translate(362 527) translate(359 150) translate(13) translate(2.25 32.038) translate(84.638 67.043)"/>
                            </g>
                            <g fill="#C5CAE0">
                                <path d="M16.706 62.8c.836.353-.122.918-.688 1.49-.363.367-.9 0-.19-.762.226-.25.537-.618.537-.618.059-.045.078-.142.341-.11zm2.172-3.34c.534.272-.064.97-.45 1.63 0 0-1.1.593-.415-.608.195-.344.46-.858.46-.858.086-.139.252-.205.41-.166l-.005.002zm1.477-3.687c.55.184.098.918-.16 1.596-.013.136-.105.251-.235.292-.26.093-.626.112-.294-.77l.358-.982c.17-.18.237-.142.337-.137l-.006.001zm1.095-3.825c.422.225.218.345.157.633l-.166.728c-.158.662-.927 1.013-.648-.154l.25-1.052c.088-.138.255-.203.413-.16l-.006.005zm.576-3.945c.627.257.215 1.62.014 1.856-.021.024-.045.045-.072.063-.277.181-.536-.069-.429-.969.04-.32.1-.754.1-.754.07-.147.231-.23.393-.202l-.006.006zm.25-3.958c.31.198.196.157.195.576 0 .45-.018 1.064-.018 1.064-.14.799-.675.28-.656-.312l.022-1.119c.027-.094.094-.172.183-.213.088-.041.19-.042.28-.002l-.006.006zm-8.927-.45c.49.032 1.216.055 1.216.055.39.065.708.687-.304.656-.277-.01-.55-.021-.82-.04-.447-.033-.876-.734-.086-.676l-.006.005zm5.237-.146c.167.051.196.102.225.153.125.204.26.45-.557.542-.422.047-1.021.097-1.021.097-.175-.012-.217-.053-.26-.096-.21-.206-.208-.529.53-.593.405-.037.983-.106.983-.106l.1.003zm-9.192-.496l.253.065c.412.1 1.02.225 1.02.225.244.084.235.155.261.246.113.486-.9.317-1.687.113-.13-.034-.228-.138-.256-.268-.034-.185.018-.42.409-.382zm13.142-.293c.156.074.182.128.205.183.197.435-.686.597-1.497.788 0 0-.316.021-.402-.202-.152-.402.803-.568 1.506-.767.063-.008.126-.007.188.002v-.004zM5.681 41.511c.429.178.847.38 1.252.606.148.09.167.147.186.204.086.278-.08.575-.73.278-.386-.179-.94-.474-.94-.474-.457-.346-.138-.643.232-.614zm20.6-.258c.563.337.053.591-.292.757-.225.112-.465.216-.7.318-.488.21-1.202-.193-.034-.71.441-.199.934-.388.934-.388l.092.023zm-4.275-1.2c.438.21.312.936.362 1.6-.002.13-.064.25-.167.328-.403.224-.523-.739-.623-1.568-.007-.002.023-.427.421-.362l.007.001zM2.638 39.014c.384.188.648.675 1.032 1.032 0 0 .215.318-.011.504-.338.276-.878-.409-1.344-.968.001.005-.325-.68.323-.568zm26.944.024c.472.291.112.535-.167.778-.312.269-.797.632-.797.632-.352.186-.952-.103-.153-.715.36-.278.843-.69.843-.69.1-.029.048-.065.274-.002v-.003zm-8.367-2.912c.45.148.433.9.57 1.53 0 0 .017.32-.206.4-.417.154-.524-.695-.733-1.481 0 .002-.057-.458.37-.447v-.002zm10.8-.225c.49.302-.092.882-.515 1.533 0 0-.515.444-.645-.015-.112-.385.413-.845.74-1.374.09-.134.258-.191.411-.142l.01-.002zM.74 35.505c.247.074.3.513.712 1.439 0 0 .063.297-.127.416-.387.243-.717-.639-.946-1.406-.002.001-.062-.45.359-.448l.002-.001zm19.174-3.115c.213.096.484.777.717 1.371 0 0-.212 1.238-.712 0-.156-.385-.398-.917-.398-.917-.13-.414.17-.483.39-.453l.003-.001zm14.03.032c.516.27-.022.87-.419 1.6 0 0-.868.429-.606-.273l.26-.48c.172-.323.417-.763.417-.763.188-.15.246-.103.345-.082l.004-.002zm-33.412-.85c.42.195.142.907.13 1.621 0 0-.71.992-.658-.28.028-.648-.106-1.435.527-1.34l.001-.001zm17.325-2.568c.284.144.251.225.338.337.266.347.617.864.617.864.052.08.067.18.042.272-.105.377-.503.136-1.334-.922-.008.004-.299-.665.332-.552h.005zm17.833-.161c.537.25 0 .908-.319 1.565-.013.14-.12.252-.259.273-.123.025-.25-.02-.331-.117-.08-.097-.102-.23-.054-.348l.266-.562.302-.637c.08-.134.236-.204.389-.173l.006-.001zm-33.741-.956c.81.26.013.726-.422 1.622-.071.103-.182.17-.306.186-.556-.014.106-1.443.46-1.736.072-.065.17-.091.263-.071l.004-.002zm13.01-1.598c.592.292 1.28.782 1.282 1.117 0 .432-.404.275-1.575-.527-.003 0-.388-.707.287-.589l.006-.001zm22.347-1.085c.45.195.073.788-.145 1.289l-.168.383c-.14.225-.204.196-.3.198-.11-.005-.212-.062-.272-.155-.061-.092-.073-.208-.034-.312l.305-.694c.112-.26.274-.6.274-.6.176-.164.238-.12.336-.107l.004-.002zm-32.375.044c.154.085.172.14.196.196.078.225.179.152-.723.746-.506.337-.787.614-.99.258-.225-.398.624-.84 1.229-1.175-.006.002.026-.08.282-.022l.006-.003zm6.412-.636c.52.14 1.238.413 1.238.413.525.209.404.844-.631.473-.307-.112-.776-.245-.776-.245-.16-.07-.185-.123-.21-.177-.108-.201-.047-.514.375-.461l.004-.003zm-2.62-.351c.238.105.224.175.239.267.07.467-.952.392-1.575.492 0 0-.319.008-.395-.225-.147-.457.798-.538 1.61-.551.004.006.066.012.117.019l.003-.002zm30.119-2.734c.656.27-.13 1.636-.398 1.822-.027.019-.056.033-.087.043-.225.077-.508-.06-.408-.443.263-.637.553-1.307.553-1.307.045-.044.064-.14.336-.112l.004-.003zm1.507-3.688c.536.239.294.251.05.83-.166.412-.337.842-.337.842-.178.31-.741.278-.617-.248.208-.51.51-1.237.51-1.237.078-.139.235-.213.392-.183l.002-.004zm1.913-3.503c.517.305-.12.95-.496 1.62-.057.12-.186.19-.318.17-.647-.05.218-1.734.626-1.81.06-.004.122.004.18.023l.008-.003zm2.05-3.392c.81.258-.02.86-.507 1.618 0 0-.05.188-.325.148-.45-.064.01-.89.45-1.546-.009.004-.017-.224.375-.217l.008-.003zm37.072-2.116s.495.382 1.005.805c.144.048.237.187.225.338-.007.126-.082.238-.196.292-.113.055-.248.043-.35-.03l-1.088-.909c-.205-.405.005-.595.396-.493l.008-.003zM46.719 7.754c.506.225-.194.947-.645 1.537 0 0-1.176.432-.331-.654.248-.32.63-.779.63-.779.044-.043.068-.137.338-.101l.008-.003zm31.476-1.35s.627.428 1.16.824c0 0 .44 1.153-.685.319-.322-.237-.774-.563-.774-.563-.422-.386-.069-.646.293-.576l.006-.005zM49.638 5.07c.576.214.18.553-.05.727l-.225.175c-.297.233-.699.555-.699.555-.372.105-.755-.225-.056-.8.19-.155.382-.305.574-.45.11-.134.277-.208.45-.202l.006-.005zM74.8 4.26l1.247.71c.716.592-.195.652-.822.282l-.734-.436c-.277-.361-.1-.584.302-.552l.007-.005zM53.1 3.021c.713.45-.215.686-1.091 1.173-.1.06-.218.08-.332.056-.259-.092-.563-.326.255-.771.355-.193.89-.45.89-.45.097-.03.04-.064.27-.003l.008-.005zm18.123-.41c.478.08.933.266 1.332.544.295.241.087.73-.788.375l-.853-.337c-.415-.397-.061-.651.3-.576l.009-.006zm-14.4-.921c.153.08.175.135.198.191.151.38-.769.57-1.468.788 0 0-1.193-.338.075-.717.5-.147 1.103-.279 1.103-.279l.092.017zm10.5-.123c.534.098 1.317.276 1.317.276.76.3.14.71-.45.575-.45-.098-1.071-.225-1.071-.225-.48-.324-.171-.634.198-.619l.005-.007zm-6.593-.44c.729.29.123.643-.239.663-.508.032-1.221.09-1.221.09-.36-.12-.518-.61.426-.698.381-.034.94-.066.94-.066l.094.01zm2.721 0c.497.026 1.21.086 1.21.086.393.093.724.723-.435.629l-1.03-.077c-.152-.08-.175-.135-.197-.191-.089-.208-.055-.472.448-.443l.004-.005z" transform="translate(-734 -677) translate(362 527) translate(359 150) translate(13) translate(2.25 32.038) translate(35.83)"/>
                            </g>
                            <g fill="#597AFA" fill-rule="nonzero">
                                <path d="M17.822 15.94c.122-.16.136-.378.036-.553L9.218.254c-.099-.172-.29-.27-.488-.25-.198.02-.366.156-.428.345l-2.185 6.75-5.893 3.944c-.16.108-.245.297-.218.488v.018c.034.196.181.354.374.402l16.918 4.18c.197.047.404-.028.524-.19zM1.735 11.241l4.793-3.208 8.637 6.524-13.43-3.316z" transform="translate(-734 -677) translate(362 527) translate(359 150) translate(13) translate(2.25 32.038) translate(108.743 3.957)"/>
                            </g>
                        </g>
                    </g>
                </g>
            </g>
        </g>
    </g>
</svg>
