<svg xmlns="http://www.w3.org/2000/svg" width="18" height="18" viewBox="0 0 18 18">
    <g fill="none" fill-rule="evenodd">
        <g>
            <g>
                <g>
                    <g>
                        <path d="M0 0L18 0 18 18 0 18z" transform="translate(-1312 -273) translate(1279 63) translate(24 210) translate(9)"/>
                        <path fill="#1D1E20" fill-rule="nonzero" d="M2.25 2.25h13.5c.414 0 .75.336.75.75v12c0 .414-.336.75-.75.75H2.25c-.414 0-.75-.336-.75-.75V3c0-.414.336-.75.75-.75zM15 9H3v5.25h12V9zm0-3V3.75H3V6h12z" transform="translate(-1312 -273) translate(1279 63) translate(24 210) translate(9)"/>
                    </g>
                </g>
            </g>
        </g>
    </g>
</svg>
