<svg xmlns="http://www.w3.org/2000/svg" width="20" height="20" viewBox="0 0 20 20">
    <g fill="none" fill-rule="evenodd">
        <g>
            <g>
                <g>
                    <g>
                        <g>
                            <g>
                                <path d="M0 0L20 0 20 20 0 20z" transform="translate(-1077 -573) translate(362 120) translate(0 370) translate(20 74) translate(590) translate(105 9)"/>
                                <g stroke="#1D1E20" stroke-linecap="round" stroke-linejoin="round" stroke-width="1.2">
                                    <path d="M2 1.3h7.7c1.105 0 2 .895 2 2V11c0 1.105-.895 2-2 2H2c-1.105 0-2-.895-2-2V3.3c0-1.105.895-2 2-2zM8.45 0v2.6M3.25 0v2.6M0 5.2h11.7" transform="translate(-1077 -573) translate(362 120) translate(0 370) translate(20 74) translate(590) translate(105 9) translate(4 4)"/>
                                </g>
                            </g>
                        </g>
                    </g>
                </g>
            </g>
        </g>
    </g>
</svg>
