<svg xmlns="http://www.w3.org/2000/svg" width="148" height="120" viewBox="0 0 148 120">
    <g fill="none" fill-rule="evenodd">
        <g>
            <g>
                <g>
                    <g transform="translate(-609 -222) translate(454 142) translate(95 80) translate(62)">
                        <rect width="71.395" height="70.8" x="36.303" y="37.2" stroke="#F9BA4D" stroke-width="4" rx="35.4"/>
                        <path fill="#FFF" fill-rule="nonzero" stroke="#E8EBF1" stroke-width="3" d="M0 119.548V104.4c0-.662.542-1.2 1.21-1.2h141.58c.668 0 1.21.538 1.21 1.2V120h0"/>
                        <path fill="#2A394E" fill-rule="nonzero" d="M81.68 65.066h-2c-.272-1.388-.874-2.642-1.677-3.732h3.679c1 0 1.814-.837 1.814-1.867 0-1.032-.813-1.867-1.815-1.867H63.529c-1 0-1.815.836-1.815 1.867 0 1.03.815 1.866 1.815 1.866h7.26c2.364 0 4.36 1.565 5.112 3.733h-12.37c-1.002 0-1.816.837-1.816 1.868 0 1.03.814 1.866 1.816 1.866H75.9c-.75 2.17-2.747 3.733-5.111 3.733h-7.26c-.235 0-.473.048-.693.143-.443.19-.798.552-.984 1.011-.185.456-.185.971 0 1.426.091.231.226.437.396.608l14.516 14.93c.356.367.82.549 1.285.549.465 0 .93-.182 1.286-.545.707-.728.707-1.911 0-2.64L67.912 76.267h2.878c4.385 0 8.048-3.211 8.89-7.467h2c1.003 0 1.816-.837 1.816-1.866 0-1.031-.813-1.868-1.815-1.868z"/>
                        <path fill="#E8EBF1" fill-rule="nonzero" d="M72.633 19.2c1.003 0 1.815-1.074 1.815-2.4V7.2c0-1.326-.812-2.4-1.815-2.4-1.002 0-1.815 1.074-1.815 2.4v9.6c0 1.326.813 2.4 1.815 2.4zm10.89-4.8c1.004 0 1.816-1.074 1.816-2.4V2.4c0-1.326-.812-2.4-1.815-2.4-1.002 0-1.815 1.074-1.815 2.4V12c0 1.326.813 2.4 1.815 2.4zm-21.78 0c1.002 0 1.814-1.074 1.814-2.4V2.4c0-1.326-.812-2.4-1.815-2.4-1.002 0-1.815 1.074-1.815 2.4V12c0 1.326.813 2.4 1.815 2.4z"/>
                    </g>
                </g>
            </g>
        </g>
    </g>
</svg>
