<svg width="24" height="24" xmlns="http://www.w3.org/2000/svg">
    <g fill="none" fill-rule="evenodd">
        <path d="M12.09 21.6c4.028 0 7.294-4.298 7.294-9.6s-3.266-9.6-7.294-9.6C8.06 2.4 4.795 6.698 4.795 12s3.266 9.6 7.295 9.6z" fill="#F4F6FB"/>
        <path d="M12 24c6.627 0 12-5.373 12-12S18.627 0 12 0 0 5.373 0 12s5.373 12 12 12z" fill="#EF5854" opacity=".12"/>
        <path d="M12.062 21.4a9.5 9.5 0 1 0 0-19 9.5 9.5 0 0 0 0 19z" fill="#EF5854"/>
        <path d="m14.395 8.9.667.667-2.334 2.333 2.334 2.333-.667.667-2.333-2.333L9.728 14.9l-.666-.667 2.333-2.333-2.333-2.333.666-.667 2.334 2.333L14.395 8.9z" stroke="#FFF" stroke-width=".2" fill="#FFF" fill-rule="nonzero" stroke-dasharray="0,0"/>
    </g>
</svg>
