<svg xmlns="http://www.w3.org/2000/svg" width="24" height="24" viewBox="0 0 24 24">
    <g fill="none" fill-rule="evenodd">
        <g>
            <g>
                <g>
                    <g>
                        <g>
                            <g>
                                <path d="M0 0H24V24H0z" transform="translate(-544 -398) translate(520 142) translate(24) translate(0 207) translate(0 43) translate(0 6)"/>
                                <g stroke="#1D1E20" stroke-linecap="round" stroke-linejoin="round" stroke-width="1.5">
                                    <path d="M12 4.8C12 2.149 9.851 0 7.2 0S2.4 2.149 2.4 4.8C2.4 10.4 0 12 0 12h14.4S12 10.4 12 4.8M8.768 15.001c-.286.494-.814.798-1.384.798S6.286 15.495 6 15" transform="translate(-544 -398) translate(520 142) translate(24) translate(0 207) translate(0 43) translate(0 6) translate(5 4)"/>
                                </g>
                            </g>
                        </g>
                    </g>
                </g>
            </g>
        </g>
    </g>
</svg>
