<svg width="32" height="32" xmlns="http://www.w3.org/2000/svg">
    <g fill="none" fill-rule="evenodd">
        <circle stroke="#F1F2FA" fill="#FFF" cx="16" cy="16" r="15.5"/>
        <path d="M8 25h16V9H8z"/>
        <path d="M17.535 19.1v2.8c0 1.16-.955 2.1-2.133 2.1l-2.846-6.3V10h8.024c.71-.008 1.316.5 1.422 1.19l.982 6.3c.063.406-.06.819-.333 1.129-.274.31-.672.486-1.09.481h-4.026zM12.556 10h-2.133C9.637 10 9 10.627 9 11.4v4.9c0 .773.637 1.4 1.423 1.4h2.133" stroke="#EF5854" stroke-width="1.5" stroke-linecap="round" stroke-linejoin="round"/>
    </g>
</svg>
