<svg width="24" height="24" xmlns="http://www.w3.org/2000/svg">
    <g fill="none" fill-rule="evenodd">
        <path d="M0 0h24v24H0z"/>
        <path d="M19.789 7.687a.397.397 0 0 0-.418 0l-4.42 3.641v-3.25a.468.468 0 0 0-.206-.391.397.397 0 0 0-.418 0l-5.132 4.01-.359-4.977c.232-.002.42-.204.422-.454V4.454c-.002-.25-.19-.451-.422-.454H5.054c-.233 0-.422.203-.422.454v1.812c0 .251.189.454.422.454L4.003 19.503a.448.448 0 0 0 .108.35.4.4 0 0 0 .31.147h15.157c.233 0 .422-.203.422-.454V8.078a.461.461 0 0 0-.211-.391zm-.634 11.41H4.912L5.938 6.308a.466.466 0 0 0-.103-.348.419.419 0 0 0-.314-.148h-.05v-.903h2.947v.903h-.044a.41.41 0 0 0-.313.147.476.476 0 0 0-.11.35l.492 6.16a.468.468 0 0 0 .221.36.396.396 0 0 0 .398 0l5.069-3.98v3.271c0 .16.079.309.206.391.13.077.287.077.417 0l4.42-3.64-.019 10.226z" stroke="#3F5BD9" stroke-width=".5" fill="#3F5BD9" fill-rule="nonzero"/>
    </g>
</svg>
