<svg xmlns="http://www.w3.org/2000/svg" width="43" height="29" viewBox="0 0 43 29">
    <g fill="none" fill-rule="evenodd">
        <g>
            <g>
                <g>
                    <path fill="#3F5BD9" fill-rule="nonzero" d="M41.489 1.983c.058.24-.117.477-.391.528-.275.052-.545-.102-.604-.342-.248-1.018-1.28-1.758-2.486-1.758-.28 0-.508-.199-.508-.445 0-.245.228-.445.508-.445 1.687 0 3.132 1.036 3.48 2.462zm.011 6.038c0 .276-.224.5-.5.5s-.5-.224-.5-.5v-4c0-.276.224-.5.5-.5s.5.224.5.5v4zm0 7c0 .276-.224.5-.5.5s-.5-.224-.5-.5v-4c0-.276.224-.5.5-.5s.5.224.5.5v4zm0 7c0 .276-.224.5-.5.5s-.5-.224-.5-.5v-4c0-.276.224-.5.5-.5s.5.224.5.5v4zm-2.24 5.46c-.272.104-.592 0-.713-.233s0-.506.273-.61c.965-.368 1.6-1.189 1.6-2.109v-.546c0-.255.242-.462.54-.462.298 0 .54.207.54.462v.546c0 1.288-.889 2.437-2.24 2.952zm-7.26.04c-.276 0-.5-.224-.5-.5s.224-.5.5-.5h4c.276 0 .5.224.5.5s-.224.5-.5.5h-4zm-6 0c-.276 0-.5-.224-.5-.5s.224-.5.5-.5h4c.276 0 .5.224.5.5s-.224.5-.5.5h-4zm-6 0c-.276 0-.5-.224-.5-.5s.224-.5.5-.5h4c.276 0 .5.224.5.5s-.224.5-.5.5h-4zm-5 0c-.276 0-.5-.224-.5-.5s.224-.5.5-.5h4c.276 0 .5.224.5.5s-.224.5-.5.5h-4zm-6 0c-.276 0-.5-.224-.5-.5s.224-.5.5-.5h4c.276 0 .5.224.5.5s-.224.5-.5.5H9zm-7.134-.115c-.266-.067-.422-.316-.347-.555.074-.24.35-.38.616-.313.218.055.444.083.675.083H6c.276 0 .5.201.5.45s-.224.45-.5.45H2.81c-.322 0-.639-.039-.944-.115zM.5 22.017c0-.274.201-.496.449-.496s.45.222.45.496v3.238c.003.218.031.43.084.635.067.264-.071.538-.31.612-.238.075-.487-.078-.554-.341-.074-.288-.114-.586-.119-.897v-3.247zm-1-6.996c0-.276.224-.5.5-.5s.5.224.5.5v4c0 .276-.224.5-.5.5s-.5-.224-.5-.5v-4zm0-7c0-.276.224-.5.5-.5s.5.224.5.5v4c0 .276-.224.5-.5.5s-.5-.224-.5-.5v-4zm.01-6.036c.02-.276.257-.483.53-.462.274.02.479.26.459.535l-.005.093-.002 3.87c0 .276-.222.5-.496.5s-.496-.224-.496-.5V2.245c0-.087.003-.174.01-.26zM6-.48c.276 0 .5.168.5.375s-.223.375-.5.375H3.334c-.39.005-.766.077-1.104.208-.245.095-.546.024-.673-.16s-.031-.41.214-.505c.475-.185 1.001-.286 1.554-.292h2.677zm7 0c.276 0 .5.224.5.5s-.224.5-.5.5H9c-.276 0-.5-.224-.5-.5s.224-.5.5-.5h4zm5 0c.276 0 .5.224.5.5s-.224.5-.5.5h-4c-.276 0-.5-.224-.5-.5s.224-.5.5-.5h4zm5 0c.276 0 .5.224.5.5s-.224.5-.5.5h-4c-.276 0-.5-.224-.5-.5s.224-.5.5-.5h4zm7 0c.276 0 .5.224.5.5s-.224.5-.5.5h-4c-.276 0-.5-.224-.5-.5s.224-.5.5-.5h4zm5 0c.276 0 .5.224.5.5s-.224.5-.5.5h-4c-.276 0-.5-.224-.5-.5s.224-.5.5-.5h4z" transform="translate(-302 -431) translate(287 412) translate(16 20)"/>
                    <path stroke="#3F5BD9" stroke-linecap="round" stroke-linejoin="round" stroke-width="1.5" d="M21 11.021L21 17.021M18 14.021L24 14.021" transform="translate(-302 -431) translate(287 412) translate(16 20)"/>
                </g>
            </g>
        </g>
    </g>
</svg>
