<svg width="24" height="24" xmlns="http://www.w3.org/2000/svg">
    <g fill="none" fill-rule="evenodd">
        <path d="M0 0h24v24H0z"/>
        <path d="m19.336 10.398-1.015-1.015V7.945a2.269 2.269 0 0 0-2.267-2.266h-1.436l-1.017-1.015a2.266 2.266 0 0 0-3.204 0L9.38 5.679H7.946a2.269 2.269 0 0 0-2.267 2.266v1.437l-1.015 1.016a2.266 2.266 0 0 0 0 3.205l1.015 1.016v1.436a2.269 2.269 0 0 0 2.267 2.266h1.436l1.016 1.016c.885.885 2.32.885 3.204 0l1.016-1.016h1.436a2.269 2.269 0 0 0 2.267-2.266v-1.437l1.015-1.017a2.266 2.266 0 0 0 0-3.205v.002zm-.64 2.564-1.149 1.148a.453.453 0 0 0-.132.32v1.625c-.001.75-.61 1.359-1.36 1.36H14.43a.453.453 0 0 0-.32.132l-1.149 1.149a1.36 1.36 0 0 1-1.922 0L9.89 17.547a.453.453 0 0 0-.32-.132H7.946c-.751-.001-1.36-.61-1.36-1.36V14.43a.453.453 0 0 0-.133-.32L5.305 12.96a1.36 1.36 0 0 1 0-1.923L6.453 9.89a.453.453 0 0 0 .133-.32V7.944c0-.75.609-1.359 1.36-1.36H9.57c.12 0 .235-.047.32-.132l1.149-1.148a1.36 1.36 0 0 1 1.922 0l1.149 1.148c.085.085.2.133.32.132h1.624c.751.001 1.36.61 1.36 1.36V9.57c0 .12.048.236.133.321l1.148 1.148a1.36 1.36 0 0 1 0 1.923v.001zm-3.942-3.075-4.867 4.867a.453.453 0 0 1-.641-.641l4.867-4.867a.453.453 0 0 1 .641.64zm-4.567 1.497a1.197 1.197 0 1 0 0-2.394 1.197 1.197 0 0 0 0 2.394zm0-1.488a.29.29 0 1 1 0 .581.29.29 0 0 1 0-.58zm3.626 2.72a1.197 1.197 0 1 0 0 2.394 1.197 1.197 0 0 0 0-2.394zm0 1.487a.29.29 0 1 1 0-.58.29.29 0 0 1 0 .58z" stroke="#3F5BD9" stroke-width=".5" fill="#3F5BD9" fill-rule="nonzero"/>
    </g>
</svg>
