<svg xmlns="http://www.w3.org/2000/svg" width="36" height="36" viewBox="0 0 36 36">
    <g fill="none" fill-rule="evenodd">
        <g fill-rule="nonzero">
            <g>
                <g transform="translate(-1154.000000, -624.000000) translate(938.000000, 510.000000) translate(216.000000, 114.000000)">
                    <circle cx="18" cy="18" r="18" fill="#E8E8E8"/>
                    <path fill="#DDD" d="M36 18c0 9.945-8.06 18-18 18-5.659 0-10.71-2.61-14.012-6.7 3.088 2.498 7.02 3.989 11.3 3.989 9.94 0 18-8.055 18-18 0-4.28-1.49-8.213-3.987-11.3C33.384 7.29 36 12.34 36 18z"/>
                    <path fill="#3E4347" d="M27.307 21.745c1.582.433-.953 8.844-9.307 8.906-8.354-.062-10.889-8.473-9.307-8.906 1.264-.623 4.656 2.83 9.307 2.83 4.715 0 8.043-3.453 9.307-2.83zM12.188 18.055c-.098.12-.262.15-.397.076-1.012-.533-5.085-2.813-5.475-4.936-.248-1.342.638-2.632 1.98-2.88.967-.18 1.904.233 2.452.99.233-.9.968-1.62 1.935-1.792 1.342-.248 2.625.638 2.872 1.98.39 2.122-2.61 5.7-3.367 6.562z"/>
                    <path fill="#9C9C9C" d="M12.616 17.552c-.172.21-.323.383-.428.503-.098.12-.262.15-.397.076-1.012-.533-5.085-2.813-5.475-4.936-.225-1.207.464-2.37 1.583-2.767-.57.554-.863 1.38-.706 2.22.383 2.092 4.335 4.334 5.423 4.904z"/>
                    <g fill="#FFF" opacity=".2" transform="translate(12.857478, 10.299914)">
                        <circle cx=".968" cy="1.148" r="1" transform="translate(0.967912, 1.147881) rotate(-111.433261) translate(-0.967912, -1.147881)"/>
                    </g>
                    <path fill="#3E4347" d="M23.397 18.055c.098.12.262.15.397.076 1.012-.533 5.085-2.813 5.475-4.936.248-1.342-.638-2.632-1.98-2.88-.967-.18-1.905.233-2.452.99-.233-.9-.968-1.62-1.935-1.792-1.343-.248-2.625.638-2.873 1.98-.39 2.122 2.61 5.7 3.368 6.562z"/>
                    <path fill="#9C9C9C" d="M22.97 17.552c.171.21.322.383.427.503.098.12.262.15.397.076 1.012-.533 5.085-2.813 5.475-4.936.225-1.207-.464-2.37-1.583-2.767.57.554.863 1.38.706 2.22-.383 2.092-4.336 4.334-5.423 4.904z"/>
                    <g fill="#FFF" opacity=".2" transform="translate(20.788877, 10.301312)">
                        <circle cx=".968" cy="1.148" r="1" transform="translate(0.967912, 1.147881) rotate(-158.566739) translate(-0.967912, -1.147881)"/>
                    </g>
                    <path fill="#AFAFAF" d="M18 30.65c1.613-.012 3.007-.337 4.198-.853-.27-.793-.754-1.485-1.392-2.004-.512-.422-1.215-.498-1.848-.293-.364.114-.773.185-1.227.185-.352 0-.677-.045-.978-.115-.683-.172-1.399.032-1.897.531-.472.472-.833 1.052-1.052 1.698 1.191.515 2.584.84 4.196.852z"/>
                </g>
            </g>
        </g>
    </g>
</svg>
