<svg xmlns="http://www.w3.org/2000/svg" width="24" height="24" viewBox="0 0 24 24">
    <g fill="none" fill-rule="evenodd">
        <g>
            <g>
                <g>
                    <path d="M0 0H24V24H0z" transform="translate(-964 -353) translate(948 337) translate(16 16)"/>
                    <g stroke="#1D1E20" stroke-width="1.668">
                        <path d="M7.274 14.548C3.259 14.548 0 11.288 0 7.274 0 3.259 3.26 0 7.274 0s7.274 3.26 7.274 7.274" transform="translate(-964 -353) translate(948 337) translate(16 16) translate(4.393 4)"/>
                    </g>
                    <g fill="#1D1E20" fill-rule="nonzero" stroke="#1D1E20" stroke-width=".3">
                        <path d="M4.375 5.625h-.41V4.312c0-.724-.64-1.312-1.43-1.312.79 0 1.43-.588 1.43-1.313V.375h.41c.113 0 .205-.084.205-.188C4.58.085 4.488 0 4.375 0H.285C.17 0 .08.084.08.188.08.29.17.374.284.374h.41v1.313C.693 2.412 1.333 3 2.124 3c-.79 0-1.432.588-1.432 1.313v1.312H.284c-.113 0-.204.084-.204.188C.08 5.915.17 6 .284 6h4.091c.113 0 .205-.084.205-.188 0-.103-.092-.187-.205-.187zM1.102 1.687V.375h2.455v1.313c0 .517-.481.937-1.074.937h-.307c-.593 0-1.074-.42-1.074-.938zm2.455 3.938H1.102V4.312c0-.517.481-.937 1.074-.937h.307c.593 0 1.074.42 1.074.938v1.312z" transform="translate(-964 -353) translate(948 337) translate(16 16) translate(14.92 13.5)"/>
                    </g>
                    <path stroke="#1D1E20" stroke-width="1.666" d="M11.667 8.971L11.667 12.244 13.849 13.335" transform="translate(-964 -353) translate(948 337) translate(16 16)"/>
                </g>
            </g>
        </g>
    </g>
</svg>
