<svg width="24" height="24" xmlns="http://www.w3.org/2000/svg">
    <g fill="none" fill-rule="evenodd">
        <path d="m7.515 21.948-.765-1.441a1.714 1.714 0 0 0-1.218-.885l-1.607-.282a1.714 1.714 0 0 1-1.4-1.929l.227-1.615a1.714 1.714 0 0 0-.465-1.432l-1.134-1.172a1.714 1.714 0 0 1 0-2.384l1.134-1.172c.368-.38.54-.909.465-1.432l-.228-1.615A1.714 1.714 0 0 1 3.925 4.66l1.607-.282c.52-.091.97-.418 1.218-.885l.765-1.44a1.714 1.714 0 0 1 2.267-.737l1.465.716c.475.232 1.03.232 1.506 0l1.465-.716a1.714 1.714 0 0 1 2.267.736l.765 1.441c.248.467.697.794 1.218.885l1.607.282c.91.16 1.53 1.013 1.4 1.929l-.227 1.615a1.714 1.714 0 0 0 .465 1.432l1.134 1.172c.643.665.643 1.72 0 2.384l-1.134 1.172c-.368.38-.54.909-.465 1.432l.228 1.615c.13.916-.49 1.77-1.401 1.929l-1.607.282c-.52.091-.97.418-1.218.885l-.765 1.44a1.714 1.714 0 0 1-2.267.737l-1.465-.716a1.714 1.714 0 0 0-1.506 0l-1.465.716c-.831.406-1.834.08-2.267-.736z" fill="#21B7A8"/>
        <path d="m16.286 9.429-5.837 6-2.734-2.671" stroke="#FFF" stroke-width="1.714" stroke-linecap="round" stroke-linejoin="round" stroke-dasharray="0,0"/>
    </g>
</svg>
