<svg width="24" height="24" xmlns="http://www.w3.org/2000/svg">
    <g fill="none" fill-rule="evenodd">
        <path d="M12 0c6.627 0 12 5.373 12 12s-5.373 12-12 12S0 18.627 0 12 5.373 0 12 0z" fill="#3F5BD9"/>
        <path d="M17.17 7.01v10.43l-3.066-.952v.148c0 .909-.743 1.649-1.656 1.649h-1.215c-.913 0-1.657-.74-1.657-1.65v-1.553l-.727-.226a1.217 1.217 0 0 1-1.07.637h-.563c-.67 0-1.216-.546-1.216-1.216v-4.104c0-.67.545-1.216 1.216-1.216h.564c.46 0 .862.258 1.069.637l8.32-2.584zm-6.643 8.367v1.258c0 .385.317.698.705.698h1.215a.702.702 0 0 0 .705-.698v-.443l-2.625-.815zm5.692-7.075-7.223 2.242v3.36l7.223 2.243V8.302zM7.78 9.908h-.564a.264.264 0 0 0-.264.264v4.105c0 .145.119.263.264.263h.564a.264.264 0 0 0 .264-.263v-4.105a.264.264 0 0 0-.264-.264z" stroke="#FFF" stroke-width=".2" fill="#FFF" stroke-dasharray="0,0"/>
    </g>
</svg>
