<svg width="80" height="45" viewBox="0 0 80 45" xmlns="http://www.w3.org/2000/svg" xmlns:xlink="http://www.w3.org/1999/xlink">
    <defs>
        <linearGradient x1="50%" y1="19.711%" x2="50%" y2="122.503%" id="c">
            <stop stop-color="#FFD5D5" offset="0%"/>
            <stop stop-color="#FFF" stop-opacity="0" offset="100%"/>
        </linearGradient>
        <path id="a" d="M0 0h80v44H0z"/>
    </defs>
    <g transform="translate(0 .5)" fill="none" fill-rule="evenodd">
        <mask id="b" fill="#fff">
            <use xlink:href="#a"/>
        </mask>
        <g mask="url(#b)" fill-rule="nonzero">
            <path fill="url(#c)" transform="matrix(-1 0 0 1 123 3)" d="M122 35H0V0l1.216 22.811h1.507l2.32-3.441h1.292l1.12 5.328 3.311-1.887 1.45-3.441 1.292.443 1.722-5.318h1.722l1.865-4.432h1.722l1.468 3.102h1.688l2.009 2.66h1.864l1.695-3.64h2.381l1.604 4.082 2.642-.443 2.725.813 1.187 2.996h3.776l.911-2.332 2.446-2.094 2.34 3.097 1.539-6.12h1.928l1.511-1.457h1.477l2.827 1.035 2.009-1.035 1.42 1.458h2.385l2.6-1.458 1.218 1.458h2.805l2.064.98.903 2.66 2.69-1.921 1.562 2.363v-4.082H84.1l2.614 6.003h1.227l1.512-3.693 3.358 8.316h2.07l1.82 1.692 2.251 1.884 1.742-4.728h1.046l1.473 2.217 2.983-1.065 2.98 1.692 2.6-1.692.159 10.001h2.488l2.811-5.022h2.583L122 24.814z"/>
            <path stroke="#EF5854" stroke-width="2" d="m123 3-1.217 22.246h-1.508l-2.323-3.356h-1.293l-1.122 5.197-3.313-1.84-1.453-3.357-1.292.433-1.724-5.187h-1.723l-1.867-4.322h-1.723l-1.47 3.025h-1.69l-2.01 2.594h-1.867l-1.696-3.55h-2.384l-1.605 3.982-2.644-.432-2.728.792-1.188 2.922-1.825-12.672-5.314 8.356-2.343 3.02-1.54-5.968h-1.93l-1.513-1.421h-1.479l-2.83 1.008-2.01-1.008-1.421 1.421h-2.387l-2.603-1.421-1.22 1.421H51.94l-2.066.956-.905 2.594-2.692-1.873-1.563 2.305v-3.982h-5.894l-2.617 5.855h-1.228l-1.513-3.602-3.361 8.11h-2.073l-1.822 1.65-2.253 1.837-1.743-4.61h-1.047l-1.475 2.162-2.985-1.039-2.984 1.65-2.602-1.65L10.957 35h-2.49l-2.814-4.898H3.068L1 27.355"/>
        </g>
    </g>
</svg>
