<svg xmlns="http://www.w3.org/2000/svg" width="149" height="31" viewBox="0 0 149 31">
    <g fill="none" fill-rule="evenodd">
        <g>
            <g>
                <g>
                    <path fill="#11AF4B" d="M9.429 3.664c-.07.116-.07.26 0 .375l11.83 19.79c.067.111.186.179.314.179h3.968c.283 0 .458-.31.313-.553L11.89.093c-.074-.124-.254-.124-.328 0L9.429 3.664z" transform="translate(-264.000000, -60.000000) translate(264.000000, 60.000000)"/>
                    <path fill="#FF7300" d="M7.294 7.89h3.997c.14 0 .228.152.158.274L9.45 11.625c-.07.122-.245.122-.316 0L7.136 8.164c-.07-.122.017-.274.158-.274zM4.908 11.904h3.997c.14 0 .228.152.157.273l-.999 1.731-.999 1.73c-.07.122-.246.122-.316 0l-1-1.73-.998-1.73c-.07-.122.017-.274.158-.274zM2.506 15.981h3.997c.14 0 .228.152.157.274l-.999 1.73-.999 1.731c-.07.122-.246.122-.316 0l-.999-1.73-1-1.731c-.07-.122.018-.274.159-.274zM.183 20.166H4.18c.14 0 .228.152.157.274l-.999 1.73-.999 1.731c-.07.122-.246.122-.316 0l-1-1.73-.998-1.731c-.07-.122.017-.274.158-.274zM4.923 20.166H8.92c.14 0 .228.152.158.274l-.999 1.73-1 1.731c-.07.122-.245.122-.315 0l-1-1.73-.999-1.731c-.07-.122.018-.274.158-.274zM14.531 20.166h3.997c.14 0 .228.152.158.274l-.999 1.73-1 1.731c-.07.122-.245.122-.315 0l-1-1.73-.999-1.731c-.07-.122.018-.274.158-.274zM7.357 15.981h3.997c.14 0 .228.152.158.274l-1 1.73-.999 1.731c-.07.122-.245.122-.315 0l-1-1.73-.999-1.731c-.07-.122.018-.274.158-.274zM12.035 15.981h3.996c.14 0 .229.152.158.274l-.999 1.73-1 1.731c-.07.122-.245.122-.315 0l-1-1.73-.998-1.731c-.07-.122.017-.274.158-.274zM9.79 11.904h3.998c.14 0 .228.152.157.273l-.999 1.731-.999 1.73c-.07.122-.246.122-.316 0l-1-1.73-.998-1.73c-.07-.122.017-.274.158-.274zM9.727 20.166h3.997c.14 0 .228.152.158.274l-1 1.73-.998 1.731c-.07.122-.246.122-.316 0l-1-1.73-.999-1.731c-.07-.122.018-.274.158-.274z" transform="translate(-264.000000, -60.000000) translate(264.000000, 60.000000)"/>
                </g>
                <g fill-rule="nonzero">
                    <path fill="#2E51FF" d="M33.03 8.112c.956.946 1.433 2.235 1.433 3.87v9.686c0 .099-.034.182-.103.251-.07.07-.153.103-.251.103h-2.717c-.099 0-.182-.034-.251-.103-.07-.069-.104-.152-.104-.251V12.69c0-.905-.256-1.639-.768-2.2-.512-.561-1.19-.842-2.037-.842s-1.531.276-2.053.827c-.521.551-.782 1.28-.782 2.186v9.007c0 .099-.035.182-.104.251-.069.07-.152.103-.25.103h-2.718c-.098 0-.182-.034-.25-.103-.07-.069-.104-.152-.104-.251V7.286c0-.099.034-.182.103-.251.069-.07.153-.104.251-.104h2.717c.099 0 .182.035.251.104.07.069.104.152.104.25v.946c0 .059.019.098.059.118.04.02.069 0 .088-.06.807-1.062 2.028-1.594 3.662-1.594 1.595 0 2.87.472 3.825 1.417M56.26 10.194c-.482.365-.821.872-1.018 1.521-.118.335-.197.768-.236 1.3-.04.099 0 .148.118.148h5.995c.098 0 .148-.05.148-.148-.04-.492-.099-.866-.178-1.122-.177-.71-.526-1.26-1.048-1.654-.522-.394-1.176-.59-1.964-.59-.729 0-1.334.181-1.816.545m8.49 4.238l-.029.916c0 .236-.118.354-.354.354h-9.244c-.099 0-.148.05-.148.148.06.65.148 1.093.266 1.329.473 1.418 1.624 2.137 3.455 2.156 1.34 0 2.402-.551 3.19-1.654.079-.118.177-.177.295-.177.079 0 .148.03.207.088L64.22 19.1c.177.138.207.295.089.472-.611.867-1.423 1.536-2.437 2.008-1.014.473-2.14.71-3.381.71-1.536 0-2.84-.345-3.913-1.034-1.074-.69-1.856-1.654-2.348-2.895-.453-1.063-.68-2.54-.68-4.43 0-1.141.119-2.067.355-2.776.394-1.377 1.137-2.466 2.23-3.263 1.092-.797 2.407-1.196 3.942-1.196 3.879 0 6.064 2.028 6.557 6.084.078.492.118 1.044.118 1.653" transform="translate(-264.000000, -60.000000) translate(264.000000, 60.000000) translate(31.417836, 1.985347)"/>
                    <path fill="#FF7300" d="M84.6 19.05c.914-.913 1.371-2.125 1.371-3.635V7.788c0-1.51-.457-2.727-1.37-3.65-.914-.924-2.126-1.386-3.635-1.386-1.49 0-2.692.462-3.606 1.385-.914.924-1.37 2.141-1.37 3.65v7.628c0 1.51.456 2.722 1.37 3.636.914.914 2.116 1.37 3.606 1.37 1.509 0 2.72-.456 3.635-1.37m-7.36 2.324c-1.073-.576-1.902-1.386-2.488-2.429-.586-1.042-.879-2.25-.879-3.62V7.817c0-1.37.293-2.577.88-3.62.585-1.043 1.414-1.852 2.487-2.428 1.073-.576 2.314-.865 3.725-.865 1.41 0 2.656.289 3.74.865 1.081.576 1.916 1.385 2.502 2.428.586 1.043.88 2.25.88 3.62v7.509c0 1.37-.294 2.578-.88 3.62-.586 1.043-1.42 1.853-2.503 2.429-1.083.576-2.33.864-3.74.864-1.41 0-2.651-.288-3.724-.864M100.475 8.115c.943.934 1.415 2.186 1.415 3.755v9.832c0 .2-.1.299-.298.299h-1.52c-.198 0-.297-.1-.297-.299v-9.415c0-1.092-.333-1.986-.998-2.682-.666-.695-1.525-1.043-2.578-1.043-1.093 0-1.977.338-2.652 1.013-.675.676-1.013 1.56-1.013 2.652v9.475c0 .2-.1.299-.298.299h-1.52c-.198 0-.297-.1-.297-.299V7.222c0-.199.099-.298.298-.298h1.52c.198 0 .297.1.297.297v1.282c0 .04.015.07.045.09.03.02.054.01.074-.03.874-1.232 2.215-1.848 4.023-1.848 1.589 0 2.855.467 3.799 1.4M107.595 9.292c-.645.507-1.068 1.187-1.266 2.041-.12.418-.199 1.093-.238 2.026 0 .08.04.12.119.12h7.717c.08 0 .12-.04.12-.12-.04-.893-.1-1.529-.18-1.906-.218-.894-.66-1.604-1.325-2.131-.666-.526-1.505-.79-2.518-.79-.974 0-1.783.254-2.429.76m8.537 4.723v.954c0 .198-.1.297-.298.297h-9.624c-.08 0-.12.04-.12.12.04 1.092.1 1.798.18 2.115.218.894.685 1.6 1.4 2.116.715.517 1.628.774 2.741.774.834 0 1.57-.188 2.205-.566.635-.377 1.132-.913 1.49-1.609.119-.178.258-.218.417-.119l1.162.685c.159.1.198.239.12.418-.498.953-1.242 1.703-2.236 2.25-.993.546-2.135.819-3.426.819-1.41-.02-2.592-.358-3.546-1.014-.953-.655-1.639-1.568-2.056-2.74-.357-.954-.536-2.325-.536-4.113 0-.834.015-1.514.045-2.04.03-.527.104-.999.223-1.416.338-1.291 1.018-2.324 2.041-3.099 1.023-.775 2.26-1.162 3.71-1.162 1.807 0 3.198.457 4.171 1.37.973.915 1.58 2.206 1.818 3.874.079.557.119 1.252.119 2.086" transform="translate(-264.000000, -60.000000) translate(264.000000, 60.000000) translate(31.417836, 1.985347)"/>
                    <path fill="#2E51FF" d="M13.378 15.46H6.499c-.113 0-.158-.059-.135-.177L9.82 6.342c.022-.078.056-.118.101-.118.045 0 .08.04.102.118l3.49 8.941c.045.118 0 .177-.135.177m6.506 6.149L11.282.886h-.002C11.06.366 10.543 0 9.942 0c-.585 0-1.087.347-1.317.845L.027 21.609c-.045.138-.034.241.034.31.068.07.17.103.305.103h3.389c.225 0 .372-.098.44-.295l1.118-3.16c.045-.078.102-.118.17-.118h8.945c.068 0 .124.04.17.118l1.118 3.16c.067.197.214.295.44.295h3.389c.248 0 .372-.088.372-.265 0-.06-.011-.108-.033-.148M71.833 19.222H71.2c-.426 0-.77-.343-.77-.769L70.429 1.82c0-.292-.237-.53-.529-.53h-2.37c-.292 0-.529.238-.529.53v17.24h.001v.43c0 1.39 1.128 2.518 2.518 2.518h2.313c.192 0 .347-.155.347-.347v-2.09c0-.192-.155-.348-.347-.348M46.064 16.042c-.03.345-.084.664-.163.96-.158.63-.473 1.142-.945 1.535-.473.395-1.093.591-1.86.591-.73 0-1.355-.202-1.876-.605-.522-.404-.881-.92-1.078-1.55-.197-.493-.295-1.35-.295-2.57 0-1.181.118-2.048.354-2.599.217-.65.571-1.171 1.063-1.565.492-.394 1.093-.59 1.802-.59.748 0 1.363.196 1.846.59.482.394.802.915.96 1.565.098.315.162.635.192.96.03.325.044.861.044 1.61 0 .767-.015 1.324-.044 1.668m3.366-9.008c-.069-.068-.153-.103-.25-.103h-2.718c-.098 0-.182.035-.25.103-.07.07-.104.153-.104.251v.71c0 .058-.02.098-.06.117-.039.02-.078 0-.117-.059-.867-.905-2.078-1.358-3.633-1.358-1.3 0-2.432.36-3.396 1.078-.965.719-1.644 1.678-2.038 2.88-.315.866-.472 2.116-.472 3.75 0 1.457.127 2.648.383 3.573.414 1.34 1.152 2.333 2.215 2.983 1.064.65 2.235.975 3.515.975 1.477 0 2.618-.433 3.426-1.3.039-.039.078-.054.118-.044.039.01.059.044.059.103v.236c0 1.378-.35 2.358-1.049 2.94-.699.58-1.786.87-3.263.87l-.027.002h-2.542c-.242 0-.392.265-.267.472l1.425 2.362c.111.184.31.296.524.296h1.075v-.003c2.237-.015 4.05-.54 5.438-1.578 1.407-1.054 2.112-2.81 2.112-5.272V7.285c0-.098-.035-.181-.104-.25" transform="translate(-264.000000, -60.000000) translate(264.000000, 60.000000) translate(31.417836, 1.985347)"/>
                    <path fill="#FF7300" d="M113.348.07v.185c0 .028-.015.043-.043.043h-.84c-.012 0-.018.005-.018.017v2.67c0 .03-.014.043-.043.043h-.218c-.029 0-.043-.014-.043-.043V.315c0-.012-.006-.017-.017-.017h-.806c-.029 0-.043-.015-.043-.043V.07c0-.028.014-.043.043-.043h1.985c.028 0 .043.015.043.043M115.932.028h.223c.028 0 .043.014.043.042v2.916c0 .028-.015.042-.043.042h-.219c-.028 0-.042-.014-.042-.042V.602c0-.009-.003-.014-.01-.017-.005-.003-.01 0-.012.008l-.699 1.072c-.014.02-.031.03-.051.03h-.112c-.02 0-.037-.008-.051-.026L114.26.606c-.003-.008-.007-.011-.013-.008-.005.003-.008.008-.008.017v2.37c0 .03-.015.043-.043.043h-.219c-.028 0-.043-.014-.043-.042V.07c0-.028.015-.042.043-.042h.223c.023 0 .04.008.052.025l.806 1.222c.002.003.007.004.012.004.006 0 .01-.001.013-.004l.798-1.218c.014-.02.031-.03.051-.03" transform="translate(-264.000000, -60.000000) translate(264.000000, 60.000000) translate(31.417836, 1.985347)"/>
                </g>
            </g>
        </g>
    </g>
</svg>
