<svg xmlns="http://www.w3.org/2000/svg" width="14" height="14" viewBox="0 0 14 14">
    <g fill="none" fill-rule="evenodd">
        <g>
            <g>
                <g>
                    <path fill="#E5E5E5" fill-rule="nonzero" d="M.302 13c-.073 0-.144-.029-.197-.082-.07-.07-.096-.172-.07-.268L.88 9.564C.354 8.613.077 7.536.077 6.444.08 2.89 2.97 0 6.523 0c1.723 0 3.343.672 4.56 1.89 1.217 1.218 1.886 2.837 1.886 4.559-.002 3.553-2.893 6.444-6.446 6.444H6.52c-1.037 0-2.066-.253-2.982-.732l-3.166.83C.35 12.997.325 13 .302 13z" transform="translate(-610 -552) translate(485 551.477) translate(125.355 1)"/>
                    <path fill="#FFF" fill-rule="nonzero" d="M.302 12.723l.875-3.196C.637 8.592.353 7.531.354 6.444.355 3.044 3.123.277 6.524.277c1.65 0 3.198.643 4.363 1.808 1.165 1.166 1.806 2.716 1.805 4.364-.001 3.4-2.769 6.168-6.169 6.168H6.52c-1.032 0-2.046-.26-2.948-.751l-3.27.857zm3.422-1.974l.187.111c.787.467 1.69.714 2.61.715h.002c2.826 0 5.126-2.3 5.128-5.127 0-1.37-.533-2.657-1.5-3.626-.969-.97-2.256-1.503-3.626-1.504-2.828 0-5.129 2.3-5.13 5.126 0 .969.271 1.912.784 2.728l.122.194-.518 1.892 1.94-.509z" transform="translate(-610 -552) translate(485 551.477) translate(125.355 1)"/>
                    <path fill="#64B161" fill-rule="nonzero" d="M.517 12.508l.844-3.085C.841 8.52.566 7.495.566 6.446.568 3.163 3.24.492 6.522.492c1.593 0 3.089.62 4.213 1.746s1.743 2.622 1.743 4.213c-.002 3.283-2.673 5.954-5.956 5.954H6.52c-.997 0-1.976-.25-2.846-.725l-3.157.828z" transform="translate(-610 -552) translate(485 551.477) translate(125.355 1)"/>
                    <path fill="#FFF" fill-rule="nonzero" d="M.302 12.723l.875-3.196C.637 8.592.353 7.531.354 6.444.355 3.044 3.123.277 6.524.277c1.65 0 3.198.643 4.363 1.808 1.165 1.166 1.806 2.716 1.805 4.364-.001 3.4-2.769 6.168-6.169 6.168H6.52c-1.032 0-2.046-.26-2.948-.751l-3.27.857zm3.422-1.974l.187.111c.787.467 1.69.714 2.61.715h.002c2.826 0 5.126-2.3 5.128-5.127 0-1.37-.533-2.657-1.5-3.626-.969-.97-2.256-1.503-3.626-1.504-2.828 0-5.129 2.3-5.13 5.126 0 .969.271 1.912.784 2.728l.122.194-.518 1.892 1.94-.509z" transform="translate(-610 -552) translate(485 551.477) translate(125.355 1)"/>
                    <path fill="#FFF" d="M4.981 3.866c-.115-.257-.237-.262-.347-.267-.09-.004-.192-.003-.295-.003-.103 0-.27.038-.411.193-.141.154-.54.527-.54 1.285 0 .759.553 1.492.63 1.595.077.102 1.066 1.709 2.633 2.326 1.302.514 1.567.412 1.85.386.282-.026.912-.373 1.04-.733.129-.36.129-.668.09-.733-.039-.064-.141-.102-.295-.18-.155-.077-.912-.45-1.054-.5-.141-.052-.244-.078-.347.076-.102.154-.398.502-.488.604-.09.103-.18.116-.334.04-.154-.078-.65-.24-1.24-.766-.457-.409-.767-.913-.857-1.067-.09-.155-.001-.23.068-.315.125-.152.334-.424.385-.527.052-.103.026-.193-.013-.27-.038-.077-.338-.84-.475-1.144z" transform="translate(-610 -552) translate(485 551.477) translate(125.355 1)"/>
                </g>
            </g>
        </g>
    </g>
</svg>
