<svg xmlns="http://www.w3.org/2000/svg" width="46" height="15" viewBox="0 0 46 15">
    <g fill="none" fill-rule="evenodd">
        <g fill-rule="nonzero">
            <g>
                <g>
                    <g fill="#5F259F" transform="translate(-521 -551) translate(485 551.477) translate(36.816) translate(.008 .023)">
                        <circle cx="6.985" cy="6.97" r="5.791" transform="rotate(-76.714 6.985 6.97)"/>
                        <path d="M30.482 10.28V8.175c0-.517-.194-.776-.68-.776-.194 0-.42.032-.55.065v3.073c0 .097-.097.194-.194.194h-.744c-.097 0-.194-.097-.194-.194V6.947c0-.13.097-.227.194-.259.486-.162.97-.259 1.489-.259 1.164 0 1.811.615 1.811 1.747v2.395c0 .097-.097.194-.194.194h-.453c-.29 0-.485-.227-.485-.486zm2.912-1.262l-.033.29c0 .389.26.615.68.615.323 0 .615-.097.938-.258.033 0 .065-.033.097-.033.065 0 .097.033.13.065.032.032.097.13.097.13.064.096.13.226.13.323 0 .162-.098.323-.227.388-.356.194-.777.291-1.23.291-.517 0-.938-.13-1.262-.388-.323-.291-.517-.68-.517-1.165V8.015c0-1.003.647-1.618 1.747-1.618 1.068 0 1.682.582 1.682 1.618v.776c0 .097-.097.194-.194.194h-2.038v.033zm-.033-.712h1.23v-.324c0-.388-.227-.647-.615-.647s-.615.227-.615.647v.324zm8.25.712l-.032.29c0 .389.26.615.68.615.323 0 .615-.097.938-.258.032 0 .065-.033.097-.033.065 0 .097.033.13.065.032.032.097.13.097.13.064.096.129.226.129.323 0 .162-.097.323-.226.388-.356.194-.777.291-1.23.291-.518 0-.938-.13-1.262-.388-.323-.291-.517-.68-.517-1.165V8.015c0-1.003.647-1.618 1.747-1.618 1.067 0 1.682.582 1.682 1.618v.776c0 .097-.097.194-.194.194h-2.038v.033zm-.032-.712h1.23v-.324c0-.388-.227-.647-.615-.647s-.615.227-.615.647v.324zm-19.024 2.459h.453c.097 0 .194-.097.194-.194V8.176c0-1.1-.582-1.747-1.553-1.747-.29 0-.614.065-.808.13V5.362c0-.26-.227-.486-.486-.486h-.453c-.097 0-.194.097-.194.194v5.5c0 .098.097.195.194.195h.744c.097 0 .195-.097.195-.194V7.529c.161-.064.388-.097.55-.097.485 0 .679.227.679.777v2.103c.032.226.226.453.485.453zm4.886-2.718v1.197c0 1.003-.68 1.618-1.812 1.618-1.1 0-1.812-.615-1.812-1.618V8.047c0-1.003.68-1.618 1.812-1.618 1.132 0 1.812.615 1.812 1.618zm-1.133 0c0-.388-.226-.647-.647-.647-.42 0-.647.226-.647.647v1.197c0 .388.227.615.647.615.42 0 .647-.227.647-.615V8.047zm-7.215-.55c0 1.035-.776 1.747-1.811 1.747-.26 0-.486-.032-.712-.13v1.457c0 .097-.097.194-.194.194h-.744c-.097 0-.195-.097-.195-.194V5.426c0-.13.098-.226.195-.259.485-.161.97-.258 1.488-.258 1.165 0 1.973.711 1.973 1.811v.777zm-1.164-.841c0-.518-.356-.777-.842-.777-.29 0-.485.097-.485.097v2.136c.194.097.291.129.518.129.485 0 .841-.291.841-.776v-.81h-.032zm22.065.84c0 1.036-.776 1.748-1.812 1.748-.259 0-.485-.032-.712-.13v1.457c0 .097-.097.194-.194.194h-.744c-.097 0-.194-.097-.194-.194V5.426c0-.13.097-.226.194-.259.485-.161.97-.258 1.488-.258 1.165 0 1.974.711 1.974 1.811v.777zm-1.165-.84c0-.518-.356-.777-.84-.777-.292 0-.486.097-.486.097v2.136c.194.097.291.129.517.129.486 0 .842-.291.842-.776v-.81h-.033z"/>
                    </g>
                    <path fill="#FFF" d="M9.622 5.482c0-.227-.194-.42-.42-.42h-.777l-1.78-2.039c-.162-.194-.42-.259-.68-.194l-.614.194c-.097.032-.13.162-.065.227l1.942 1.844H4.283c-.097 0-.161.064-.161.161v.324c0 .226.194.42.42.42h.453v1.554c0 1.164.615 1.844 1.65 1.844.324 0 .583-.033.906-.162v1.035c0 .292.227.518.518.518h.453c.097 0 .194-.097.194-.194V5.967h.744c.097 0 .162-.064.162-.162v-.323zm-2.07 2.782c-.195.097-.454.13-.648.13-.518 0-.776-.259-.776-.841V6H7.55v2.264z" transform="translate(-521 -551) translate(485 551.477) translate(36.816)"/>
                </g>
            </g>
        </g>
    </g>
</svg>
