<svg xmlns="http://www.w3.org/2000/svg" width="22" height="22" viewBox="0 0 22 22">
    <g fill="none" fill-rule="evenodd">
        <g fill="#6A7582" fill-rule="nonzero">
            <g>
                <g>
                    <path d="M38 18c-6.065 0-11 4.935-11 11s4.935 11 11 11 11-4.935 11-11-4.935-11-11-11zm-.733 5.133c-1-.039-1.989-.166-2.934-.373.151-.323.315-.634.491-.929.725-1.209 1.614-2.057 2.443-2.364v3.666zm0 1.24v3.894H33.6c.052-1.52.274-3.028.641-4.4.974.286 1.996.459 3.026.507zm0 5.36v3.893c-1.03.048-2.052.221-3.026.507-.367-1.372-.59-2.88-.641-4.4h3.667zm0 5.134v3.666c-.829-.307-1.718-1.155-2.443-2.364-.176-.295-.34-.606-.49-.93.944-.206 1.933-.333 2.933-.372zm1.466 0c1 .039 1.989.166 2.934.373-.151.323-.315.634-.491.929-.725 1.209-1.614 2.057-2.443 2.364v-3.666zm0-1.24v-3.894H42.4c-.052 1.52-.274 3.028-.641 4.4-.974-.286-1.996-.459-3.026-.507zm0-5.36v-3.893c1.03-.048 2.052-.221 3.026-.507.367 1.372.59 2.88.641 4.4h-3.667zm0-5.134v-3.666c.829.307 1.718 1.155 2.443 2.364.176.295.34.606.49.93-.944.206-1.933.333-2.933.372zm3.313-2.04c-.344-.618-.718-1.162-1.113-1.626 1.375.457 2.62 1.188 3.667 2.125-.597.312-1.24.582-1.918.808-.192-.454-.404-.891-.636-1.307zm-8.092 0c-.232.416-.444.853-.636 1.307-.677-.226-1.32-.497-1.918-.808 1.047-.937 2.292-1.668 3.667-2.125-.395.464-.768 1.008-1.113 1.626zm-1.087 2.392c-.432 1.492-.686 3.118-.74 4.782h-3.66c.135-2.22.925-4.25 2.163-5.867.687.425 1.44.79 2.237 1.085zm-.74 6.248c.054 1.664.308 3.29.74 4.782-.797.296-1.55.66-2.237 1.085-1.238-1.616-2.028-3.647-2.163-5.867h3.66zm1.19 5.867c.193.454.405.891.637 1.307.345.618.718 1.162 1.113 1.626-1.375-.457-2.62-1.188-3.667-2.125.597-.311 1.24-.582 1.918-.808zm8.729 1.307c.232-.416.444-.853.636-1.307.677.226 1.32.497 1.918.808-1.047.937-2.292 1.668-3.667 2.125.395-.464.768-1.008 1.113-1.626zm1.087-2.392c.432-1.492.686-3.118.74-4.782h3.66c-.135 2.22-.925 4.25-2.163 5.867-.687-.425-1.44-.79-2.237-1.085zm.74-6.248c-.054-1.664-.308-3.29-.74-4.782.797-.296 1.55-.66 2.237-1.085 1.238 1.616 2.028 3.647 2.163 5.867h-3.66z" transform="translate(-658 -517) translate(247 470) translate(384 29)"/>
                </g>
            </g>
        </g>
    </g>
</svg>
