<svg xmlns="http://www.w3.org/2000/svg" width="30" height="10" viewBox="0 0 30 10">
    <g fill="none" fill-rule="evenodd">
        <g fill-rule="nonzero">
            <g>
                <g>
                    <path fill="#00BAF2" d="M28.55 2.648c-.26-.743-.968-1.277-1.8-1.277h-.018c-.541 0-1.029.225-1.376.587-.347-.362-.835-.587-1.376-.587h-.017c-.476 0-.91.174-1.244.462v-.146c-.012-.146-.132-.26-.28-.26h-1.277c-.156 0-.282.125-.282.282v6.933c0 .157.126.283.282.283h1.277c.142 0 .26-.106.278-.244V3.704c.02-.222.182-.405.44-.427h.235c.107.01.198.047.27.104.11.088.172.224.172.373l.005 4.953c0 .156.127.283.282.283h1.277c.151 0 .273-.12.28-.27V3.747c0-.163.075-.31.208-.398.065-.042.144-.07.235-.08h.235c.276.025.443.235.443.478l.005 4.946c0 .157.126.283.282.283h1.277c.155 0 .282-.126.282-.283V3.324c0-.363-.041-.517-.097-.676m-8.64-1.204h-.731V.258c0-.143-.115-.258-.258-.258-.017 0-.033.002-.048.005-.81.223-.648 1.344-2.126 1.44h-.143c-.022 0-.042.002-.062.007h-.001c-.125.028-.22.14-.22.275v1.276c0 .156.127.283.283.283h.77L17.371 8.7c0 .154.125.279.28.279h1.262c.153 0 .278-.125.278-.28V3.287h.716c.156 0 .282-.127.282-.283V1.727c0-.156-.126-.283-.282-.283" transform="translate(-573 -554) translate(485 551.477) translate(88.71 3)"/>
                    <path fill="#1F336B" d="M15.313 1.444h-1.276c-.156 0-.282.127-.282.283v2.64c-.003.163-.135.294-.299.294h-.535c-.165 0-.3-.133-.3-.3l-.004-2.634c0-.156-.127-.283-.282-.283h-1.277c-.156 0-.282.127-.282.283V4.62c0 1.099.783 1.883 1.883 1.883 0 0 .825 0 .85.005.15.016.265.141.265.295 0 .152-.113.276-.26.295l-.022.004-1.867.007c-.156 0-.282.126-.282.282v1.276c0 .156.126.282.282.282h2.087c1.1 0 1.884-.783 1.884-1.882v-5.34c0-.156-.126-.283-.283-.283M2.955 3.784v.788c0 .165-.134.3-.299.3h-.81V3.293h.81c.165 0 .3.133.3.3v.19zm.113-2.34H.277c-.153 0-.277.124-.277.277V8.658c0 .154.115.28.258.283H1.56c.156 0 .282-.126.282-.282l.005-1.94h1.222c1.022 0 1.734-.71 1.734-1.736V3.182c0-1.026-.712-1.738-1.734-1.738zm5.185 5.337v.2c0 .016-.003.031-.005.046-.16-.01-.283-.147-.277-.307.006-.16.137-.288.298-.288.16 0 .292.128.297.288.006.16-.117.296-.277.307-.04.112-.15.193-.284.193h-.531c-.166 0-.301-.126-.301-.28v-.242V5.846c.001-.154.135-.28.3-.28h.532c.167 0 .301.126.301.282l-.053.933zm-.203-5.33H6.278c-.157 0-.283.12-.283.265v1.197c0 .155.134.281.3.281h1.687c.133.021.239.118.254.27v.165c-.015.145-.12.25-.247.262h-.835c-1.111 0-1.903.738-1.903 1.775v1.485c0 1.03.68 1.763 1.784 1.763H9.35c.416 0 .752-.314.752-.702V3.368c0-1.175-.605-1.917-2.052-1.917z" transform="translate(-573 -554) translate(485 551.477) translate(88.71 3)"/>
                </g>
            </g>
        </g>
    </g>
</svg>
