<svg xmlns="http://www.w3.org/2000/svg" width="24" height="22" viewBox="0 0 24 22">
    <g fill="none" fill-rule="evenodd">
        <g fill-rule="nonzero">
            <g>
                <g>
                    <path fill="#11AF4B" d="M8.634 3.276c-.064.104-.064.232 0 .335l10.754 17.695c.06.099.17.16.285.16h3.608c.257 0 .416-.277.284-.495L10.871.083c-.067-.11-.23-.11-.298 0L8.634 3.276z" transform="translate(-444.000000, -65.000000) translate(0.000000, 56.000000) translate(444.000000, 9.000000)"/>
                    <path fill="#FF7300" d="M6.694 6.44h3.669c.128 0 .21.142.145.255l-1.835 3.23c-.064.114-.225.114-.29 0L6.55 6.695c-.064-.113.016-.255.145-.255zm-2.19 3.745h3.669c.128 0 .21.142.144.255L7.4 12.055l-.917 1.615c-.064.114-.226.114-.29 0l-.918-1.615-.916-1.614c-.064-.114.016-.256.145-.256zM2.3 13.99h3.668c.129 0 .21.142.144.256l-.916 1.614-.917 1.615c-.065.114-.226.114-.29 0l-.917-1.614-.918-1.615c-.064-.114.016-.256.146-.256zM.168 17.895h3.668c.129 0 .21.142.144.256l-.917 1.614-.916 1.615c-.065.114-.226.114-.29 0l-.918-1.614-.916-1.615c-.065-.114.015-.256.145-.256zm4.35 0h3.669c.128 0 .209.142.145.256l-.917 1.614-.918 1.615c-.064.114-.225.114-.29 0l-.917-1.614-.917-1.615c-.064-.114.017-.256.145-.256zm8.819 0h3.668c.129 0 .21.142.145.256l-.917 1.614-.918 1.615c-.064.114-.224.114-.289 0l-.918-1.614-.916-1.615c-.065-.114.016-.256.145-.256zM6.752 13.99h3.669c.128 0 .209.142.145.256l-.918 1.614-.917 1.615c-.064.114-.225.114-.29 0l-.917-1.614-.917-1.615c-.064-.114.017-.256.145-.256zm4.294 0h3.667c.129 0 .21.142.145.256l-.917 1.614-.917 1.615c-.065.114-.225.114-.29 0l-.917-1.614-.916-1.615c-.065-.114.015-.256.145-.256zm-2.06-3.805h3.669c.128 0 .209.142.144.255l-.917 1.615-.917 1.615c-.064.114-.226.114-.29 0l-.918-1.615-.916-1.614c-.064-.114.016-.256.145-.256zm-.059 7.71h3.669c.128 0 .21.142.145.256l-.918 1.614-.916 1.615c-.064.114-.226.114-.29 0L9.7 19.766l-.917-1.615c-.064-.114.017-.256.145-.256z" transform="translate(-444.000000, -65.000000) translate(0.000000, 56.000000) translate(444.000000, 9.000000)"/>
                </g>
            </g>
        </g>
    </g>
</svg>
