<svg xmlns="http://www.w3.org/2000/svg" width="29" height="12" viewBox="0 0 29 12">
    <g fill="none" fill-rule="evenodd">
        <g fill-rule="nonzero">
            <g>
                <g>
                    <path fill="#5F6368" d="M13.628 5.59v3.354h-1.064V.661h2.822c.68-.014 1.338.244 1.828.717.495.445.773 1.083.763 1.748.014.67-.265 1.312-.763 1.758-.494.47-1.103.706-1.828.705h-1.758v.001zm0-3.91v2.892h1.785c.395.012.777-.144 1.052-.428.274-.266.428-.63.428-1.012s-.154-.747-.428-1.012c-.271-.291-.655-.451-1.052-.44h-1.785zM20.429 3.092c.787 0 1.407.21 1.862.63.456.42.683.997.683 1.73v3.492h-1.018v-.786h-.047c-.44.647-1.026.971-1.758.971-.624 0-1.146-.185-1.567-.555-.408-.344-.64-.854-.63-1.388 0-.586.222-1.053.665-1.399.443-.346 1.035-.52 1.775-.52.632 0 1.152.115 1.561.346V5.37c.003-.364-.159-.71-.44-.942-.28-.254-.648-.392-1.026-.388-.595 0-1.065.25-1.412.752l-.937-.59c.516-.74 1.279-1.11 2.289-1.11zm-1.377 4.117c-.001.275.13.534.353.694.236.185.528.283.827.278.45 0 .88-.18 1.197-.497.352-.332.529-.721.529-1.168-.332-.264-.795-.397-1.388-.397-.432 0-.793.105-1.081.313-.292.212-.437.469-.437.777zM28.816 3.277L25.263 11.443 24.165 11.443 25.483 8.585 23.147 3.277 24.303 3.277 25.992 7.348 26.015 7.348 27.657 3.277z" transform="translate(-485 -552) translate(485 551.477) translate(0 1)"/>
                    <path fill="#4285F4" d="M9.328 4.867c0-.324-.027-.648-.082-.968H4.76v1.833h2.57c-.106.592-.45 1.114-.95 1.446v1.19h1.534c.898-.828 1.415-2.053 1.415-3.501z" transform="translate(-485 -552) translate(485 551.477) translate(0 1)"/>
                    <path fill="#34A853" d="M4.759 9.517c1.284 0 2.365-.421 3.154-1.148l-1.534-1.19c-.427.29-.977.455-1.62.455-1.242 0-2.295-.837-2.672-1.965H.507v1.226c.808 1.608 2.453 2.622 4.252 2.622z" transform="translate(-485 -552) translate(485 551.477) translate(0 1)"/>
                    <path fill="#FBBC04" d="M2.087 5.67c-.199-.591-.199-1.231 0-1.822V2.622H.507C-.17 3.966-.17 5.55.507 6.895l1.58-1.226z" transform="translate(-485 -552) translate(485 551.477) translate(0 1)"/>
                    <path fill="#EA4335" d="M4.759 1.884c.678-.011 1.334.245 1.825.713L7.942 1.24C7.081.43 5.94-.014 4.76 0 2.959 0 1.315 1.015.507 2.622l1.58 1.226c.377-1.128 1.43-1.964 2.672-1.964z" transform="translate(-485 -552) translate(485 551.477) translate(0 1)"/>
                </g>
            </g>
        </g>
    </g>
</svg>
