<svg xmlns="http://www.w3.org/2000/svg" width="56" height="12" viewBox="0 0 56 12">
    <g fill="none" fill-rule="evenodd">
        <g>
            <g>
                <g>
                    <path fill="#F79C34" d="M21.51 8.18c-2.014 1.487-4.935 2.278-7.45 2.278-3.524 0-6.699-1.303-9.1-3.472-.189-.17-.021-.403.206-.271 2.591 1.508 5.796 2.416 9.106 2.416 2.232 0 4.687-.464 6.945-1.422.341-.144.627.225.293.471z" transform="translate(-631 -553) translate(485 551.477) translate(146.355 2)"/>
                    <path fill="#F79C34" d="M22.349 7.223c-.258-.33-1.704-.156-2.353-.078-.197.023-.227-.149-.05-.273 1.153-.81 3.043-.576 3.262-.305.222.273-.058 2.168-1.138 3.072-.167.139-.325.065-.251-.119.243-.607.788-1.966.53-2.297z" transform="translate(-631 -553) translate(485 551.477) translate(146.355 2)"/>
                    <path fill="#333E47" d="M20.042 1.15V.363c0-.12.09-.2.2-.199h3.527c.112 0 .203.082.203.198v.675c-.001.113-.097.261-.265.495l-1.828 2.61c.678-.016 1.396.085 2.012.431.14.079.177.194.187.308v.84c0 .115-.126.249-.26.18-1.085-.57-2.526-.632-3.727.006-.122.066-.25-.067-.25-.182v-.799c0-.127.002-.346.13-.54l2.118-3.037h-1.843c-.113 0-.204-.081-.204-.199zM7.175 6.066H6.102c-.102-.007-.184-.083-.192-.182V.376c0-.11.093-.198.208-.198h1c.104.005.188.085.194.185v.72h.02c.26-.696.751-1.02 1.413-1.02.67 0 1.092.324 1.392 1.02.26-.696.852-1.02 1.482-1.02.451 0 .942.185 1.243.602.34.464.27 1.136.27 1.727v3.476c0 .11-.093.198-.208.198h-1.071c-.108-.007-.193-.092-.193-.198v-2.92c0-.232.02-.81-.03-1.031-.08-.371-.32-.476-.631-.476-.26 0-.531.174-.642.452-.11.279-.1.742-.1 1.055v2.92c0 .11-.092.198-.207.198H8.978c-.107-.007-.192-.092-.192-.198l-.002-2.92c0-.614.1-1.518-.66-1.518-.772 0-.742.88-.742 1.518v2.92c0 .11-.093.198-.207.198zM27.018 1.187c-.79 0-.84 1.077-.84 1.75 0 .672-.01 2.109.83 2.109.832 0 .872-1.16.872-1.866 0-.464-.02-1.02-.16-1.46-.12-.383-.361-.533-.702-.533zm-.01-1.125c1.593 0 2.455 1.368 2.455 3.107 0 1.68-.952 3.013-2.454 3.013-1.563 0-2.415-1.368-2.415-3.072 0-1.715.862-3.048 2.415-3.048zM31.528 6.066H30.46c-.107-.007-.192-.092-.192-.198l-.002-5.51c.009-.1.098-.18.206-.18h.995c.094.005.171.069.191.154v.843h.02C31.978.42 32.398.062 33.14.062c.48 0 .951.174 1.252.65.28.44.28 1.181.28 1.714v3.466c-.011.098-.1.174-.205.174H33.39c-.1-.007-.18-.08-.191-.174v-2.99c0-.603.07-1.484-.671-1.484-.26 0-.501.174-.621.44-.15.337-.17.673-.17 1.044v2.966c-.003.11-.095.198-.21.198zM18.311 6.052c-.07.064-.173.068-.253.025-.356-.296-.42-.433-.615-.715-.589.6-1.006.78-1.77.78-.903 0-1.605-.558-1.605-1.673 0-.87.472-1.463 1.144-1.754.582-.255 1.395-.302 2.018-.371v-.14c0-.256.02-.557-.13-.778-.131-.198-.382-.279-.603-.279-.41 0-.773.21-.863.644-.018.097-.089.193-.186.198l-1.04-.113c-.088-.02-.185-.09-.16-.224C14.484.408 15.595.02 16.605.009h.08c.516.007 1.177.148 1.579.534.522.488.471 1.139.471 1.847v1.672c0 .503.21.724.406.994.068.098.084.214-.004.286-.22.183-.609.522-.823.712l-.003-.002zM17.23 3.436c0 .418.01.766-.2 1.138-.172.302-.443.488-.744.488-.411 0-.652-.314-.652-.779 0-.914.82-1.08 1.596-1.08v.233zM4.244 6.052c-.07.064-.173.068-.253.025-.357-.296-.421-.433-.616-.715-.589.6-1.006.78-1.769.78C.703 6.142 0 5.584 0 4.469c0-.87.472-1.463 1.145-1.754.582-.255 1.395-.302 2.017-.371v-.14c0-.256.02-.557-.13-.778-.13-.198-.382-.279-.602-.279-.41 0-.774.21-.863.644-.019.097-.09.193-.187.198L.34 1.876c-.088-.02-.185-.09-.16-.224C.416.408 1.527.02 2.537.009h.08c.517.007 1.177.148 1.58.534.521.488.47 1.139.47 1.847v1.672c0 .503.21.724.406.994.068.098.084.214-.003.286-.22.183-.61.522-.823.712l-.003-.002zM3.162 3.436c0 .418.01.766-.2 1.138-.171.302-.442.488-.744.488-.411 0-.652-.314-.652-.779 0-.914.82-1.08 1.596-1.08v.233zM49.342 8.041v-.404c0-.115.056-.195.176-.188.225.032.542.064.767.018.294-.061.505-.27.63-.556.175-.402.292-.726.365-.939L49.048.442c-.038-.094-.05-.268.138-.268h.78c.15 0 .21.094.243.187l1.619 4.492L53.373.361c.032-.092.095-.187.242-.187h.736c.187 0 .176.174.14.268l-2.216 5.703c-.286.76-.668 1.968-1.528 2.178-.43.113-.975.072-1.294-.062-.08-.04-.111-.148-.111-.22zM48.3 5.729c0 .103-.084.187-.187.187h-.55c-.12 0-.2-.086-.216-.187l-.055-.375c-.253.214-.563.402-.9.533-.647.251-1.393.293-2.026-.095-.457-.281-.7-.83-.7-1.396 0-.438.135-.872.434-1.187.4-.431.978-.643 1.677-.643.422 0 1.026.05 1.466.194v-.754c0-.767-.323-1.098-1.174-1.098-.65 0-1.148.098-1.84.313-.11.004-.176-.08-.176-.183v-.43c0-.103.088-.203.184-.233.494-.216 1.195-.35 1.94-.375.97 0 2.124.219 2.124 1.712v4.017zm-1.057-1.101V3.491c-.37-.101-.98-.143-1.217-.143-.374 0-.783.088-.997.318-.16.169-.232.41-.232.645 0 .303.105.606.35.756.284.193.724.17 1.139.052.398-.113.771-.313.957-.491zM40.186.925c1.221 0 1.554.96 1.554 2.06.007.74-.13 1.401-.513 1.78-.287.283-.608.36-1.091.36-.43 0-.996-.224-1.418-.537V1.446c.44-.338 1-.52 1.468-.52zm-1.655 7.314h-.737c-.104 0-.188-.085-.188-.187V.37c0-.103.084-.187.188-.187h.564c.118 0 .2.086.215.187l.059.402c.528-.469 1.209-.77 1.857-.77C42.305.003 42.9 1.5 42.9 3.055c0 1.664-.913 3.001-2.457 3.001-.65 0-1.259-.24-1.726-.657v2.653c0 .102-.084.187-.187.187z" transform="translate(-631 -553) translate(485 551.477) translate(146.355 2)"/>
                </g>
            </g>
        </g>
    </g>
</svg>
