<svg xmlns="http://www.w3.org/2000/svg" width="24" height="24" viewBox="0 0 24 24">
    <g fill="none" fill-rule="evenodd">
        <g>
            <g>
                <g>
                    <path d="M0 0H24V24H0z" transform="translate(-964 -486) translate(948 470) translate(16 16)"/>
                    <path stroke="#3F5BD9" stroke-width="1.653" d="M10.905 18.3c-3.977 0-7.207-3.23-7.207-7.207 0-3.978 3.23-7.207 7.207-7.207 3.978 0 7.207 3.23 7.207 7.207" transform="translate(-964 -486) translate(948 470) translate(16 16)"/>
                    <g stroke="#3F5BD9" stroke-linecap="round" stroke-linejoin="round" transform="translate(-964 -486) translate(948 470) translate(16 16) translate(14.25 13.5)">
                        <rect width="5.25" height="5" y=".556" rx="1"/>
                        <path d="M3.792 0L3.792 1.111M1.458 0L1.458 1.111M0 2.222L5.25 2.222"/>
                    </g>
                    <path stroke="#3F5BD9" stroke-width="1.65" d="M10.905 8.81L10.905 12.054 13.067 13.135" transform="translate(-964 -486) translate(948 470) translate(16 16)"/>
                </g>
            </g>
        </g>
    </g>
</svg>
