<svg width="40" height="40" xmlns="http://www.w3.org/2000/svg">
    <g fill="none" fill-rule="evenodd">
        <rect width="40" height="40" rx="20" fill="#CACBCE"/>
        <path d="M12 12h16v16H12z"/>
        <path d="M24.27 16.014h-1.06c-.07-.606-.285-1.174-.625-1.614h1.685c.403 0 .73-.297.73-.695 0-.399-.327-.704-.73-.704h-5.712L18.495 13H15.73c-.403 0-.73.307-.73.705 0 .398.327.695.73.695h3.239c1.022.074 2.094.464 2.376 1.614H15.73a.726.726 0 0 0-.73.721c0 .399.327.721.73.721h5.542c-.345.91-1.292 1.464-2.608 1.464h-2.303a.708.708 0 0 0-.713.703c0 .388.32.703.713.703h.836l.01.002h1.322c1.436.054 2.074.668 2.44 2.35.287 1.249.498 2.062.664 2.55.124.45.37 1.13.797 1.535a.865.865 0 0 0 .597.237.864.864 0 0 0 .62-.26.839.839 0 0 0 .031-1.138c0-.004 0-.008-.002-.012-.262-.48-.58-1.766-.966-3.398-.307-1.327-.881-2.153-1.751-2.52 1.092-.414 1.844-1.206 2.138-2.216h1.173c.403 0 .73-.323.73-.72a.725.725 0 0 0-.73-.722z" fill="#FFF" fill-rule="nonzero"/>
    </g>
</svg>
