<svg width="69" height="36" viewBox="0 0 69 36" xmlns="http://www.w3.org/2000/svg" xmlns:xlink="http://www.w3.org/1999/xlink">
    <defs>
        <linearGradient x1="50%" y1="19.711%" x2="50%" y2="122.503%" id="c">
            <stop stop-color="#FFEAE9" offset="0%"/>
            <stop stop-color="#FFF" stop-opacity="0" offset="100%"/>
        </linearGradient>
        <path id="a" d="M0 0h69v36H0z"/>
    </defs>
    <g fill="none" fill-rule="evenodd">
        <mask id="b" fill="#fff">
            <use xlink:href="#a"/>
        </mask>
        <use fill="#FFF" transform="matrix(-1 0 0 1 69 0)" xlink:href="#a"/>
        <g mask="url(#b)" fill-rule="nonzero">
            <path fill="url(#c)" transform="matrix(-1 0 0 1 67 5.267)" d="M139 30.733H0l.131-12.088 1.993-2.887 2.664-4.228H6.27l1.286 6.546 3.799-2.318 1.664-4.228 1.482.544 1.976-6.533h1.976l2.14-5.445h1.976l1.685 3.81h1.937l2.305 3.268h2.14l1.944-4.472h2.733l1.84 5.016 3.032-.544 3.128.998 1.361 3.68h4.333l1.046-2.863 2.806-2.573 2.687 3.805 1.765-7.519h2.212l1.735-1.79h1.695l3.244 1.27 2.305-1.27 1.63 1.79h2.736l2.985-1.79 1.397 1.79h3.218l2.369 1.205 1.037 3.267 3.086-2.36 1.792 2.904V2.702h6.758l3 7.375h1.407l1.735-4.537 3.853 10.218h2.377l2.088 2.078 2.583 2.314 1.998-5.808h1.201l1.69 2.723 3.423-1.307 3.42 2.078 2.984-2.078.182 12.287h2.856l3.225-6.17h2.964L139 18.218z"/>
            <path stroke="#EF5854" stroke-width="2" d="m66.869 23.912-1.996-3.104-2.666-4.195-1.977-.579-.794 7.075-3.802-2.301-1.667-4.195-1.483.54-1.978-6.483h-1.978l-2.142-5.403H44.41L42.722 9.05h-1.939l-2.307 3.242h-2.142l-1.946-4.437h-2.736l-1.842 4.977-3.034-.54-3.131.99-1.363 3.652h-4.337l-1.047-2.842-2.809-2.552-2.689 3.775-1.767-7.46H7.42L5.683 6.077H3.986L.739 7.338l-2.307-1.26-1.631 1.776h-2.74l-2.987-1.777-1.399 1.777h-3.22l-2.372 1.195-1.038 3.242-3.09-2.341-1.793 2.88V7.855h-6.764l-3.002 7.318h-1.41l-1.736-4.502-3.857 10.138h-2.379l-2.09 2.062-2.585 2.297-2-5.763h-1.203l-1.692 2.702-3.426-1.298-3.423 2.062-2.987-2.062L-60.574 33h-2.858l-3.228-6.123h-2.967L-72 23.444"/>
        </g>
    </g>
</svg>
