<svg width="229" height="230" xmlns="http://www.w3.org/2000/svg">
    <g fill="none" fill-rule="evenodd">
        <path d="M.073 0h228.571v230H.073z"/>
        <path d="M7.777 57.4a3.498 3.498 0 0 1 2.943 2.213 3.535 3.535 0 0 1-.657 3.638c-1.897 1.828-5.934.35-5.694-2.718a3.476 3.476 0 0 1 3.285-3.132l.123-.002zm-.074.848c-2.166.041-3.572 3.78-.952 4.887.95.41 2.052.198 2.786-.535a2.56 2.56 0 0 0 .543-2.8 2.53 2.53 0 0 0-2.377-1.552z" fill="#597AFA" fill-rule="nonzero"/>
        <path d="M219.691 45.623c2.572.05 4.465 3.765 2.286 5.854-1.966 1.883-6.266.177-5.643-3.1a3.412 3.412 0 0 1 3.357-2.754zm-.074.849a2.61 2.61 0 0 0-2.093 1.308 2.648 2.648 0 0 0-.085 2.478c1.077 1.94 5.174 1.407 4.714-1.629a2.605 2.605 0 0 0-2.536-2.156v-.002z" fill="#F37B90" fill-rule="nonzero"/>
        <ellipse cx="2.021" cy="2.034" rx="2.021" ry="2.034" transform="translate(5.714 206.03)" fill="#597AFA" fill-rule="nonzero"/>
        <path d="M7.76 205.606c2.121.04 3.456 3.64.92 4.722a2.43 2.43 0 0 1-2.64-.489 2.47 2.47 0 0 1-.6-2.633 2.442 2.442 0 0 1 2.164-1.597l.156-.003zm-.051.848c-1.412.027-2.162 2.428-.603 3.092 1.405.6 3.193-1.91 1.384-2.898a1.61 1.61 0 0 0-.776-.194H7.71z"/>
        <ellipse cx="2.021" cy="2.034" rx="2.021" ry="2.034" transform="translate(212.709 146.708)" fill="#597AFA" fill-rule="nonzero"/>
        <path d="M214.757 146.284a2.448 2.448 0 0 1 2.363 2.494 2.449 2.449 0 0 1-2.44 2.418 2.451 2.451 0 0 1-2.443-2.418 2.453 2.453 0 0 1 2.366-2.494h.156-.002zm-.051.848a1.651 1.651 0 0 0-1.425 1.307 1.662 1.662 0 0 0 .788 1.77c1.402.638 3.262-1.87 1.42-2.882a1.617 1.617 0 0 0-.779-.195h-.004z"/>
        <path d="M53.029 119.389a5.52 5.52 0 0 0-1.562.224l-22.953 6.737h174l-22.118-6.721a5.547 5.547 0 0 0-1.609-.239L53.03 119.39z" fill="#E1E6FF" fill-rule="nonzero"/>
        <path d="M178.837 119.177a5.88 5.88 0 0 1 1.572.233l.052.016 22.12 6.722.153.191-.128.207-.089.017h-174l-.193-.144.062-.235.075-.04c7.682-2.256 15.335-4.6 23.045-6.765.463-.125.94-.194 1.42-.205 41.963-.559 83.94-.198 125.911.003zm-125.811.424a5.518 5.518 0 0 0-1.502.216l-21.528 6.325h171.091c-6.944-2.112-13.87-4.312-20.848-6.335a5.461 5.461 0 0 0-1.353-.201c-41.949-.582-83.91-.005-125.862-.005h.002z" fill="#B3BFED" fill-rule="nonzero"/>
        <path d="m202.516 125.998-174.157-.089.083 84.02a7.346 7.346 0 0 0 2.137 5.175 7.254 7.254 0 0 0 5.148 2.138l159.6-.16a7.257 7.257 0 0 0 5.149-2.152 7.349 7.349 0 0 0 2.129-5.186l-.089-83.746z" fill="#FFF" fill-rule="nonzero"/>
        <path d="M202.514 125.787a.245.245 0 0 1 .208.21l.083 83.754c-.096 4.082-3.333 7.386-7.388 7.544-53.231.38-106.463.106-159.697.159-4.13.003-7.482-3.364-7.486-7.52l-.084-84.024.129-.196.08-.017 174.157.09h-.002zM28.652 209.934c.104 3.847 3.159 6.952 6.98 7.094 53.23.291 106.462-.105 159.693-.158 3.867-.093 6.977-3.23 7.062-7.12l-.084-83.54-173.724-.082c.018 27.93.046 55.867.073 83.806z" fill="#597AFA" fill-rule="nonzero"/>
        <path d="M180.184 191.777a2.068 2.068 0 0 0-2.061-2.074H137.36a2.068 2.068 0 0 0-2.061 2.074v14.195c0 1.146.923 2.075 2.061 2.075h40.762a2.068 2.068 0 0 0 2.061-2.075v-14.195z" fill="#DEE4FF" fill-rule="nonzero"/>
        <path d="M178.14 189.49a2.364 2.364 0 0 1 2.243 2.257c.05 4.76.05 9.522 0 14.284a2.36 2.36 0 0 1-2.213 2.228c-13.619.265-27.246.265-40.879 0a2.36 2.36 0 0 1-2.214-2.255 680.17 680.17 0 0 1 0-14.285 2.359 2.359 0 0 1 2.242-2.228c13.607-.092 27.214-.092 40.821-.001zm-40.79.422c-1 .032-1.809.831-1.857 1.838-.05 4.756-.05 9.513 0 14.271a1.922 1.922 0 0 0 1.826 1.813c13.611.09 27.224.263 40.832 0a1.922 1.922 0 0 0 1.803-1.836c.05-4.757.05-9.513 0-14.271a1.922 1.922 0 0 0-1.825-1.813c-13.589-.09-27.185-.002-40.779-.002z" fill="#F9FAFF" fill-rule="nonzero"/>
        <path d="M179.284 140.217a1.49 1.49 0 0 1 1.407 1.416c.025 2.857.025 5.715 0 8.573a1.502 1.502 0 0 1-1.407 1.416c-6.294.079-12.59.079-18.885 0a1.5 1.5 0 0 1-1.408-1.416 259.868 259.868 0 0 1 0-8.573 1.502 1.502 0 0 1 1.408-1.416c6.295-.08 12.59-.08 18.885 0zm-18.847.43a1.062 1.062 0 0 0-1.024 1.007 258.65 258.65 0 0 0 0 8.553c.028.544.46.978 1 1.007 6.286.079 12.571.079 18.857 0a1.06 1.06 0 0 0 1-1.007c.024-2.85.024-5.702 0-8.553a1.06 1.06 0 0 0-1-1.006c-6.274-.086-12.554-.007-18.833-.007v.007z" fill="#E1E6FF" fill-rule="nonzero"/>
        <path d="m102.419 126.603-.249 81.308 10.183-26.694.246-54.614z" fill="#F7F8FF" fill-opacity=".6" fill-rule="nonzero"/>
        <path d="M112.847 125.13c.349.018.678.165.923.413a1.8 1.8 0 0 1 .575 1.27l-.256 43.04c-.002.25-.06.498-.17.723l-10.245 21.039c-.377.661-1.146 1-1.892.828a1.723 1.723 0 0 1-1.332-1.57l.248-64.078a1.795 1.795 0 0 1 1.698-1.68h10.245l.206.013v.001zm-10.45 1.673-.251 64.078 10.246-21.039.25-43.04-10.246.001z"/>
        <path d="M52.887 162.51H38.744a.994.994 0 0 1-.991-.998c0-.55.443-.998.991-.998h14.143c.547 0 .992.446.992.998 0 .55-.443.997-.992.997zM79.56 169.912H38.351a.994.994 0 0 1-.991-.997c0-.55.443-.998.991-.998H79.56c.547 0 .991.446.991.998 0 .55-.442.998-.991.998zM72.609 177.313H38.466a.994.994 0 0 1-.992-.998c0-.55.443-.998.992-.998h34.143c.547 0 .991.446.991.998 0 .55-.443.998-.991.998z" fill="#DAE9F4" fill-rule="nonzero"/>
        <g fill-rule="nonzero">
            <path d="M50.229 148.116a5.719 5.719 0 0 1-5.105 3.803 5.712 5.712 0 0 1-5.444-3.292 5.778 5.778 0 0 1 .943-6.322 5.69 5.69 0 0 1 6.166-1.538c2.964 1.077 4.502 4.364 3.44 7.349z" fill="#63E299"/>
            <path d="m41.631 146.378 2 2.058a.605.605 0 0 0 .91.043l3.445-3.248a.613.613 0 0 0-.016-.863.604.604 0 0 0-.859.016l-2.962 2.746-1.572-1.513a.603.603 0 0 0-.571-.247.604.604 0 0 0-.489.388.615.615 0 0 0 .11.618l.004.002z" fill="#FFF"/>
        </g>
        <path d="M102.127 126.606h1.429v81.784h-1.429zM111.836 126.603h1.428v52.367h-1.428z" fill="#EEF0FF" fill-rule="nonzero"/>
        <path d="M69.643 121.181c1.061.452-.156 1.173-.874 1.905-.46.469-1.143 0-.24-.975.285-.319.681-.789.681-.789.074-.057.099-.181.433-.14zm2.757-4.268c.679.348-.08 1.24-.571 2.083 0 0-1.396.758-.526-.776.247-.44.583-1.097.583-1.097a.477.477 0 0 1 .521-.211l-.007.001zm1.876-4.71c.7.235.124 1.173-.203 2.04a.43.43 0 0 1-.299.372c-.33.12-.794.144-.373-.983l.455-1.255c.215-.23.301-.182.428-.176l-.008.002zm1.391-4.888c.536.288.276.441.199.81l-.21.93c-.202.845-1.177 1.293-.823-.197l.317-1.345a.475.475 0 0 1 .524-.205l-.007.007zm.732-5.041c.795.329.272 2.071.017 2.372a.49.49 0 0 1-.092.08c-.351.232-.68-.088-.544-1.237.05-.409.126-.964.126-.964a.466.466 0 0 1 .5-.258l-.007.007zm.317-5.057c.394.253.248.2.247.736 0 .575-.023 1.36-.023 1.36-.177 1.02-.857.358-.833-.399l.029-1.43a.427.427 0 0 1 .587-.275l-.007.008zm-11.336-.575c.623.041 1.544.07 1.544.07.496.084.899.878-.387.838a27.3 27.3 0 0 1-1.041-.052c-.567-.041-1.112-.937-.109-.862l-.007.006zm6.65-.187c.211.066.249.13.286.195.158.262.33.575-.707.693-.536.06-1.298.124-1.298.124-.221-.015-.275-.068-.33-.122-.265-.263-.264-.676.675-.758a58.751 58.751 0 0 0 1.247-.135l.127.003zm-11.673-.634.322.083c.522.128 1.294.288 1.294.288.311.108.3.198.333.315.143.62-1.143.405-2.143.143a.449.449 0 0 1-.324-.342c-.045-.236.022-.537.518-.487zm16.689-.374c.198.095.231.164.26.234.25.555-.872.762-1.9 1.007 0 0-.402.027-.512-.258-.193-.514 1.02-.726 1.913-.98a.83.83 0 0 1 .239.003v-.006zM55.643 93.98c.543.228 1.074.486 1.59.774.187.116.211.188.236.261.108.356-.102.735-.928.356-.49-.23-1.194-.607-1.194-.607-.58-.441-.174-.82.296-.784zm26.158-.33c.715.431.068.756-.371.967-.286.144-.59.276-.889.407-.62.269-1.525-.247-.042-.907.56-.254 1.185-.496 1.185-.496l.117.029zm-5.428-1.534c.556.269.396 1.197.46 2.046a.535.535 0 0 1-.213.418c-.511.287-.664-.943-.791-2.003-.009-.002.03-.546.535-.462l.009.001zM51.779 90.79c.487.24.822.862 1.31 1.318 0 0 .272.407-.015.644-.428.353-1.114-.522-1.705-1.236.001.005-.413-.87.41-.726zm34.214.03c.6.372.143.684-.212.995-.397.343-1.012.807-1.012.807-.448.238-1.209-.132-.195-.914.457-.355 1.072-.881 1.072-.881.127-.037.06-.083.347-.003v-.004zM75.369 87.1c.571.188.55 1.15.724 1.955 0 0 .021.408-.263.511-.529.196-.664-.888-.93-1.893 0 .003-.073-.585.469-.57V87.1zm13.714-.288c.623.385-.117 1.127-.654 1.96 0 0-.655.566-.819-.02-.143-.492.524-1.08.939-1.756a.459.459 0 0 1 .522-.181l.012-.003zm-39.714-.507c.312.094.381.655.904 1.838 0 0 .08.38-.162.532-.491.31-.911-.816-1.201-1.797-.003.002-.079-.575.456-.572l.003-.001zm24.347-3.98c.271.121.615.992.911 1.752 0 0-.27 1.58-.904 0-.199-.492-.506-1.172-.506-1.172-.164-.53.216-.618.494-.58h.005zm17.817.04c.654.346-.029 1.112-.533 2.044 0 0-1.103.549-.77-.348l.33-.613c.219-.414.53-.976.53-.976.239-.19.313-.13.439-.105l.004-.001zM49.104 81.28c.533.249.18 1.159.166 2.072 0 0-.903 1.267-.836-.358.035-.828-.135-1.835.669-1.712l.001-.002zm22-3.282c.36.184.319.288.429.432.338.442.784 1.104.784 1.104.066.103.086.23.053.347-.133.482-.639.174-1.694-1.178-.01.005-.379-.85.421-.706l.007.001zm22.645-.205c.682.32 0 1.16-.405 2a.39.39 0 0 1-.328.349.436.436 0 0 1-.49-.594l.338-.719.383-.813c.102-.173.3-.26.494-.222l.008-.001zM50.903 76.57c1.028.333.017.929-.536 2.073a.555.555 0 0 1-.388.238c-.706-.018.135-1.844.585-2.22a.38.38 0 0 1 .333-.09l.006-.001zm16.521-2.041c.752.373 1.626.999 1.627 1.427 0 .552-.512.35-2-.674-.002.001-.491-.903.366-.752l.007-.001zm28.377-1.386c.572.249.093 1.006-.184 1.646l-.213.49c-.177.287-.26.25-.381.253a.442.442 0 0 1-.389-.597l.387-.887c.143-.332.349-.767.349-.767.223-.209.301-.153.426-.137l.005-.001zm-41.111.056c.196.108.219.178.249.25.1.288.227.194-.918.953-.642.431-1 .785-1.257.33-.285-.508.792-1.075 1.56-1.501-.007.002.033-.102.359-.03l.007-.002zm8.143-.814c.66.18 1.571.528 1.571.528.667.267.513 1.08-.801.605-.39-.144-.986-.313-.986-.313-.201-.09-.234-.157-.267-.226-.136-.257-.059-.657.477-.59l.006-.004zm-3.329-.448c.303.135.286.224.305.342.088.597-1.209.5-2 .628 0 0-.405.01-.502-.287-.187-.584 1.013-.688 2.046-.705.004.009.083.016.147.025l.004-.003zm38.247-3.493c.833.345-.165 2.09-.505 2.328a.414.414 0 0 1-.11.055c-.286.098-.645-.078-.519-.566.334-.814.703-1.67.703-1.67.057-.057.081-.179.427-.143l.004-.004zm1.915-4.712c.68.304.373.32.064 1.06l-.429 1.076c-.227.395-.941.355-.784-.317.264-.65.647-1.58.647-1.58.1-.178.3-.273.499-.235l.003-.004zm2.428-4.477c.657.39-.153 1.213-.63 2.07a.383.383 0 0 1-.403.217c-.821-.064.276-2.215.795-2.311a.586.586 0 0 1 .228.029l.01-.005zm2.605-4.334c1.028.33-.026 1.1-.645 2.067 0 0-.064.24-.413.19-.571-.082.013-1.137.572-1.975-.012.004-.022-.288.476-.278l.01-.004zm47.074-2.704s.628.489 1.277 1.03c.183.06.3.238.286.43a.44.44 0 0 1-.694.335l-1.382-1.16c-.26-.518.007-.761.503-.63l.01-.005zm-44.019-1.373c.643.288-.245 1.21-.818 1.965 0 0-1.495.552-.422-.836.316-.408.802-.995.802-.995.055-.055.085-.175.428-.13l.01-.004zm39.97-1.725s.796.548 1.472 1.054c0 0 .56 1.474-.869.407-.408-.302-.983-.719-.983-.719-.535-.493-.087-.825.372-.736l.008-.006zm-36.263-1.703c.732.273.228.706-.064.929l-.286.222c-.377.3-.887.71-.887.71-.473.134-.958-.287-.071-1.023.243-.197.486-.388.728-.575a.713.713 0 0 1 .572-.257l.008-.006zm31.952-1.036 1.583.907c.91.757-.247.833-1.043.36-.394-.232-.933-.556-.933-.556-.351-.461-.127-.746.384-.706l.009-.005zm-27.556-1.582c.906.575-.273.877-1.386 1.5a.577.577 0 0 1-.421.071c-.329-.117-.714-.416.324-.986.45-.245 1.13-.575 1.13-.575.123-.037.052-.082.343-.003l.01-.007zm23.013-.523a4.18 4.18 0 0 1 1.691.694c.376.31.112.935-1 .48l-1.082-.43c-.528-.508-.079-.833.381-.737l.01-.007zm-18.286-1.177c.195.102.223.172.252.244.193.486-.976.727-1.865 1.006 0 0-1.514-.43.096-.915.636-.189 1.402-.357 1.402-.357l.115.022zm13.333-.157c.679.125 1.673.352 1.673.352.966.384.179.909-.571.735-.572-.125-1.36-.288-1.36-.288-.609-.414-.218-.81.251-.79l.007-.009zm-8.371-.564c.925.371.157.823-.303.849-.646.04-1.552.115-1.552.115-.455-.154-.657-.78.542-.892.484-.044 1.194-.084 1.194-.084l.119.012zm3.455 0c.632.035 1.538.111 1.538.111.498.12.918.925-.553.804l-1.307-.098c-.195-.102-.223-.172-.252-.244-.113-.266-.07-.604.569-.567l.005-.006z" fill="#C5CAE0" fill-rule="nonzero"/>
        <path d="M163.647 66.36a.65.65 0 0 0 .046-.706L152.72 46.318a.639.639 0 0 0-1.162.12l-2.776 8.625-7.483 5.04a.646.646 0 0 0-.277.624v.023c.043.25.23.452.476.513l21.482 5.34a.637.637 0 0 0 .666-.242zm-20.428-6.004 6.087-4.1 10.967 8.338-17.054-4.238z" fill="#597AFA" fill-rule="nonzero"/>
    </g>
</svg>
