<svg width="160" height="160" xmlns="http://www.w3.org/2000/svg">
    <g fill="none" fill-rule="evenodd">
        <path d="M0 0h160v160H0z"/>
        <path d="M5.393 39.93a2.444 2.444 0 0 1 1.6 4.071c-1.328 1.271-4.154.243-3.986-1.891a2.427 2.427 0 0 1 2.3-2.179l.086-.001zm-.052.59c-1.516.029-2.5 2.63-.666 3.4a1.772 1.772 0 1 0 .666-3.4z" fill="#597AFA"/>
        <path d="M153.733 31.738c1.8.034 3.125 2.619 1.6 4.072-1.376 1.31-4.386.123-3.95-2.156a2.384 2.384 0 0 1 2.35-1.916zm-.052.59a1.832 1.832 0 0 0-1.525 2.634c.754 1.35 3.622.979 3.3-1.133a1.819 1.819 0 0 0-1.775-1.5v-.001z" fill="#F37B90"/>
        <circle cx="1.415" cy="1.415" r="1.415" transform="translate(3.949 143.325)" fill="#597AFA" fill-rule="nonzero"/>
        <path d="M5.381 143.03c1.485.028 2.419 2.533.644 3.285a1.71 1.71 0 1 1-.753-3.283l.109-.002zm-.036.59c-.988.019-1.513 1.689-.422 2.151.984.417 2.235-1.328.969-2.016a1.131 1.131 0 0 0-.543-.135h-.004z"/>
        <circle cx="1.415" cy="1.415" r="1.415" transform="translate(148.845 102.058)" fill="#597AFA" fill-rule="nonzero"/>
        <path d="M150.279 101.763a1.709 1.709 0 1 1-.109 0h.109zm-.036.59a1.151 1.151 0 0 0-.446 2.14c.982.444 2.284-1.3.994-2.005a1.133 1.133 0 0 0-.545-.135h-.003z"/>
        <path d="M37.069 83.053a3.9 3.9 0 0 0-1.093.156l-16.067 4.687h121.8l-15.483-4.676a3.888 3.888 0 0 0-1.126-.166l-88.031-.001z" fill="#E1E6FF"/>
        <path d="M125.135 82.906c.372.004.742.059 1.1.162l.037.011 15.484 4.676.107.133-.09.144-.062.012h-121.8l-.135-.1.043-.164.053-.028c5.377-1.569 10.734-3.2 16.131-4.706a4.2 4.2 0 0 1 .994-.142c29.374-.389 58.758-.138 88.138.002zm-88.068.295c-.356.002-.71.052-1.051.15l-15.07 4.4H140.71c-4.861-1.469-9.709-3-14.594-4.407a3.886 3.886 0 0 0-.947-.14c-29.364-.405-58.737-.003-88.103-.003h.001z" fill="#B3BFED"/>
        <path d="m141.802 88.079-121.909-.183v58.449a5.092 5.092 0 0 0 5.094 5.092h111.72a5.1 5.1 0 0 0 5.1-5.1l-.005-58.258z" fill="#FFF"/>
        <path d="M141.801 87.931a.172.172 0 0 1 .145.147v58.263a5.381 5.381 0 0 1-5.177 5.243c-37.262.228-74.524 0-111.788 0a5.237 5.237 0 0 1-5.235-5.236V87.896l.09-.136.056-.012 121.909.183zM20.039 146.348a5.078 5.078 0 0 0 4.881 4.94c37.261.239 74.523 0 111.785 0a5.066 5.066 0 0 0 4.948-4.948V88.225l-121.607-.177c-.006 19.43-.007 38.864-.007 58.3z" fill="#597AFA"/>
        <path d="M126.078 133.41c0-.797-.646-1.443-1.443-1.443H96.102c-.797 0-1.443.646-1.443 1.443v9.875c0 .797.646 1.443 1.443 1.443h28.533c.797 0 1.443-.646 1.443-1.443v-9.875z" fill="#DEE4FF"/>
        <path d="M124.647 131.819c.85.04 1.53.72 1.57 1.57.035 3.312.035 6.624 0 9.937a1.647 1.647 0 0 1-1.549 1.55c-9.533.184-19.072.184-28.615 0a1.646 1.646 0 0 1-1.55-1.569 474.744 474.744 0 0 1 0-9.937 1.646 1.646 0 0 1 1.569-1.55c9.525-.064 19.05-.064 28.575-.001zm-28.553.294c-.7.022-1.266.578-1.3 1.278a473.884 473.884 0 0 0 0 9.928c.04.685.592 1.23 1.278 1.261 9.528.063 19.057.183 28.583 0a1.341 1.341 0 0 0 1.262-1.277c.035-3.309.035-6.618 0-9.928a1.342 1.342 0 0 0-1.278-1.261c-9.512-.063-19.029-.001-28.545-.001z" fill="#F9FAFF"/>
        <path d="M125.448 97.542c.532.027.958.453.985.985.017 1.988.017 3.976 0 5.964-.031.53-.454.954-.985.985-4.406.055-8.813.055-13.22 0a1.047 1.047 0 0 1-.985-.985 177.859 177.859 0 0 1 0-5.964c.031-.53.454-.954.985-.985 4.407-.055 8.813-.055 13.22 0zm-13.193.3a.741.741 0 0 0-.717.7 177.025 177.025 0 0 0 0 5.95c.02.378.322.68.7.7 4.4.055 8.8.055 13.2 0a.742.742 0 0 0 .7-.7 354.03 354.03 0 0 0 0-5.95.742.742 0 0 0-.7-.7c-4.392-.06-8.788-.005-13.183-.005v.005z" fill="#E1E6FF"/>
        <path d="m71.642 88.072-.174 56.562 7.128-18.57.172-37.992z" fill="#F7F8FF" fill-opacity=".6"/>
        <path d="M78.918 86.9a.97.97 0 0 1 .642.29c.247.23.39.55.4.888l-.178 30.128a1.19 1.19 0 0 1-.118.507l-7.127 14.727a1.2 1.2 0 0 1-2.243-.519l.173-44.854a1.252 1.252 0 0 1 1.181-1.176h7.127l.143.009zm-7.27 1.172-.174 44.854 7.128-14.727.173-30.128-7.127.001z"/>
        <path d="M36.97 113.05h-9.9a.694.694 0 1 1 0-1.388h9.9a.694.694 0 0 1 0 1.388zM55.641 118.2H26.795a.694.694 0 0 1 0-1.388h28.846a.694.694 0 0 1 0 1.388zM50.775 123.348h-23.9a.694.694 0 1 1 0-1.388h23.9a.694.694 0 0 1 0 1.388z" fill="#DAE9F4" fill-rule="nonzero"/>
        <g fill-rule="nonzero">
            <path d="M35.109 103.037a4 4 0 1 1-7.531-2.699 4 4 0 0 1 7.531 2.699z" fill="#63E299"/>
            <path d="m29.091 101.828 1.4 1.432a.424.424 0 0 0 .637.03l2.411-2.26a.425.425 0 0 0-.612-.589l-2.074 1.91-1.1-1.052a.425.425 0 1 0-.665.528l.003.001z" fill="#FFF"/>
        </g>
        <path d="M71.438 88.074h.59v56.893h-.59zM78.234 88.072h.59v36.429h-.59z" fill="#EEF0FF" fill-rule="nonzero"/>
        <path d="M48.699 84.3c.743.314-.109.816-.612 1.325-.322.326-.8 0-.168-.678.2-.222.477-.549.477-.549.052-.04.069-.126.303-.098zm1.93-2.969c.475.242-.056.863-.4 1.449 0 0-.977.527-.368-.54.173-.306.408-.763.408-.763a.334.334 0 0 1 .365-.147l-.005.001zm1.313-3.277c.49.164.087.816-.142 1.419a.3.3 0 0 1-.209.259c-.231.083-.556.1-.261-.684l.318-.873c.151-.16.211-.126.3-.122l-.006.001zm.974-3.4c.375.2.193.307.139.563l-.147.647c-.141.588-.824.9-.576-.137l.222-.935a.332.332 0 0 1 .367-.143l-.005.005zm.512-3.507c.557.229.191 1.441.012 1.65a.318.318 0 0 1-.064.056c-.246.161-.476-.061-.381-.861.035-.284.088-.67.088-.67a.327.327 0 0 1 .35-.18l-.005.005zm.222-3.518c.276.176.174.14.173.512 0 .4-.016.946-.016.946-.124.71-.6.249-.583-.277l.02-.995a.3.3 0 0 1 .411-.191l-.005.005zm-7.935-.4c.436.029 1.081.049 1.081.049.347.058.629.611-.271.583a19.229 19.229 0 0 1-.729-.036c-.397-.029-.778-.652-.076-.6l-.005.004zm4.655-.13c.148.046.174.091.2.136.111.182.231.4-.495.482-.375.042-.908.086-.908.086-.155-.01-.193-.047-.231-.085-.186-.183-.185-.47.472-.527.359-.033.873-.094.873-.094l.089.002zm-8.171-.441.225.058c.366.089.906.2.906.2.218.075.21.138.233.219.1.432-.8.282-1.5.1a.313.313 0 0 1-.227-.238c-.031-.164.016-.374.363-.339zm11.682-.26c.139.066.162.114.182.163.175.386-.61.53-1.33.7 0 0-.281.019-.358-.179-.135-.358.714-.505 1.339-.682a.594.594 0 0 1 .167.002v-.004zm-14.982-1.021c.38.158.752.338 1.113.538.131.081.148.131.165.182.076.247-.071.511-.649.247-.343-.159-.836-.422-.836-.422-.406-.307-.122-.571.207-.545zm18.311-.23c.5.3.047.526-.26.673-.2.1-.413.192-.622.283-.434.187-1.068-.172-.03-.631.392-.177.83-.345.83-.345l.082.02zm-3.8-1.067c.389.187.277.833.322 1.423a.372.372 0 0 1-.149.291c-.358.2-.465-.656-.554-1.393-.006-.002.021-.38.375-.322l.006.001zm-17.216-.922c.341.167.576.6.917.917 0 0 .191.283-.01.448-.3.246-.78-.363-1.194-.86.001.004-.289-.605.287-.505zm23.95.021c.42.259.1.476-.148.692a16.96 16.96 0 0 1-.709.562c-.313.165-.846-.092-.136-.636.32-.247.75-.613.75-.613.089-.026.042-.058.243-.002v-.003zm-7.437-2.588c.4.131.385.8.507 1.36 0 0 .015.284-.184.356-.37.136-.465-.618-.651-1.317 0 .002-.051-.407.328-.397v-.002zm9.6-.2c.436.268-.082.784-.458 1.363 0 0-.458.394-.573-.014-.1-.342.367-.751.657-1.221.08-.119.23-.17.366-.126l.008-.002zm-27.8-.353c.219.066.267.456.633 1.279 0 0 .056.264-.113.37-.344.216-.638-.568-.841-1.25-.002.001-.055-.4.319-.398l.002-.001zm17.043-2.769c.19.085.431.691.638 1.219 0 0-.189 1.1-.633 0-.139-.342-.354-.815-.354-.815-.115-.368.151-.43.346-.403l.003-.001zm12.472.029c.458.24-.02.773-.373 1.421 0 0-.772.382-.539-.242l.231-.426c.153-.288.371-.679.371-.679.167-.133.219-.091.307-.073l.003-.001zm-29.7-.756c.373.173.126.806.116 1.441 0 0-.632.882-.585-.249.024-.576-.095-1.276.468-1.191l.001-.001zm15.4-2.283c.252.128.223.2.3.3.237.308.549.768.549.768a.3.3 0 0 1 .037.242c-.093.335-.447.121-1.186-.82-.007.004-.265-.591.295-.491l.005.001zm15.851-.143c.478.223 0 .807-.283 1.391a.271.271 0 0 1-.23.243.305.305 0 0 1-.343-.413l.237-.5.268-.566a.328.328 0 0 1 .346-.154l.005-.001zm-29.992-.85c.72.232.012.646-.375 1.442a.389.389 0 0 1-.272.166c-.494-.013.095-1.283.41-1.544a.264.264 0 0 1 .233-.063l.004-.001zm11.565-1.42c.526.26 1.138.695 1.139.993 0 .384-.359.244-1.4-.469-.002.001-.344-.628.256-.523l.005-.001zm19.864-.964c.4.173.065.7-.129 1.145l-.149.341c-.124.2-.182.174-.267.176a.306.306 0 0 1-.272-.415l.271-.617c.1-.231.244-.534.244-.534.156-.145.211-.106.298-.095l.004-.001zm-28.778.039c.137.075.153.124.174.174.07.2.159.135-.642.663-.45.3-.7.546-.88.229-.2-.353.554-.747 1.092-1.044-.005.002.023-.071.251-.02l.005-.002zm5.7-.566c.462.125 1.1.367 1.1.367.467.186.359.751-.561.421-.273-.1-.69-.218-.69-.218-.141-.062-.164-.109-.187-.157-.095-.179-.041-.457.334-.41l.004-.003zm-2.33-.312c.212.094.2.156.213.238.062.415-.846.348-1.4.437 0 0-.283.007-.351-.2-.131-.406.709-.478 1.432-.49.003.006.058.011.103.017l.003-.002zm26.773-2.43c.583.24-.116 1.454-.354 1.62a.3.3 0 0 1-.077.038c-.2.068-.451-.054-.363-.394.234-.566.492-1.162.492-1.162.04-.039.057-.124.299-.099l.003-.003zm1.34-3.278c.476.212.261.223.045.738-.148.366-.3.748-.3.748-.159.275-.659.247-.549-.22.185-.453.453-1.1.453-1.1a.331.331 0 0 1 .349-.163l.002-.003zm1.7-3.114c.46.271-.107.844-.441 1.44a.268.268 0 0 1-.282.151c-.575-.045.193-1.541.556-1.608a.406.406 0 0 1 .16.02l.007-.003zm1.823-3.015c.72.229-.018.765-.451 1.438 0 0-.045.167-.289.132-.4-.057.009-.791.4-1.374-.008.003-.015-.2.333-.193l.007-.003zm32.952-1.881s.44.34.894.716c.128.042.21.166.2.3a.308.308 0 0 1-.486.233l-.967-.808c-.182-.36.005-.529.352-.438l.007-.003zm-30.813-.955c.45.2-.172.842-.573 1.367 0 0-1.046.384-.295-.582.221-.284.561-.692.561-.692.039-.038.06-.122.3-.09l.007-.003zm27.979-1.2s.557.381 1.03.733c0 0 .392 1.025-.608.283-.286-.21-.688-.5-.688-.5-.375-.343-.061-.574.26-.512l.006-.004zm-25.384-1.185c.512.19.159.491-.045.646l-.2.155c-.264.208-.621.494-.621.494-.331.093-.671-.2-.05-.712.17-.137.34-.27.51-.4a.5.5 0 0 1 .4-.179l.006-.004zm22.366-.721 1.108.631c.637.527-.173.58-.73.251-.276-.162-.653-.387-.653-.387-.246-.321-.089-.519.269-.491l.006-.004zm-19.289-1.1c.634.4-.191.61-.97 1.043a.407.407 0 0 1-.295.05c-.23-.082-.5-.29.227-.686.315-.171.791-.4.791-.4.086-.026.036-.057.24-.002l.007-.005zm16.109-.364c.425.072.83.237 1.184.483.263.215.078.65-.7.334l-.758-.3c-.369-.353-.055-.579.267-.512l.007-.005zm-12.8-.819c.136.071.156.12.176.17.135.338-.683.506-1.305.7 0 0-1.06-.3.067-.637.445-.131.981-.248.981-.248l.081.015zm9.333-.109c.475.087 1.171.245 1.171.245.676.267.125.632-.4.511-.4-.087-.952-.2-.952-.2-.426-.288-.152-.563.176-.55l.005-.006zm-5.86-.392c.648.258.11.572-.212.59-.452.028-1.086.08-1.086.08-.319-.107-.46-.543.379-.62.339-.031.836-.059.836-.059l.083.009zm2.419 0c.442.024 1.076.077 1.076.077.349.083.643.643-.387.559l-.915-.068c-.136-.071-.156-.12-.176-.17-.079-.185-.049-.42.398-.394l.004-.004z" fill="#C5CAE0"/>
        <path d="M114.502 46.164a.448.448 0 0 0 .032-.492l-7.68-13.451a.448.448 0 0 0-.814.084l-1.943 6-5.238 3.506a.448.448 0 0 0-.194.434v.016c.03.174.161.314.333.357l15.038 3.715a.448.448 0 0 0 .466-.169zm-14.3-4.177 4.261-2.852 7.677 5.8-11.938-2.948z" fill="#597AFA" fill-rule="nonzero"/>
    </g>
</svg>
