<svg width="20" height="24" xmlns="http://www.w3.org/2000/svg">
    <g fill="none" fill-rule="evenodd">
        <path d="M4.554 24C2.049 24 0 21.962 0 19.472V4.528C0 2.038 2.05 0 4.554 0h10.778c2.504 0 4.554 2.038 4.554 4.528v14.944c0 2.49-2.05 4.528-4.554 4.528H4.554z" fill="#F4F6FB" fill-rule="nonzero"/>
        <path d="M0 12V5.436h8.16a3.292 3.292 0 0 1 3.3 3.283A3.292 3.292 0 0 1 8.16 12H0z" fill="#F65E5A" fill-rule="nonzero"/>
        <path d="M2.953 7.264c1.427 0 1.431 2.053 0 2.053h-.826v.855h-.55V7.268l1.376-.004zm0 .523h-.826v1.029h.826c.705 0 .7-1.029 0-1.029z" fill="#FFF"/>
        <path d="M5.505 7.269c1 0 1.447.709 1.46 1.426.012.735-.438 1.477-1.46 1.477H4.357V7.269h1.148zm-.001.518h-.6v1.858h.6c.663 0 .926-.48.914-.954-.013-.452-.28-.904-.914-.904z" fill="#FFF"/>
        <path d="M7.415 7.273h2.098V7.8H7.966v.792H9.43v.506H7.966v1.074h-.55v-2.9z" fill="#FFF" fill-rule="nonzero"/>
        <path d="M3.947 15.294a.435.435 0 0 0-.434.433c0 .237.195.432.434.432H15.94a.434.434 0 0 0 .434-.432.435.435 0 0 0-.434-.433H3.947zM3.947 16.85a.435.435 0 0 0-.434.432c0 .238.195.432.434.432H15.94a.434.434 0 0 0 .434-.432.434.434 0 0 0-.434-.432H3.947zM3.947 18.403a.435.435 0 0 0-.434.432c0 .237.195.432.434.432H15.94a.435.435 0 0 0 .434-.432.435.435 0 0 0-.434-.432H3.947zM3.947 19.96a.435.435 0 0 0-.434.432c0 .238.195.432.434.432H15.94a.434.434 0 0 0 .434-.432.435.435 0 0 0-.434-.432H3.947z" fill-opacity=".12" fill="#6A7582" fill-rule="nonzero"/>
    </g>
</svg>
