<svg width="16" height="16" xmlns="http://www.w3.org/2000/svg">
    <g fill="none" fill-rule="evenodd">
        <path d="M0 0h16v16H0z"/>
        <g fill="#919294" fill-rule="nonzero">
            <path d="M7.81 14.476A6.667 6.667 0 1 1 7.81 1.141a6.667 6.667 0 0 1-.001 13.335zm0-12A5.332 5.332 0 0 0 2.476 7.81a5.332 5.332 0 0 0 5.334 5.333 5.332 5.332 0 0 0 5.333-5.333A5.332 5.332 0 0 0 7.81 2.476z"/>
            <path d="M9.81 10.476a.664.664 0 0 1-.436-.162L7.143 8.382V4.476a.667.667 0 0 1 1.333 0v3.296l1.77 1.534a.667.667 0 0 1-.436 1.17z"/>
        </g>
    </g>
</svg>
