<svg width="20" height="20" xmlns="http://www.w3.org/2000/svg">
    <g fill="none" fill-rule="evenodd">
        <path d="M0 0h20v20H0z"/>
        <path d="M7.5 4.167c.46 0 .833.373.833.833v.833h6.334a2 2 0 0 1 2 2h0v6a2 2 0 0 1-2 2h0-9.334a2 2 0 0 1-2-2h0v-6c0-.226.038-.444.107-.647l-.107.031V5c0-.46.373-.833.834-.833H7.5z" stroke="#3F5BD9" stroke-width="1.5" fill="#3F5BD9" stroke-linecap="round" stroke-linejoin="round"/>
        <path stroke="#FFF" stroke-width="1.5" stroke-linecap="round" stroke-linejoin="round" d="M8.333 12.5h3.334"/>
    </g>
</svg>
