<svg width="181" height="88" xmlns="http://www.w3.org/2000/svg">
    <g transform="matrix(-1 0 0 1 181 0)" fill-rule="nonzero" fill="none">
        <path d="M131.083 11.708a87.388 87.388 0 0 1 43.693 75.699L148.56 87.4a61.175 61.175 0 0 0-30.585-52.99l13.108-22.703z" fill="#00C290"/>
        <path d="M43.694 11.708a87.387 87.387 0 0 1 87.404.009l-13.113 22.701a61.173 61.173 0 0 0-61.183-.006L43.694 11.708z" fill="#F9BA4D"/>
        <path d="M0 87.388a87.388 87.388 0 0 1 43.694-75.68l13.108 22.704a61.172 61.172 0 0 0-30.586 52.976H0z" fill="#21B7A8"/>
        <path d="M128.896 5.614c1.1-1.887 3.526-2.533 5.368-1.36a99.024 99.024 0 0 1 32.817 34.474c7.982 14.002 12.408 29.018 12.935 44.98.072 2.183-1.72 3.942-3.904 3.926l-29.494-.215c-3.401-.024-6.1-2.81-6.44-6.195-.813-8.08-3.359-15.603-7.507-22.88a59.405 59.405 0 0 0-16.564-18.55c-2.747-2.007-3.765-5.753-2.053-8.692l14.842-25.488z" fill="#EF5854"/>
        <path d="M149.262 87.465a61.798 61.798 0 0 0-123.595 0h123.595z" fill="#FFF"/>
        <path fill="#EF5854" d="m123.534 60.972-3.222 7-4.451-6.29z"/>
        <circle fill="#E0E0EC" transform="rotate(3.66 34.053 83.637)" cx="34.053" cy="83.637" r="1"/>
        <circle fill="#E0E0EC" transform="rotate(3.66 35.607 74.82)" cx="35.607" cy="74.82" r="1"/>
        <circle fill="#E0E0EC" transform="rotate(3.66 38.086 67.052)" cx="38.086" cy="67.052" r="1"/>
        <circle fill="#E0E0EC" transform="rotate(3.66 42.601 58.424)" cx="42.601" cy="58.424" r="1"/>
        <circle fill="#E0E0EC" transform="rotate(3.66 49.026 50.908)" cx="49.026" cy="50.908" r="1"/>
        <circle fill="#E0E0EC" transform="rotate(3.66 57.362 44.506)" cx="57.362" cy="44.506" r="1"/>
        <circle fill="#E0E0EC" transform="rotate(3.66 66.621 39.153)" cx="66.621" cy="39.153" r="1"/>
        <circle fill="#E0E0EC" transform="rotate(3.66 75.691 36.761)" cx="75.691" cy="36.761" r="1"/>
        <circle fill="#E0E0EC" transform="rotate(3.66 85.685 35.419)" cx="85.685" cy="35.419" r="1"/>
        <circle fill="#E0E0EC" transform="rotate(3.66 95.552 36.05)" cx="95.552" cy="36.05" r="1"/>
        <circle fill="#E0E0EC" transform="rotate(3.66 105.231 39.641)" cx="105.231" cy="39.641" r="1"/>
        <circle fill="#EF5854" transform="rotate(3.66 113.86 44.156)" cx="113.859" cy="44.156" r="1"/>
        <circle fill="#EF5854" transform="rotate(3.66 121.437 49.595)" cx="121.437" cy="49.595" r="1"/>
        <circle fill="#EF5854" transform="rotate(3.66 127.903 56.944)" cx="127.903" cy="56.944" r="1"/>
        <circle fill="#EF5854" transform="rotate(3.66 133.256 66.204)" cx="133.256" cy="66.204" r="1"/>
        <circle fill="#EF5854" transform="rotate(3.66 136.634 75.337)" cx="136.634" cy="75.337" r="1"/>
        <circle fill="#EF5854" transform="rotate(3.66 138.103 83.357)" cx="138.103" cy="83.357" r="1"/>
        <path d="M159.181 87.607a72.184 72.184 0 0 0-72.086-72.784 72.18 72.18 0 0 0-72.271 72.601l12.368-.072A59.81 59.81 0 0 1 87.08 27.191a59.818 59.818 0 0 1 42.42 17.723 59.804 59.804 0 0 1 17.314 42.59l12.367.103z" fill-opacity=".3" fill="#FFF"/>
    </g>
</svg>
