<svg width="175" height="95" xmlns="http://www.w3.org/2000/svg">
    <g fill-rule="nonzero" fill="none">
        <path d="M131.074 18.776a87.382 87.382 0 0 1 43.69 75.694l-26.214-.006a61.171 61.171 0 0 0-30.583-52.986l13.107-22.702z" fill="#21B7A8"/>
        <path d="M43.692 18.776a87.379 87.379 0 0 1 87.398.009l-13.112 22.7a61.17 61.17 0 0 0-61.18-.007L43.693 18.776z" fill="#FF875B"/>
        <path d="M0 94.451a87.383 87.383 0 0 1 43.692-75.675l13.107 22.702a61.168 61.168 0 0 0-30.585 52.973H0z" fill="#EF5854"/>
        <path d="M38.939 16.513c-1.085-1.896-.431-4.32 1.507-5.328A99.013 99.013 0 0 1 86.706.002c16.116.088 31.333 3.763 45.418 11.287 1.926 1.029 2.554 3.46 1.448 5.344L118.64 42.066c-1.722 2.934-5.484 3.878-8.585 2.48-7.403-3.336-15.191-4.893-23.566-4.939a59.41 59.41 0 0 0-24.345 5.07c-3.112 1.375-6.865.384-8.554-2.568L38.939 16.513z" fill="#F9BA4D"/>
        <path d="M149.294 94.421a61.794 61.794 0 0 0-123.588 0h123.588z" fill="#FFF"/>
        <path fill="#F9BA4D" d="m87.492 50.173 3.853 6.673H83.64z"/>
        <circle fill="#E0E0EC" transform="rotate(3.66 34.05 90.7)" cx="34.051" cy="90.701" r="1"/>
        <circle fill="#E0E0EC" transform="rotate(3.66 35.605 81.884)" cx="35.605" cy="81.884" r="1"/>
        <circle fill="#E0E0EC" transform="rotate(3.66 38.083 74.116)" cx="38.083" cy="74.116" r="1"/>
        <circle fill="#E0E0EC" transform="rotate(3.66 42.598 65.489)" cx="42.598" cy="65.489" r="1"/>
        <circle fill="#E0E0EC" transform="rotate(3.66 49.023 57.974)" cx="49.023" cy="57.974" r="1"/>
        <circle fill="#E0E0EC" transform="rotate(3.66 57.358 51.572)" cx="57.358" cy="51.572" r="1"/>
        <circle fill="#F9BA4D" transform="rotate(3.66 66.617 46.22)" cx="66.617" cy="46.22" r="1"/>
        <circle fill="#F9BA4D" transform="rotate(3.66 75.686 43.828)" cx="75.686" cy="43.828" r="1"/>
        <circle fill="#F9BA4D" transform="rotate(3.66 85.68 42.485)" cx="85.68" cy="42.485" r="1"/>
        <circle fill="#F9BA4D" transform="rotate(3.66 95.546 43.116)" cx="95.546" cy="43.116" r="1"/>
        <circle fill="#F9BA4D" transform="rotate(3.66 105.223 46.708)" cx="105.223" cy="46.708" r="1"/>
        <circle fill="#E0E0EC" transform="rotate(3.66 113.852 51.222)" cx="113.852" cy="51.222" r="1"/>
        <circle fill="#E0E0EC" transform="rotate(3.66 121.43 56.66)" cx="121.429" cy="56.661" r="1"/>
        <circle fill="#E0E0EC" transform="rotate(3.66 127.894 64.01)" cx="127.894" cy="64.009" r="1"/>
        <circle fill="#E0E0EC" transform="rotate(3.66 133.247 73.268)" cx="133.247" cy="73.268" r="1"/>
        <circle fill="#E0E0EC" transform="rotate(3.66 136.626 82.4)" cx="136.626" cy="82.401" r="1"/>
        <circle fill="#E0E0EC" transform="rotate(3.66 138.094 90.42)" cx="138.094" cy="90.42" r="1"/>
        <path d="M159.17 94.67a72.16 72.16 0 0 0-20.891-51.392 72.168 72.168 0 0 0-51.19-21.387 72.176 72.176 0 0 0-72.267 72.597l12.368-.073a59.797 59.797 0 0 1 17.42-42.543 59.81 59.81 0 0 1 102.194 42.696l12.366.103z" fill-opacity=".3" fill="#FFF"/>
    </g>
</svg>
