<svg width="175" height="88" xmlns="http://www.w3.org/2000/svg">
    <g fill-rule="nonzero" fill="none">
        <path d="M131.083 11.708a87.388 87.388 0 0 1 43.693 75.699L148.56 87.4a61.175 61.175 0 0 0-30.585-52.99l13.108-22.703z" fill="#919294" opacity=".12"/>
        <path d="M43.694 11.708a87.387 87.387 0 0 1 87.404.009l-13.113 22.701a61.173 61.173 0 0 0-61.183-.006L43.694 11.708z" fill="#919294"/>
        <path d="M0 87.388a87.388 87.388 0 0 1 43.694-75.68l13.108 22.704a61.172 61.172 0 0 0-30.586 52.976H0z" fill="#919294" opacity=".12"/>
        <path d="M149.262 87.465a61.798 61.798 0 0 0-123.595 0h123.595z" fill="#FFF"/>
        <path fill="#5D5E63" d="m87.401 36 3.886 6.654-7.705.039z"/>
        <path d="M159.181 87.607a72.184 72.184 0 0 0-72.086-72.784 72.18 72.18 0 0 0-72.271 72.601l12.368-.072A59.81 59.81 0 0 1 87.08 27.191a59.818 59.818 0 0 1 42.42 17.723 59.804 59.804 0 0 1 17.314 42.59l12.367.103z" fill-opacity=".3" fill="#FFF"/>
    </g>
</svg>
