<svg width="96" height="96" xmlns="http://www.w3.org/2000/svg" xmlns:xlink="http://www.w3.org/1999/xlink">
    <defs>
        <filter x="-29.2%" y="-20.8%" width="158.3%" height="158.3%" filterUnits="objectBoundingBox" id="b">
            <feOffset dy="6" in="SourceAlpha" result="shadowOffsetOuter1"/>
            <feGaussianBlur stdDeviation="6" in="shadowOffsetOuter1" result="shadowBlurOuter1"/>
            <feColorMatrix values="0 0 0 0 0.396078431 0 0 0 0 0.894117647 0 0 0 0 0.756862745 0 0 0 0.24 0" in="shadowBlurOuter1"/>
        </filter>
        <filter x="-30.8%" y="-30.8%" width="161.6%" height="161.6%" filterUnits="objectBoundingBox" id="d">
            <feGaussianBlur stdDeviation="3.892" in="SourceGraphic"/>
        </filter>
        <filter x="-38.5%" y="-38.5%" width="177%" height="177%" filterUnits="objectBoundingBox" id="e">
            <feGaussianBlur stdDeviation="3.892" in="SourceGraphic"/>
        </filter>
        <filter x="-44%" y="-44%" width="188%" height="188%" filterUnits="objectBoundingBox" id="f">
            <feGaussianBlur stdDeviation="3.892" in="SourceGraphic"/>
        </filter>
        <filter x="-44%" y="-44%" width="188%" height="188%" filterUnits="objectBoundingBox" id="g">
            <feGaussianBlur stdDeviation="3.892" in="SourceGraphic"/>
        </filter>
        <filter x="-44%" y="-44%" width="188%" height="188%" filterUnits="objectBoundingBox" id="h">
            <feGaussianBlur stdDeviation="3.892" in="SourceGraphic"/>
        </filter>
        <filter x="-44%" y="-44%" width="188%" height="188%" filterUnits="objectBoundingBox" id="i">
            <feGaussianBlur stdDeviation="3.892" in="SourceGraphic"/>
        </filter>
        <filter x="-32.4%" y="-32.4%" width="164.9%" height="164.9%" filterUnits="objectBoundingBox" id="j">
            <feGaussianBlur stdDeviation="3.892" in="SourceGraphic"/>
        </filter>
        <filter x="-32.4%" y="-32.4%" width="164.9%" height="164.9%" filterUnits="objectBoundingBox" id="k">
            <feGaussianBlur stdDeviation="3.892" in="SourceGraphic"/>
        </filter>
        <rect id="a" x="0" y="0" width="72" height="72" rx="36"/>
    </defs>
    <g transform="translate(12 6)" fill="none" fill-rule="evenodd">
        <mask id="c" fill="#fff">
            <use xlink:href="#a"/>
        </mask>
        <g fill-rule="nonzero">
            <use fill="#000" filter="url(#b)" xlink:href="#a"/>
            <use fill="#FFF" xlink:href="#a"/>
        </g>
        <rect fill="#FF4C4A" fill-rule="nonzero" mask="url(#c)" x="-13.263" y="34.105" width="36" height="36" rx="18"/>
        <rect fill="#00EAC2" fill-rule="nonzero" filter="url(#d)" mask="url(#c)" x="36" y="43.579" width="37.895" height="37.895" rx="18.947"/>
        <path d="M32.21 49.263c8.372 0 15.158 6.787 15.158 15.158 0 8.372-6.786 15.158-15.157 15.158-8.372 0-15.158-6.786-15.158-15.158 0-8.371 6.786-15.158 15.158-15.158z" fill="#00EAC2" fill-rule="nonzero" filter="url(#e)" mask="url(#c)" transform="rotate(-22.762 32.21 64.421)"/>
        <rect fill="#FFBC23" fill-rule="nonzero" filter="url(#f)" mask="url(#c)" x="17.053" y="-7.579" width="26.526" height="26.526" rx="13.263"/>
        <rect fill="#00EAC2" fill-rule="nonzero" filter="url(#g)" mask="url(#c)" x="47.368" y="26.526" width="26.526" height="26.526" rx="13.263"/>
        <rect fill="#FFBC23" fill-rule="nonzero" filter="url(#h)" mask="url(#c)" x="36" y="-3.789" width="26.526" height="26.526" rx="13.263"/>
        <rect fill="#FFBC23" fill-rule="nonzero" filter="url(#i)" mask="url(#c)" x="51.158" y="9.474" width="26.526" height="26.526" rx="13.263"/>
        <path d="M10.421 37.895c9.941 0 18 8.059 18 18 0 9.94-8.059 18-18 18s-18-8.06-18-18c0-9.941 8.059-18 18-18z" fill="#FF4C4A" fill-rule="nonzero" filter="url(#j)" mask="url(#c)" transform="rotate(-22.762 10.421 55.895)"/>
        <rect fill="#FF4C4A" fill-rule="nonzero" filter="url(#k)" mask="url(#c)" x="-7.579" y="5.684" width="36" height="36" rx="18"/>
        <rect fill="#FFF" fill-rule="nonzero" mask="url(#c)" x="5.684" y="5.684" width="60.632" height="60.632" rx="30.316"/>
        <g mask="url(#c)" fill-rule="nonzero">
            <path d="M37.503 46.892a4.98 4.98 0 0 1-6.795-1.82 4.707 4.707 0 0 1-.547-1.416 1.106 1.106 0 0 1 2.166-.441c.051.246.15.499.296.751a2.767 2.767 0 0 0 3.774 1.012 2.773 2.773 0 0 0 1.263-3.176 1.104 1.104 0 1 1 2.115-.64 4.94 4.94 0 0 1-2.272 5.73z" fill="#65E4C1"/>
            <path d="M51.999 38.842a.855.855 0 0 1-.216.087l-25.128 6.213a.83.83 0 0 1-.918-.39l-2.486-4.308a.83.83 0 0 1 .12-.99l17.945-18.656a.836.836 0 0 1 .697-.248.831.831 0 0 1 .618.409l9.671 16.75a.831.831 0 0 1-.303 1.133z" fill="#65E3C1"/>
            <path d="M52.174 39.698a1.106 1.106 0 0 1-1.51-.405L40.44 21.586a1.106 1.106 0 0 1 1.915-1.106l10.223 17.708a1.106 1.106 0 0 1-.404 1.51z" fill="#65E4C1"/>
            <path d="M27.8 46.113a1.106 1.106 0 0 1-1.51-.405l-3.592-6.221a1.106 1.106 0 0 1 1.914-1.106l3.592 6.222a1.106 1.106 0 0 1-.404 1.51z" fill="#66E3C0"/>
        </g>
    </g>
</svg>
