<svg width="230" height="230" xmlns="http://www.w3.org/2000/svg">
    <defs>
        <linearGradient x1="50%" y1="100%" x2="50%" y2="0%" id="a">
            <stop stop-color="gray" stop-opacity=".251" offset="0%"/>
            <stop stop-color="gray" stop-opacity=".122" offset="54%"/>
            <stop stop-color="gray" stop-opacity=".102" offset="100%"/>
        </linearGradient>
        <linearGradient x1="50%" y1="100%" x2="50%" y2="0%" id="b">
            <stop stop-color="gray" stop-opacity=".251" offset="0%"/>
            <stop stop-color="gray" stop-opacity=".122" offset="54%"/>
            <stop stop-color="gray" stop-opacity=".102" offset="100%"/>
        </linearGradient>
        <linearGradient x1="60%" y1="66%" x2="60%" y2="8.6%" id="c">
            <stop stop-color="gray" stop-opacity=".251" offset="0%"/>
            <stop stop-color="gray" stop-opacity=".122" offset="54%"/>
            <stop stop-color="gray" stop-opacity=".102" offset="100%"/>
        </linearGradient>
    </defs>
    <g fill="none" fill-rule="evenodd">
        <path d="M0 0h230v230H0z"/>
        <g transform="translate(26.818 10.857)" fill-rule="nonzero">
            <path d="M61.712 51.906h36.515v1.141H61.712v-1.14zm5.595 32.217h36.515v1.14H67.307v-1.14zm.841 3.106h36.515v1.14H68.148v-1.14zm1.68 3.109h36.515v1.14H69.828v-1.14zm-2.52 43.797h36.514v1.141H67.307v-1.14zm.84 3.11h36.515v1.14H68.148v-1.14zm1.68 3.107h36.515v1.14H69.828v-1.14z" fill="#E0E0E0"/>
            <path d="M22.377 42.444H131.92v147.203H22.377z" opacity=".5" fill="#E8EBF1"/>
            <path fill="#F4F6FB" d="M23.804 44.442h106.122V186.51H23.804z"/>
            <path fill="#E8EBF1" d="M32.077 50.433h36.515v1.14H32.077z"/>
            <path fill="#3F5BD9" opacity=".7" d="M32.077 55.566h36.515v1.141H32.077z"/>
            <path d="M0 0h38.796v39.367H0z" opacity=".5" transform="translate(32.363 71.257)" fill="url(#a)"/>
            <path fill="#E8EBF1" d="M32.608 72.114h38.185v37.656H32.608z"/>
            <path d="M0 0h35.615v24.532H0z" opacity=".5" transform="translate(33.953 74.396)" fill="url(#b)"/>
            <path fill="#FFF" d="M34.198 74.682h35.124V98.36H34.198z"/>
            <g opacity=".4" transform="translate(28.849 74.682)" fill="#3F5BD9">
                <path d="M2.37 22.823 11.218 9.13l3.708 5.99 7.988-8.271 6.847 8.27 5.989-12.264 15.405 24.532L1.23 25.673z"/>
                <circle cx="9.219" cy="3.422" r="2.567"/>
            </g>
            <path fill="#E8EBF1" d="M32.608 122.607h38.185v37.656H32.608z"/>
            <path d="M33.953 124.891h35.615v24.533H33.953z" opacity=".5" fill="#FFF"/>
            <path fill="#FFF" d="M34.198 125.175h35.124v23.678H34.198z"/>
            <g opacity=".4" transform="translate(28.849 125.175)">
                <path fill="#BDBDBD" d="M2.37 22.823 11.218 9.13l3.708 5.992 7.988-8.273 6.847 8.273 5.989-12.267 15.405 24.532-49.924-1.71z"/>
                <circle fill="#C2C6CC" cx="9.219" cy="3.425" r="2.567"/>
            </g>
            <path d="M27.33 179.553 55.467 35.176l105.371 21.35L132.692 200.9z" opacity=".5" fill="#E8EBF1"/>
            <path fill="#FFF" d="M26.705 176.752 54.397 37.409l104.087 20.685-27.692 139.343z"/>
            <path fill="#E8EBF1" d="m61.708 46.833 73.869 14.68-.223 1.12-73.868-14.68z"/>
            <path fill="#E0E0E0" d="m41.237 151.522 73.869 14.68-.223 1.119-73.868-14.68zM40.136 157.916l57.08 11.343-.222 1.12-57.08-11.344z"/>
            <path fill="#6C63FF" opacity=".7" d="m39.085 164.348 21.264 4.226-.222 1.119-21.265-4.226z"/>
            <path fill="#3F5BD9" opacity=".7" d="m60.884 53.223 36.933 7.34-.222 1.119-36.934-7.34z"/>
            <path fill="#E8EBF1" d="m59.321 59.578 66.593 13.234-.222 1.119L59.1 60.696z"/>
            <path fill="#1EC7B6" opacity=".7" d="m58.519 65.982 16.228 3.225-.223 1.119L58.296 67.1z"/>
            <path fill="#E8EBF1" d="m56.726 72.314 73.868 14.68-.222 1.119-73.868-14.68z"/>
            <path transform="rotate(-78.76 125.086 41.184)" d="M17.54-8.188h38.796V59.42H17.539z" opacity=".5" fill="url(#c)"/>
            <path fill="#FFF" d="m63.635 99.357 65.473 13.012-7.395 37.214-65.473-13.012z"/>
            <path fill="#E8EBF1" d="m55.481 78.686 73.868 14.68-.222 1.118-73.868-14.68z"/>
            <path fill="#3F5BD9" d="m69.897 105.836 8.115 1.612-5.394 27.142-8.114-1.613z"/>
            <path fill="#3AD29F" d="m82.443 117.613 8.114 1.612-3.614 18.188-8.115-1.613z"/>
            <path fill="#F65E5A" d="m95.108 128.838 8.114 1.613-1.946 9.792-8.114-1.612z"/>
            <path fill="#F8BF50" d="m111.406 121.662 8.115 1.613-3.948 19.868-8.115-1.613z"/>
            <path fill="#1EC7B6" d="M3.259 172.816h.854v4.848H3.26z"/>
            <path fill="#1EC7B6" d="M6.112 174.812v.856H1.264v-.856z"/>
            <path d="M141.758 17.322a1.05 1.05 0 0 1-.585-1.267.525.525 0 0 0-.983-.364 1.05 1.05 0 0 1-1.267.584.526.526 0 0 0-.36.988c.488.213.74.759.584 1.268a.525.525 0 0 0 .99.36 1.05 1.05 0 0 1 1.268-.585.525.525 0 0 0 .467-.924.463.463 0 0 0-.114-.06z" fill="#3F5BD9"/>
            <path d="M7.165 50.029a1.05 1.05 0 0 1-.585-1.268.525.525 0 0 0-.982-.364 1.05 1.05 0 0 1-1.267.585.525.525 0 0 0-.364.983c.489.212.74.758.585 1.268a.525.525 0 0 0 .983.364 1.05 1.05 0 0 1 1.267-.585.525.525 0 0 0 .362-.983zM152.66 205.213a1.05 1.05 0 0 1-.585-1.267.525.525 0 0 0-.982-.364 1.05 1.05 0 0 1-1.267.584.525.525 0 0 0-.364.983c.49.213.741.759.585 1.268a.525.525 0 0 0 .983.364 1.05 1.05 0 0 1 1.267-.585.524.524 0 0 0 .646-.32.523.523 0 0 0-.283-.663z" fill="#F8BF50"/>
            <circle fill="#F65E5A" cx="59.508" cy="30.999" r="1.713"/>
            <circle fill="#F65E5A" cx="172.075" cy="51.918" r="1.713"/>
            <circle fill="#3F5BD9" cx="162.377" cy="102.493" r="1.713"/>
            <circle fill="#1EC7B6" opacity=".5" cx="17.044" cy="2.891" r="1.713"/>
        </g>
    </g>
</svg>
