<svg width="28" height="28" xmlns="http://www.w3.org/2000/svg">
    <g fill="none" fill-rule="evenodd">
        <path d="M14 28c7.732 0 14-6.268 14-14S21.732 0 14 0 0 6.268 0 14s6.268 14 14 14z" fill="#F5F6FA"/>
        <path d="M19.833 19.833V8.167H8.167v11.666h11.666z"/>
        <path d="M16.852 9.333c.532-.006.987.375 1.066.893l.737 4.725a1.04 1.04 0 0 1-.25.847 1.073 1.073 0 0 1-.818.36h-3.019v2.1c0 .87-.716 1.575-1.6 1.575l-2.134-4.725V9.333h6.018zm-6.018 0v5.776h-1.6c-.59 0-1.067-.47-1.067-1.05h0v-3.675c0-.58.477-1.05 1.067-1.05h1.6z" stroke="#EF5854" stroke-width="1.2" stroke-linecap="round" stroke-linejoin="round" stroke-dasharray="0,0"/>
    </g>
</svg>
