<svg width="13" height="20" xmlns="http://www.w3.org/2000/svg">
    <path d="M11.73 4.49h-1.32c-.087-.84-.355-1.624-.778-2.232h2.097c.502 0 .908-.41.908-.962 0-.55-.406-.972-.907-.972H4.622L4.544.323H1.102C.6.323.194.746.194 1.296c0 .552.406.962.907.962h4.03c1.274.1 2.607.642 2.957 2.232H1.104c-.503 0-.909.447-.909.997s.406.996.907.996H8C7.57 7.74 6.392 8.507 4.754 8.507H1.89c-.49 0-.888.435-.888.972 0 .537.398.972.888.972h1.04l.012.003h1.645c1.786.073 2.58.923 3.037 3.248.356 1.726.62 2.852.825 3.524.154.624.461 1.563.99 2.123.21.219.476.328.744.328.28 0 .562-.12.772-.36.384-.439.392-1.119.039-1.572-.002-.006 0-.012-.003-.017-.327-.663-.72-2.441-1.201-4.698-.383-1.833-1.097-2.977-2.179-3.484a4.494 4.494 0 0 0 2.66-3.063h1.459c.502 0 .908-.446.908-.996s-.406-.997-.907-.997z" fill="#21B7A8" fill-rule="evenodd"/>
</svg>
