<svg xmlns="http://www.w3.org/2000/svg" width="36" height="36" viewBox="0 0 36 36">
    <g fill="none" fill-rule="evenodd">
        <g fill-rule="nonzero">
            <g>
                <g>
                    <g transform="translate(-1010.000000, -624.000000) translate(938.000000, 510.000000) translate(40.000000, 24.000000) translate(32.000000, 90.000000)">
                        <circle cx="18" cy="18" r="18" fill="#FFD93B"/>
                        <path fill="#F4C534" d="M36 18c0 9.945-8.06 18-18 18-5.659 0-10.71-2.61-14.012-6.7 3.088 2.498 7.02 3.989 11.3 3.989 9.94 0 18-8.055 18-18 0-4.28-1.49-8.213-3.987-11.3C33.384 7.29 36 12.34 36 18z"/>
                        <g fill="#3E4347">
                            <path d="M15.674 8.689c0 .525-.42.937-.937.937H5.864c-.518 0-.937-.413-.937-.937 0-.518.42-.937.937-.937h8.873c.516 0 .937.42.937.937zM.161.032c.44-.259 1.742 1.136 3.786 1.213C6.063 1.323 7.293-.227 7.733.032c.547.188-.2 3.765-3.786 3.779C.362 3.797-.387.22.161.032z" transform="translate(7.700139, 18.367413)"/>
                        </g>
                        <path fill="#3E4347" d="M7.018 16.827c-.409-.066-.688-.45-.621-.86.066-.408.444-.688.86-.62 4.216.676 5.497-2.335 5.51-2.366.155-.383.591-.568.977-.411.384.156.568.594.412.977-.846 2.072-3.503 3.863-7.138 3.28zM28.139 18.4c-.44-.26-1.742 1.136-3.786 1.212-2.116.079-3.346-1.471-3.786-1.213-.548.188.2 3.766 3.786 3.78 3.585-.014 4.333-3.592 3.785-3.78zM21.844 13.546c-.156-.383.028-.821.412-.977.382-.157.819.026.976.408.057.135 1.345 3.038 5.512 2.37.413-.068.794.212.86.62.065.41-.213.794-.622.86-3.609.58-6.285-1.19-7.138-3.28z"/>
                    </g>
                </g>
            </g>
        </g>
    </g>
</svg>
