<svg xmlns="http://www.w3.org/2000/svg" width="20" height="20" viewBox="0 0 20 20">
    <g fill="none" fill-rule="evenodd">
        <g>
            <g>
                <path d="M0 0L20 0 20 20 0 20z" transform="translate(-384 -22) translate(384 22)"/>
                <path fill="#2B2F3F" fill-rule="nonzero" d="M14.048 13.074L17 16.024l-.975.976-2.951-2.952c-1.098.88-2.464 1.36-3.871 1.357C5.779 15.405 3 12.626 3 9.203 3 5.779 5.779 3 9.203 3c3.423 0 6.202 2.779 6.202 6.203.002 1.407-.477 2.773-1.357 3.87zm-1.382-.512c.874-.9 1.363-2.105 1.36-3.36 0-2.665-2.158-4.824-4.823-4.824-2.666 0-4.825 2.159-4.825 4.825 0 2.665 2.159 4.824 4.825 4.824 1.254.002 2.46-.487 3.36-1.361l.103-.104z" transform="translate(-384 -22) translate(384 22)"/>
            </g>
        </g>
    </g>
</svg>
