<svg xmlns="http://www.w3.org/2000/svg" width="40" height="40" viewBox="0 0 40 40">
    <g fill="none" fill-rule="evenodd">
        <g>
            <g>
                <g>
                    <g>
                        <g transform="translate(-383 -1772) translate(362 64) translate(0 975) translate(21 551) translate(0 182)">
                            <circle cx="20" cy="20" r="20" fill="#F4F6FB"/>
                            <g>
                                <path d="M0 0L24 0 24 24 0 24z" transform="translate(8 8)"/>
                                <path fill="#3F5BD4" fill-rule="nonzero" stroke="#3F5BD4" stroke-width=".5" d="M18.792 6.437C17.845 5.507 16.607 5 15.265 5c-1.101 0-2.15.355-3.028.998C11.36 5.338 10.327 5 9.209 5c-1.325 0-2.58.507-3.527 1.437-.946.93-1.462 2.148-1.462 3.467 0 1.302.516 2.52 1.428 3.433l5.591 5.496c.258.254.602.39.98.39.38 0 .706-.136.981-.39l5.574-5.462.018-.017c.929-.913 1.428-2.148 1.428-3.433.017-1.336-.5-2.57-1.428-3.484zm-6.916 11.787c-.104-.101-1.153-1.116-1.342-1.302-.103-.101-1.136-1.133-1.325-1.319-.206-.203-1.135-1.15-1.325-1.336l-.017-.017c-.189-.203-.189-.507 0-.71l1.875-1.843c.517.017.998-.186 1.394-.575l1.187-1.167c.499.406 1.032.66 1.548.727.689.085 1.342-.135 1.858-.66.172-.169.172-.44 0-.591-.154-.152-.447-.152-.602 0-.344.338-.722.473-1.135.422-.43-.05-.912-.32-1.36-.777-.154-.153-.447-.153-.601 0l-1.48 1.454c-.224.22-.482.338-.774.338H9.69c-.017 0-.052-.017-.086-.017-.224-.034-.43-.135-.568-.27-.138-.136-.103-.17-.086-.186.465-.474 3.39-3.349 3.406-3.366.775-.76 1.807-1.183 2.908-1.183 1.1 0 2.133.422 2.907 1.183.774.761 1.205 1.776 1.205 2.858 0 1.083-.43 2.097-1.205 2.858l-5.557 5.48c-.189.185-.533.185-.74 0zM11.6 6.59L8.332 9.803c-.396.389-.362.947.086 1.386.103.102.24.203.378.271l-1.53 1.505c-.121.118-.225.27-.293.423l-.637-.609-.017-.017c-.774-.76-1.204-1.775-1.204-2.858 0-1.082.43-2.097 1.204-2.858.774-.76 1.806-1.184 2.907-1.184v-.169.17c.86-.017 1.67.236 2.374.727z" transform="translate(8 8)"/>
                            </g>
                        </g>
                    </g>
                </g>
            </g>
        </g>
    </g>
</svg>
