<svg xmlns="http://www.w3.org/2000/svg" width="24" height="24" viewBox="0 0 24 24">
    <g fill="none" fill-rule="evenodd">
        <g>
            <g>
                <g>
                    <path d="M0 0L24 0 24 24 0 24z" transform="translate(-1168.000000, -256.000000) translate(758.000000, 231.000000) translate(410.000000, 25.000000)"/>
                    <g stroke="#1D1E20" stroke-linecap="round" stroke-linejoin="round" stroke-width="2">
                        <path d="M15.4 15.4c-1.554 1.185-3.446 1.84-5.4 1.873C3.636 17.273 0 10 0 10c1.13-2.107 2.7-3.949 4.6-5.4m3.49-1.655c.627-.146 1.267-.22 1.91-.218C16.364 2.727 20 10 20 10c-.552 1.032-1.21 2.004-1.964 2.9m-6.109-.973c-.68.73-1.704 1.03-2.67.783-.966-.246-1.72-1-1.967-1.967-.247-.966.053-1.99.783-2.67M0 0L20 20" transform="translate(-1168.000000, -256.000000) translate(758.000000, 231.000000) translate(410.000000, 25.000000) translate(2.000000, 2.000000)"/>
                    </g>
                </g>
            </g>
        </g>
    </g>
</svg>
