<svg xmlns="http://www.w3.org/2000/svg" width="100" height="100" viewBox="0 0 100 100">
    <g fill="none" fill-rule="evenodd">
        <g>
            <g>
                <g>
                    <g>
                        <path d="M0 0L100 0 100 100 0 100z" transform="translate(-574 -105) translate(412 57) translate(75 48) translate(87)"/>
                        <g>
                            <g>
                                <g>
                                    <g fill="#F7F8FF" fill-opacity=".6">
                                        <path d="M47.877.722c-.178-.54-.753-.84-1.297-.677L.715 14.017c-.26.076-.478.255-.604.496-.126.24-.148.521-.063.779l18.614 57.5c.176.54.753.842 1.298.678l45.865-13.963c.26-.077.479-.256.605-.497.125-.24.148-.522.062-.78L47.877.722z" transform="translate(-574 -105) translate(412 57) translate(75 48) translate(87) translate(4.287 12.965) translate(.312 .013) translate(0 2.535)"/>
                                    </g>
                                    <g fill="#EEF0FF">
                                        <path d="M41.335.395c-.096-.295-.41-.46-.708-.37L.388 12.282c-.141.043-.26.14-.327.272-.068.13-.08.284-.034.424l8.38 25.89c.097.294.41.457.706.369L49.352 26.98c.141-.043.26-.14.328-.271.068-.13.08-.284.035-.424L41.335.395z" transform="translate(-574 -105) translate(412 57) translate(75 48) translate(87) translate(4.287 12.965) translate(.312 .013) translate(0 2.535) translate(4.282 4.402)"/>
                                    </g>
                                </g>
                                <g fill="#EEF0FF">
                                    <g>
                                        <path d="M60.972 19.42c.194-.475-.018-1.02-.482-1.238L21.363.083c-.218-.103-.47-.112-.696-.025-.226.088-.405.265-.497.489L.073 48.577c-.195.475.017 1.02.482 1.24l39.128 18.098c.22.103.471.112.697.024.225-.088.405-.265.497-.489l20.095-48.03z" transform="translate(-574 -105) translate(412 57) translate(75 48) translate(87) translate(4.287 12.965) translate(.312 .013) translate(30.192 1.327)"/>
                                    </g>
                                    <g>
                                        <path d="M44.34 16.588c.105-.248-.007-.535-.252-.648L9.723.045c-.114-.054-.246-.059-.365-.013-.118.046-.212.139-.26.256L.037 21.945c-.104.248.007.534.251.647l34.365 15.895c.115.053.246.058.364.012s.212-.139.26-.256l9.063-21.655z" transform="translate(-574 -105) translate(412 57) translate(75 48) translate(87) translate(4.287 12.965) translate(.312 .013) translate(30.192 1.327) translate(12.79 4.09)"/>
                                    </g>
                                </g>
                                <g fill="#FFF">
                                    <path d="M60.085 1.223c-.001-.325-.132-.637-.363-.867-.232-.23-.545-.357-.87-.356H1.233C.908-.001.595.127.363.356.132.586.001.898 0 1.223v77.062c.003.679.555 1.227 1.233 1.225h57.619c.678.002 1.23-.546 1.233-1.225V1.223z" transform="translate(-574 -105) translate(412 57) translate(75 48) translate(87) translate(4.287 12.965) translate(.312 .013) translate(16.908 .282)"/>
                                </g>
                                <g fill="#597AFA">
                                    <path d="M59.015.192c.704.03 1.269.591 1.303 1.295.092 25.943.017 51.475 0 77.096-.028.7-.587 1.262-1.286 1.295-19.22.362-38.447.124-57.667 0C.665 79.854.1 79.3.062 78.602c-.132-25.587 0-51.4 0-77.099C.089.8.647.233 1.35.193 20.565-.17 39.793.072 59.015.192zM1.38.358C.764.377.265.866.235 1.482.27 27.273.207 52.855.235 78.59c.036.599.516 1.076 1.115 1.108 19.222.361 38.448.361 57.677 0 .599-.033 1.078-.51 1.115-1.108-.04-25.658-.122-51.25 0-77.123C60.105.868 59.626.392 59.027.36 39.815.003 20.595.367 1.372.367L1.38.358z" transform="translate(-574 -105) translate(412 57) translate(75 48) translate(87) translate(4.287 12.965) translate(.312 .013) translate(16.762)"/>
                                </g>
                                <g fill="#EEF0FF">
                                    <path d="M51.635.728c0-.402-.326-.728-.728-.728H.728C.326 0 0 .326 0 .728v12.09c0 .403.326.729.728.729h50.179c.402 0 .728-.326.728-.729V.728z" transform="translate(-574 -105) translate(412 57) translate(75 48) translate(87) translate(4.287 12.965) translate(.312 .013) translate(21.153 61.348)"/>
                                </g>
                                <g fill="#D9E1FF">
                                    <path d="M51.035.16c.43.023.772.366.795.795.058 4.037 0 8.073 0 12.112-.01.438-.357.795-.795.815-16.732.215-33.467 0-50.2 0-.439-.01-.795-.357-.815-.795C-.025 9.05.02 5.012.02.975.034.538.379.185.815.16c16.739-.213 33.479-.213 50.22 0zM.835.335C.49.342.21.615.193.96.15 5 .15 9.04.193 13.082c.02.335.288.603.624.625 16.735.213 33.472.213 50.211 0 .336-.022.603-.29.624-.625.059-4.04.059-8.08 0-12.122-.02-.336-.288-.604-.624-.625C34.302.123 17.568.337.837.337L.835.335z" transform="translate(-574 -105) translate(412 57) translate(75 48) translate(87) translate(4.287 12.965) translate(.312 .013) translate(21.047 61.1)"/>
                                </g>
                                <g fill="#F7F8FF" fill-opacity=".6">
                                    <path d="M19.012.212c0-.116-.094-.21-.21-.21H.212c-.116 0-.21.094-.21.21V3.7c0 .116.094.21.21.21h18.59c.116 0 .21-.094.21-.21V.212z" transform="translate(-574 -105) translate(412 57) translate(75 48) translate(87) translate(4.287 12.965) translate(.312 .013) translate(21.105 44.312)"/>
                                </g>
                                <g>
                                    <path d="M19.53.057c.478.028.859.409.888.886.025 1.167 0 2.349 0 3.522-.018.486-.403.878-.888.905-6.205.075-12.412 0-18.618 0-.489-.016-.884-.403-.909-.892-.013-1.166 0-2.341 0-3.513C.02.478.405.083.892.057 7.105-.02 13.318-.02 19.53.057zM.917.758c-.11.004-.201.09-.21.2-.045 1.17-.045 2.34 0 3.51.008.11.096.195.205.2 6.201.079 12.408.235 18.606 0 .11-.008.195-.096.2-.205.015-1.166.045-2.333 0-3.5-.008-.108-.096-.194-.205-.2C13.315.68 7.118.76.917.76V.758z" transform="translate(-574 -105) translate(412 57) translate(75 48) translate(87) translate(4.287 12.965) translate(.312 .013) translate(20.4 43.552)"/>
                                </g>
                                <g fill="#DAE9F4" fill-rule="nonzero">
                                    <path d="M6.757 2.552H.443C.21 2.537.027 2.343.027 2.109s.182-.428.416-.442h6.314c.164-.01.32.072.406.213.086.14.086.318 0 .459-.085.14-.242.223-.406.213z" transform="translate(-574 -105) translate(412 57) translate(75 48) translate(87) translate(4.287 12.965) translate(.312 .013) translate(21.583 49.328)"/>
                                </g>
                                <g fill="#DAE9F4" fill-rule="nonzero">
                                    <path d="M18.847 2.552H.443C.21 2.537.027 2.343.027 2.109s.182-.428.416-.442h18.404c.234.014.416.208.416.442s-.182.428-.416.443z" transform="translate(-574 -105) translate(412 57) translate(75 48) translate(87) translate(4.287 12.965) translate(.312 .013) translate(21.56 51.843)"/>
                                </g>
                                <g fill="#DAE9F4" fill-rule="nonzero">
                                    <path d="M15.692 2.552H.443C.21 2.537.027 2.343.027 2.109s.182-.428.416-.442h15.249c.234.014.416.208.416.442s-.182.428-.416.443z" transform="translate(-574 -105) translate(412 57) translate(75 48) translate(87) translate(4.287 12.965) translate(.312 .013) translate(21.567 54.58)"/>
                                </g>
                                <g fill="#3F5BD9" fill-rule="nonzero">
                                    <path d="M0 0L3.525 0 3.525 9.552 0 9.552z" transform="translate(-574 -105) translate(412 57) translate(75 48) translate(87) translate(4.287 12.965) translate(.312 .013) translate(33.44 26.697)"/>
                                </g>
                                <g>
                                    <path d="M4.278.003c.372.017.662.328.652.7v9.55c.003.085-.012.17-.045.247-.109.269-.367.448-.657.457H.702c-.188.003-.369-.07-.501-.202-.133-.133-.205-.314-.201-.502V.703C-.003.62.012.536.045.458.154.19.412.01.702.002h3.526l.05.001zm-3.575.7v9.55H4.23V.703H.703z" transform="translate(-574 -105) translate(412 57) translate(75 48) translate(87) translate(4.287 12.965) translate(.312 .013) translate(32.74 25.995)"/>
                                </g>
                                <g fill="#F58852" fill-rule="nonzero">
                                    <path d="M0 0L3.53 0 3.53 14.218 0 14.218z" transform="translate(-574 -105) translate(412 57) translate(75 48) translate(87) translate(4.287 12.965) translate(.312 .013) translate(41.055 22.043)"/>
                                </g>
                                <g>
                                    <path d="M4.295.002c.355.047.625.34.642.698v14.218c-.018.38-.322.684-.702.702H.703c-.38-.018-.683-.322-.701-.702V.7C.02.32.324.018.703-.002h3.592v.004zM.703.7v14.218H4.23V.7H.703z" transform="translate(-574 -105) translate(412 57) translate(75 48) translate(87) translate(4.287 12.965) translate(.312 .013) translate(40.353 21.343)"/>
                                </g>
                                <g fill="#F8BF50" fill-rule="nonzero">
                                    <path d="M0 0L3.582 0 3.582 12.99 0 12.99z" transform="translate(-574 -105) translate(412 57) translate(75 48) translate(87) translate(4.287 12.965) translate(.312 .013) translate(48.677 23.268)"/>
                                </g>
                                <g>
                                    <path d="M4.34.002c.356.045.628.34.643.7v12.99c-.016.38-.32.685-.701.703H.7c-.38-.018-.684-.323-.702-.703V.702C.017.322.32.018.7 0h3.64v.002zM.7.702v12.99h3.582V.702H.7z" transform="translate(-574 -105) translate(412 57) translate(75 48) translate(87) translate(4.287 12.965) translate(.312 .013) translate(47.975 22.567)"/>
                                </g>
                                <g fill="#3F5BD9" fill-rule="nonzero">
                                    <path d="M0 0L3.513 0 3.513 19.177 0 19.177z" transform="translate(-574 -105) translate(412 57) translate(75 48) translate(87) translate(4.287 12.965) translate(.312 .013) translate(56.347 17.107)"/>
                                </g>
                                <g>
                                    <path d="M4.283.003c.351.051.617.343.634.697v19.175c-.02.38-.322.683-.702.703H.703c-.38-.02-.682-.323-.701-.703V.7C.02.321.324.018.703 0h3.514c.022 0 .044 0 .066.003zM.702.7v19.175h3.513V.7H.702z" transform="translate(-574 -105) translate(412 57) translate(75 48) translate(87) translate(4.287 12.965) translate(.312 .013) translate(55.643 16.407)"/>
                                </g>
                                <g fill="#96ACFF">
                                    <path d="M51.342.16c.421.025.758.36.783.782.167 11.628 0 23.256 0 34.885-.014.43-.353.78-.783.805-16.834.21-33.654 0-50.482 0-.43-.015-.779-.355-.803-.785-.13-11.629 0-23.257 0-34.885C.07.532.41.184.84.158 17.673-.054 34.507-.053 51.342.16zM.862.335C.526.346.254.611.233.947c-.13 11.63-.13 23.262 0 34.896.02.33.283.591.612.61 16.829.211 33.662.211 50.5 0 .33-.019.592-.28.612-.61.172-11.632.172-23.264 0-34.896-.02-.33-.283-.592-.612-.612-16.83-.218-33.657 0-50.482 0H.862z" transform="translate(-574 -105) translate(412 57) translate(75 48) translate(87) translate(4.287 12.965) translate(.312 .013) translate(20.86 4.623)"/>
                                </g>
                                <g fill="#E2E5FF">
                                    <path d="M15.16 1.67c.081.024.135.102.128.186-.008.085-.074.153-.158.162H.155c-.183-.015-.225-.333 0-.35h15l.005.002z" transform="translate(-574 -105) translate(412 57) translate(75 48) translate(87) translate(4.287 12.965) translate(.312 .013) translate(57.395 43.765)"/>
                                </g>
                                <g fill="#597AFA" fill-rule="nonzero" transform="translate(-574 -105) translate(412 57) translate(75 48) translate(87) translate(4.287 12.965) translate(.312 .013) translate(12.405 34.148)">
                                    <circle cx=".842" cy=".842" r="1"/>
                                </g>
                                <g>
                                    <path d="M1.032 0c.885.017 1.438 1.5.383 1.953-.374.156-.804.076-1.096-.205-.292-.28-.39-.707-.249-1.087C.211.281.564.021.968 0h.064zM1.01.352c-.578.011-.942.986-.25 1.28.587.248 1.323-.794.577-1.2C1.235.376 1.12.348 1.005.35l.005.002z" transform="translate(-574 -105) translate(412 57) translate(75 48) translate(87) translate(4.287 12.965) translate(.312 .013) translate(12.233 33.972)"/>
                                </g>
                                <g fill="#3F5BD9" fill-rule="nonzero">
                                    <path d="M24.423 1.088c.029-.137-.006-.28-.095-.388-.092-.115-.227-.187-.373-.202h-.025L20.78.01c-.177-.039-.361.024-.478.163-.116.14-.146.332-.078.5.07.167.225.283.406.3l1.945.302-7.657 5.08-1.666-2.097c-.18-.22-.499-.27-.737-.113L.21 12.035c-.11.072-.185.187-.205.317-.02.13.016.263.1.365.18.22.498.27.737.113l11.89-7.612 1.666 2.097c.18.22.499.27.737.113l8.077-5.363-.252 1.63c-.028.279.166.53.442.575.277.044.54-.135.6-.408l.425-2.745s-.005-.02-.004-.029z" transform="translate(-574 -105) translate(412 57) translate(75 48) translate(87) translate(4.287 12.965) translate(.312 .013) translate(33.865 9.722)"/>
                                </g>
                                <g>
                                    <path d="M20.795 0h.077c1.06.152 2.12.305 3.166.492.345.037.594.347.557.691v.019c-.122.941-.23 1.888-.435 2.796-.095.25-.336.413-.603.41-.267-.004-.503-.173-.592-.425-.017-.07-.02-.144-.01-.216l.222-1.434c-2.642 1.754-5.27 3.527-7.924 5.262-.057.04-.123.067-.191.08-.24.054-.491-.032-.649-.222L12.8 5.418C8.852 7.947 4.933 10.523.953 13.002c-.071.046-.153.075-.238.083-.485.067-1.062-.628-.465-1.042 4.112-2.636 8.18-5.341 12.333-7.911.278-.156.627-.094.834.148l1.613 2.033 7.4-4.91c-.578-.09-1.167-.166-1.737-.268-.205-.037-.376-.18-.45-.375-.073-.195-.038-.415.092-.578.118-.127.287-.193.46-.182zm-.025.175c-.113.002-.22.051-.297.134-.076.084-.115.195-.108.308.036.185.186.327.373.353l1.944.302c.111.035.108.095.035.166l-7.655 5.08c-.039.02-.087.013-.117-.018-.557-.702-1.105-1.41-1.667-2.105-.153-.171-.405-.21-.603-.093C8.597 6.98 4.462 9.568.355 12.203c-.095.074-.153.187-.156.308-.003.12.048.237.14.316.159.125.38.135.551.026l11.89-7.611c.039-.02.087-.012.117.02.556.701 1.105 1.41 1.666 2.105.156.173.414.21.612.086l8.077-5.363c.076-.035.133-.018.135.087-.085.546-.177 1.091-.254 1.64.005.193.131.363.316.422.184.06.386-.004.503-.159.024-.04.041-.083.05-.128.158-.917.306-1.834.426-2.757V1.14c0-.238-.181-.437-.418-.458C22.963.465 21.9.348 20.843.19c-.024-.007-.048-.012-.073-.015z" transform="translate(-574 -105) translate(412 57) translate(75 48) translate(87) translate(4.287 12.965) translate(.312 .013) translate(33.773 9.635)"/>
                                </g>
                                <g fill="#8093DA" fill-opacity=".18" fill-rule="nonzero">
                                    <path d="M24.85 21.95c-.518-.508-.62-1.305-.245-1.927 1.239-2.043 1.894-4.387 1.895-6.776C26.497 5.932 20.567.004 13.252.005 5.938.005.008 5.935.007 13.249c-.002 7.314 5.925 13.246 13.24 13.25 2.397 0 4.75-.657 6.8-1.899.61-.37 1.393-.281 1.906.215 1.5 1.45 4.5 4.36 6.28 6.08.791.766 2.042.785 2.855.043l1.28-1.166c.093-.085.141-.208.13-.334-.808-.786-5.603-5.486-7.648-7.488zm-11.603.467c-5.063 0-9.167-4.104-9.167-9.167s4.104-9.167 9.167-9.167c5.062 0 9.166 4.104 9.166 9.167-.007 5.06-4.107 9.16-9.166 9.167z" transform="translate(-574 -105) translate(412 57) translate(75 48) translate(87) translate(4.287 12.965) translate(.312 .013) translate(55.055 48.937)"/>
                                </g>
                                <g>
                                    <path d="M13.967-.002c5.355.088 10.208 3.173 12.561 7.984 1.947 4.167 1.727 9.025-.588 13l-.073.121c-.18.34-.122.755.143 1.032 2.475 2.45 4.972 4.873 7.457 7.3l.253.255c.096.109.15.248.153.393-.015.32-.131.627-.333.875-.59.667-1.285 1.234-2.057 1.68-1.028.435-2.215.229-3.036-.526-2.125-2.019-4.205-4.122-6.322-6.114-.572-.525-1.43.167-2.36.597-4.023 1.834-8.673 1.675-12.562-.43-5.635-3.224-8.38-9.848-6.676-16.113C2.332 4.165 7.72.107 13.877-.002h.09zm-.085 1.404c-5.533.106-10.372 3.751-12 9.04-1.189 4.24-.108 8.794 2.86 12.048 3.978 4.159 10.248 5.138 15.305 2.39.934-.631 2.169-.583 3.051.118 2.115 2.025 4.195 4.087 6.31 6.109.535.479 1.342.485 1.884.015l.971-.885c-2.414-2.358-4.824-4.718-7.23-7.079-.715-.733-.868-1.847-.378-2.746 2.327-3.981 2.339-8.905.032-12.897-2.296-3.736-6.341-6.04-10.725-6.112l-.08-.001zm.105 2.666c3.67.082 7.008 2.143 8.725 5.389 1.372 2.73 1.421 5.937.133 8.708-1.993 4.037-6.42 6.265-10.85 5.46-4.097-.893-7.22-4.216-7.858-8.36-.4-3.193.755-6.383 3.105-8.582 1.81-1.652 4.165-2.58 6.616-2.606l.129-.009zm-.119 1.404c-4.008.116-7.42 2.954-8.263 6.875-.511 2.81.403 5.692 2.44 7.695 2.444 2.305 6.004 2.98 9.122 1.73 2.746-1.177 4.69-3.687 5.141-6.64.35-2.65-.55-5.312-2.438-7.205-1.576-1.544-3.687-2.42-5.893-2.447l-.109-.008z" transform="translate(-574 -105) translate(412 57) translate(75 48) translate(87) translate(4.287 12.965) translate(.312 .013) translate(54.253 48.235)"/>
                                </g>
                                <g fill="#3F5BD9" fill-rule="nonzero">
                                    <path d="M24.833 21.95c-.508-.51-.604-1.3-.231-1.917 1.241-2.046 1.898-4.393 1.898-6.786C26.497 5.932 20.567.004 13.252.005 5.938.005.008 5.935.007 13.249c-.002 7.314 5.925 13.246 13.24 13.25 2.39 0 4.736-.653 6.783-1.889.619-.372 1.411-.275 1.922.235 1.52 1.515 4.578 4.573 6.371 6.367.779.777 2.035.793 2.834.036.4-.376.63-.9.639-1.449.008-.55-.207-1.079-.596-1.467l-6.367-6.382zm-11.583.467c-5.063 0-9.167-4.104-9.167-9.167s4.104-9.167 9.167-9.167 9.167 4.104 9.167 9.167c-.008 5.06-4.11 9.161-9.17 9.167h.003z" transform="translate(-574 -105) translate(412 57) translate(75 48) translate(87) translate(4.287 12.965) translate(.312 .013) translate(56.35 47.353)"/>
                                </g>
                                <g>
                                    <path d="M13.967-.002c5.505.1 10.462 3.357 12.738 8.37 1.738 4.08 1.463 8.738-.742 12.585-.365.622-.186.969.034 1.199 2.121 2.15 4.28 4.263 6.4 6.415.559.628.81 1.473.684 2.305-.126.832-.614 1.566-1.334 2.001-1.058.553-2.35.376-3.219-.441-2.148-2.122-4.271-4.334-6.41-6.405-.555-.527-1.438.146-2.313.558-4.033 1.85-8.701 1.694-12.602-.42-5.637-3.222-8.382-9.849-6.675-16.113C2.332 4.164 7.72.106 13.877-.002h.09zm-.085 1.404c-6.265.142-11.51 4.788-12.409 10.99-.529 4.868 1.753 9.615 5.885 12.243 3.877 2.332 8.7 2.427 12.667.252.94-.65 2.198-.591 3.075.141 2.157 2.134 4.262 4.282 6.402 6.397.516.473 1.306.482 1.833.022 0 0 .755-1.167.047-1.9-2.119-2.152-4.279-4.264-6.399-6.414-.719-.86-.787-2.09-.166-3.023 2.19-3.925 2.141-8.715-.129-12.595-2.294-3.737-6.34-6.043-10.725-6.112l-.081-.001zm.105 2.666c3.713.082 7.083 2.191 8.78 5.495 1.85 3.865 1.047 8.477-2 11.489-2.85 2.687-7.001 3.474-10.637 2.016-3.22-1.38-5.493-4.334-6-7.801-.384-3.069.666-6.143 2.848-8.334 1.84-1.802 4.305-2.826 6.88-2.856l.129-.009zm-.119 1.404c-3.95.115-7.327 2.873-8.231 6.72-.568 2.835.323 5.766 2.373 7.806 2.429 2.32 5.983 3.02 9.11 1.794 2.771-1.17 4.736-3.694 5.188-6.667.44-3.692-1.511-7.256-4.858-8.875-1.124-.512-2.346-.774-3.582-.77v-.008z" transform="translate(-574 -105) translate(412 57) translate(75 48) translate(87) translate(4.287 12.965) translate(.312 .013) translate(55.673 46.652)"/>
                                </g>
                                <g fill="#384DAE" fill-rule="nonzero">
                                    <path d="M.37 7.392C.29 7.98.25 8.575.25 9.17c.01 7.313 5.936 13.238 13.248 13.247 2.391 0 4.737-.653 6.784-1.889.618-.373 1.411-.276 1.921.235 1.522 1.514 4.58 4.574 6.374 6.367.778.777 2.034.794 2.833.037.141-.134.263-.288.36-.457.016.11.023.222.023.333-.007.548-.235 1.07-.631 1.447-.799.757-2.055.74-2.834-.037-1.793-1.795-4.853-4.853-6.37-6.366-.51-.511-1.304-.608-1.923-.235-2.047 1.236-4.392 1.889-6.783 1.888-4.06 0-7.896-1.86-10.408-5.05C.33 15.5-.58 11.335.374 7.388l-.004.004zm26 4.856c-.233 1.736-.813 3.407-1.705 4.914-.106-.409-.042-.843.177-1.204.699-1.15 1.217-2.402 1.536-3.71h-.008zm-22-4.103c.41-3.393 2.675-6.276 5.874-7.48C13.443-.536 17.045.14 19.59 2.422s3.609 5.79 2.76 9.1c.036-.34.054-.682.055-1.024.016-4.617-3.403-8.525-7.981-9.122C9.846.778 5.538 3.678 4.37 8.145z" transform="translate(-574 -105) translate(412 57) translate(75 48) translate(87) translate(4.287 12.965) translate(.312 .013) translate(56.35 50.103)"/>
                                </g>
                                <g>
                                    <path d="M23.487 20.303c.873.135 1.66.6 2.2 1.3 1.916 1.915 3.82 3.834 5.748 5.745.515.476 1.307.486 1.833.022l.249-.312c.167-.265.488-.39.791-.308.303.083.516.354.525.668.116 1.48-.931 2.8-2.4 3.022-.818.09-1.633-.189-2.226-.758-2.144-2.12-4.227-4.299-6.409-6.405-.555-.527-1.401.13-2.313.558-4.82 2.246-10.497 1.554-14.638-1.782-4.14-3.337-6.022-8.738-4.852-13.925.063-.28.247-.666.625-.726.525-.077.833.473.762 1.1-.513 4.665 1.624 9.226 5.536 11.818 3.912 2.593 8.945 2.783 13.042.493.455-.302.982-.478 1.527-.51zm5.333-8.05c.214.052.396.19.506.38.11.19.136.418.074.629-.264 1.721-.848 3.378-1.722 4.885-.135.26-.412.412-.704.388-.291-.025-.54-.222-.629-.5-.075-.573.002-1.155.225-1.688.661-1.111 1.16-2.311 1.478-3.564 0 0 .175-.42.492-.51.088-.029.182-.036.273-.02h.007zM15.917 0c4.567.103 8.494 3.265 9.57 7.705.344 1.54.317 3.14-.08 4.667-.05.156-.138.298-.257.411-.236.153-.539.157-.779.01s-.374-.418-.344-.698c.016-.153.011-.108.016-.175.29-3.46-1.562-6.746-4.672-8.29-3.11-1.543-6.847-1.032-9.428 1.29-1.22 1.104-2.097 2.535-2.528 4.123 0 0-.51.82-1.098.38-.427-.321-.244-1.055-.095-1.718C7.309 3.274 11.232.121 15.793.013L15.917 0z" transform="translate(-574 -105) translate(412 57) translate(75 48) translate(87) translate(4.287 12.965) translate(.312 .013) translate(53.998 49.4)"/>
                                </g>
                            </g>
                        </g>
                    </g>
                </g>
            </g>
        </g>
    </g>
</svg>
