<svg width="24" height="24" viewBox="0 0 24 24" xmlns="http://www.w3.org/2000/svg">
    <g fill="none" fill-rule="evenodd">
        <path d="M12 0c6.627 0 12 5.373 12 12s-5.373 12-12 12S0 18.627 0 12 5.373 0 12 0z"/>
        <path d="m11.278 17.536-2.814 1.3a.784.784 0 0 1-.779-.101.86.86 0 0 1-.332-.741l.253-3.925-2.417-3.019a.874.874 0 0 1-.15-.804.828.828 0 0 1 .575-.559l3.657-.962 2.007-3.33A.804.804 0 0 1 11.964 5c.278 0 .539.15.687.396l2.009 3.33 3.657.96c.27.071.487.283.574.56.086.276.03.58-.15.804l-.62.715m-2.387 2.12v4.484m-2.117-2.242h4.234" stroke-linecap="round" stroke-linejoin="round" stroke="#919294" stroke-width="1.6"/>
    </g>
</svg>
