<svg xmlns="http://www.w3.org/2000/svg" width="26" height="26" viewBox="0 0 26 26">
    <g fill="none" fill-rule="evenodd">
        <g>
            <g>
                <g>
                    <g transform="translate(-472 -386) translate(361 309) translate(0 60) translate(112 18)">
                        <rect width="24" height="24" fill="#FFF" stroke="#FFF" rx="4"/>
                        <g fill="#F4C848" stroke="#F4C848" stroke-linecap="round" stroke-linejoin="round" stroke-width="1.3">
                            <g>
                                <path d="M6 .46c.221 0 .427.119.545.314h0l1.597 2.648 2.908.765c.153.04.285.137.373.27l.047.084h0l.036.09c.069.221.024.462-.119.64h0l-1.922 2.4.202 3.121c.015.231-.085.454-.265.59-.18.136-.413.166-.62.08h0L6.138 10.41l-.089-.081-.056.054-2.777 1.08c-.206.085-.44.055-.62-.081-.179-.136-.279-.359-.264-.59l.201-3.12-1.922-2.4c-.142-.179-.187-.42-.118-.64l.035-.091h0l.048-.084c.087-.133.22-.23.373-.27h0l2.908-.765L5.452.774C5.57.58 5.777.46 5.998.46z" transform="translate(6 6)"/>
                            </g>
                        </g>
                    </g>
                </g>
            </g>
        </g>
    </g>
</svg>
