<svg xmlns="http://www.w3.org/2000/svg" width="14" height="14" viewBox="0 0 14 14">
    <g fill="none" fill-rule="evenodd" stroke-linecap="round" stroke-linejoin="round">
        <g stroke="#414246" stroke-width="1.3">
            <g>
                <g>
                    <g>
                        <g>
                            <path d="M5.46 10.437l-2.237 1.034c-.206.086-.44.056-.62-.08-.179-.136-.279-.36-.264-.59l.202-3.12L.619 5.28C.476 5.102.43 4.861.5 4.64c.069-.22.241-.387.456-.444l2.908-.765L5.461.783c.118-.196.324-.314.545-.314.221 0 .428.118.546.315L8.15 3.43l2.908.765c.215.056.388.224.456.444.07.22.024.461-.118.64l-.494.568M9.004 7.534V11.1M7.32 9.317h3.366" transform="translate(-478 -392) translate(361 309) translate(0 60) translate(112 18) translate(6 6)"/>
                        </g>
                    </g>
                </g>
            </g>
        </g>
    </g>
</svg>
