<svg xmlns="http://www.w3.org/2000/svg" width="160" height="160" viewBox="0 0 160 160">
    <g fill="none" fill-rule="evenodd">
        <g>
            <g>
                <path d="M0 0L160 0 160 160 0 160z" transform="translate(-99 -226) translate(99 226)"/>
                <g fill="#E1E6FF">
                    <path d="M11.804 0L0.004 3.92 86.615 3.92 75.215 0z" transform="translate(-99 -226) translate(99 226) translate(36.6 70.467)"/>
                </g>
                <g fill="#B3BFED">
                    <path d="M75.356.006l11.4 3.92.081.107-.073.113-.049.009H.106l-.109-.076.03-.13.044-.024 11.8-3.92.038-.006h63.4l.047.007zm-63.424.23L.842 3.919h85.173L75.299.236H11.932z" transform="translate(-99 -226) translate(99 226) translate(36.491 70.349)"/>
                </g>
                <g fill="#597AFA">
                    <path d="M3.379.002c.118.01.213.103.224.221l.22 3.512c0 .084-.043.162-.114.208-.07.045-.16.05-.236.014L.113 2.106c-.072-.045-.116-.123-.116-.208 0-.085.044-.163.116-.208L3.252.029c.09-.041.081-.027.127-.027zm-2.654 1.9l2.6 1.432-.17-2.717-2.43 1.285z" transform="translate(-99 -226) translate(99 226) translate(74.224 12.915)"/>
                </g>
                <g>
                    <g fill="#EEF0FF" stroke="#D9E1FF" stroke-linecap="round" stroke-linejoin="round" stroke-width=".99">
                        <path d="M77.722 0L1.935 0 1.935 18.97 1.101 20.196 1.935 21.174 -0.001 22.274 1.935 23.916 1.935 36.36 77.722 36.36 77.722 29.589 79.329 28.408 77.722 27.669 77.722 26.563 78.617 25.956 77.722 25.131 77.722 7.818 79.072 6.664 77.722 5.386z" transform="translate(-99 -226) translate(99 226) translate(40.379 38.11)"/>
                    </g>
                    <g fill="#B8C4FF" fill-rule="nonzero">
                        <path d="M1 0L1.236 0 1.236 25.707 1 25.707z" transform="translate(-99 -226) translate(99 226) translate(40.379 38.11) rotate(90 8.841 18.783)"/>
                    </g>
                    <g fill="#B8C4FF" fill-rule="nonzero">
                        <path d="M1 0L1.236 0 1.236 19.723 1 19.723z" transform="translate(-99 -226) translate(99 226) translate(40.379 38.11) rotate(90 28.62 48.982)"/>
                    </g>
                    <g fill="#B8C4FF" fill-rule="nonzero">
                        <path d="M1 0L1.236 0 1.236 30.777 1 30.777z" transform="translate(-99 -226) translate(99 226) translate(40.379 38.11) rotate(90 16.893 30.658)"/>
                    </g>
                    <g fill="#B8C4FF" fill-rule="nonzero">
                        <path d="M1 0L1.236 0 1.236 10.198 1 10.198z" transform="translate(-99 -226) translate(99 226) translate(40.379 38.11) rotate(90 4.574 7.54)"/>
                    </g>
                    <g fill="#B8C4FF" fill-rule="nonzero">
                        <path d="M1 0L1.236 0 1.236 33.566 1 33.566z" transform="translate(-99 -226) translate(99 226) translate(40.379 38.11) rotate(90 20.542 47.082)"/>
                    </g>
                    <g fill="#B8C4FF" fill-rule="nonzero">
                        <path d="M1 0L1.236 0 1.236 33.566 1 33.566z" transform="translate(-99 -226) translate(99 226) translate(40.379 38.11) rotate(90 35.551 42.13)"/>
                    </g>
                </g>
                <g fill="#597AFA">
                    <path d="M1.916 0c.74.066 1.378.544 1.65 1.235.27.69.129 1.475-.368 2.027-1.1 1.046-3.494.118-3.168-1.7C.2.655.993-.001 1.916 0zm-.042.473C1.317.524.837.886.636 1.408c-.2.522-.089 1.112.29 1.524.895.836 3.006-.128 2.239-1.67C2.923.772 2.421.463 1.874.47v.003z" transform="translate(-99 -226) translate(99 226) translate(14.662 46.586)"/>
                </g>
                <g fill="#F37B90">
                    <path d="M1.792 0c.762.009 1.445.473 1.732 1.179.287.706.123 1.515-.416 2.053-.54.539-1.349.701-2.054.413-1.51-.616-1.5-3.6.69-3.645h.048zM1.75.473C.972.488.351 1.127.359 1.905c.007.779.64 1.406 1.419 1.406.778 0 1.41-.627 1.418-1.406.008-.778-.613-1.417-1.391-1.432H1.75z" transform="translate(-99 -226) translate(99 226) translate(145.872 27.782)"/>
                </g>
                <g fill="#597AFA" fill-rule="nonzero" transform="translate(-99 -226) translate(99 226) translate(24.014 133.023)">
                    <ellipse cx="1.133" cy="1.134" rx="1.133" ry="1.134"/>
                </g>
                <g>
                    <path d="M1.378 0c1.184.023 1.965 2.018.516 2.632C.842 3.078-.62 1.674.284.524.55.192.952-.001 1.378 0zm-.029.473C.887.477.504.829.461 1.289c-.044.46.268.877.72.967.453.09.9-.178 1.036-.619.07-.273.012-.563-.157-.789C1.892.622 1.63.485 1.35.473z" transform="translate(-99 -226) translate(99 226) translate(23.788 132.786)"/>
                </g>
                <g fill="#597AFA" fill-rule="nonzero" transform="translate(-99 -226) translate(99 226) translate(148.323 76.189)">
                    <ellipse cx="1.133" cy="1.134" rx="1.133" ry="1.134"/>
                </g>
                <g>
                    <path d="M2.382 0c1.188.022 1.938 2.03.516 2.632-.504.213-1.087.106-1.482-.272C1.02 1.98.889 1.403 1.08.89c.192-.512.67-.862 1.217-.888L2.382 0zm-.029.473c-.78.015-1.268 1.33-.338 1.724.787.333 1.8-1.058.776-1.615-.134-.073-.285-.11-.438-.109z" transform="translate(-99 -226) translate(99 226) translate(147.092 75.952)"/>
                </g>
                <g fill="#FFF">
                    <path d="M86.689 0H0v41.325c.002 2.251 1.828 4.076 4.079 4.075h78.526c2.255-.001 4.082-1.83 4.083-4.084L86.689 0z" transform="translate(-99 -226) translate(99 226) translate(36.618 74.148)"/>
                </g>
                <g fill="#597AFA">
                    <path d="M86.853.009c.041.021.069.062.073.108v41.322c-.063 2.274-1.877 4.11-4.15 4.2-26.193.164-52.386 0-78.579 0-2.293-.064-4.136-1.907-4.2-4.2V.119l.077-.11L.119 0h86.689l.045.009zM.238.236v41.31c.108 2.103 1.804 3.775 3.908 3.854 26.193.164 52.386 0 78.578 0 2.16-.07 3.896-1.805 3.966-3.966V.236H.238z" transform="translate(-99 -226) translate(99 226) translate(36.499 74.029)"/>
                </g>
                <g fill="#DEE4FF">
                    <path d="M22.342 1.027c0-.567-.46-1.026-1.026-1.026H1.026C.459.001 0 .461 0 1.027v7.022c0 .567.46 1.026 1.026 1.026h20.29c.567 0 1.026-.46 1.026-1.026V1.027z" transform="translate(-99 -226) translate(99 226) translate(96.516 104.904)"/>
                </g>
                <g fill="#F9FAFF">
                    <path d="M21.474.066c.602.032 1.082.513 1.114 1.115.037 2.351 0 4.7 0 7.053-.019.613-.503 1.109-1.115 1.143-6.773.088-13.547 0-20.32 0C.541 9.357.046 8.873.01 8.262c-.025-2.351 0-4.7 0-7.052C.028.597.512.1 1.125.066c6.783-.088 13.566-.088 20.349 0zM1.156.302c-.485.017-.878.4-.908.884-.025 2.357-.025 4.713 0 7.07.029.476.408.855.884.884 6.77.087 13.542 0 20.312 0 .488-.01.884-.397.908-.884.037-2.349 0-4.7 0-7.045-.017-.485-.4-.878-.884-.908C14.698.215 7.927.302 1.156.302z" transform="translate(-99 -226) translate(99 226) translate(96.387 104.72)"/>
                </g>
                <g fill="#E1E6FF">
                    <path d="M10.132.031c.385.02.694.328.714.713.012 1.414.012 2.828 0 4.242-.023.384-.33.69-.714.713-3.133.04-6.267.04-9.4 0-.384-.023-.69-.329-.713-.713-.023-1.414-.023-2.828 0-4.242C.042.36.348.054.732.031c3.133-.038 6.266-.038 9.4 0zM.75.267C.483.274.266.484.25.75.227 2.16.227 3.57.25 4.98c.015.26.223.468.483.483 3.13.04 6.259.04 9.389 0 .26-.015.468-.223.483-.483.012-1.41.012-2.82 0-4.23-.015-.26-.223-.468-.483-.483-3.121-.04-6.246 0-9.375 0H.75z" transform="translate(-99 -226) translate(99 226) translate(108.116 80.164)"/>
                </g>
                <g fill="#F7F8FF" fill-opacity=".6">
                    <path d="M31.026 0L0 0 6.058 8.625 31.026 8.625z" transform="translate(-99 -226) translate(99 226) rotate(-90 90.503 14.803)"/>
                </g>
                <g>
                    <path d="M32.884 9.677c-.075.467-.467.818-.94.84H6.976c-.317.047-.629-.114-.774-.4L.144 1.489C-.035 1.196-.048.831.111.526.269.221.575.022.918 0h31.026c.51.027.92.435.946.946V9.57l-.006.107zm-.94-8.731H.918L6.976 9.57h24.968V.946z" transform="translate(-99 -226) translate(99 226) rotate(-90 90.488 15.734)"/>
                </g>
                <g fill="#DAE9F4" fill-rule="nonzero">
                    <path d="M7.534 1.987H.497c-.273 0-.493-.22-.493-.494 0-.272.22-.493.493-.493h7.037c.273 0 .494.22.494.494 0 .272-.221.493-.494.493z" transform="translate(-99 -226) translate(99 226) translate(42.783 90.562)"/>
                </g>
                <g fill="#DAE9F4" fill-rule="nonzero">
                    <path d="M21.005 1.986H.493C.22 1.986 0 1.766 0 1.492 0 1.22.22 1 .492 1h20.512c.273 0 .494.22.494.493s-.221.494-.494.494z" transform="translate(-99 -226) translate(99 226) translate(42.766 94.209)"/>
                </g>
                <g fill="#DAE9F4" fill-rule="nonzero">
                    <path d="M17.488 1.987H.493C.22 1.987 0 1.767 0 1.493 0 1.222.22 1 .492 1h16.995c.273 0 .494.22.494.494 0 .272-.221.493-.494.493z" transform="translate(-99 -226) translate(99 226) translate(42.77 97.857)"/>
                </g>
                <g fill-rule="nonzero">
                    <g fill="#63E299">
                        <path d="M5.517 3.804c-.389 1.082-1.391 1.823-2.54 1.878C1.83 5.737.762 5.094.272 4.054-.219 3.014-.034 1.78.74.93 1.514.08 2.723-.22 3.805.169 5.281.7 6.048 2.327 5.517 3.804z" transform="translate(-99 -226) translate(99 226) translate(43.499 81.653)"/>
                    </g>
                    <g fill="#FFF">
                        <path d="M.066 1.078l1 1.018c.054.068.135.11.221.114.087.005.172-.03.232-.092L3.234.511C3.35.391 3.346.2 3.226.084c-.12-.116-.311-.112-.427.008L1.324 1.45.541.702C.437.572.247.55.116.654c-.13.103-.152.293-.048.424H.066z" transform="translate(-99 -226) translate(99 226) translate(43.499 81.653) translate(1.172 1.866)"/>
                    </g>
                </g>
                <g fill="#EEF0FF" fill-rule="nonzero">
                    <path d="M1 0L1.473 0 1.473 41.154 1 41.154z" transform="translate(-99 -226) translate(99 226) translate(74.624 74.269)"/>
                </g>
                <g fill="#EEF0FF" fill-rule="nonzero">
                    <path d="M1 0L1.473 0 1.473 31.659 1 31.659z" transform="translate(-99 -226) translate(99 226) translate(82.904 74.301)"/>
                </g>
                <g fill="#E2723B">
                    <path d="M.995 2.068S10.626 1.316 13.763 0c0 0 3.709 2.12 6.475 2.068-2.607 3.331-9.764 6.025-9.764 6.025S4.404 6.613.995 2.068z" transform="translate(-99 -226) translate(99 226) translate(3.532 95.963)"/>
                </g>
                <g>
                    <path d="M13.059.034c1.536.892 3.205 1.533 4.943 1.9.471.095.951.143 1.432.143h.281c-1.323 1.55-2.932 2.83-4.738 3.773-1.69.968-3.452 1.804-5.271 2.5-1.215-.322-2.395-.766-3.521-1.325-2.347-1.072-4.408-2.682-6.016-4.7L.001 2.1c3.647-.225 7.274-.711 10.852-1.455.733-.154 1.451-.37 2.148-.644.02.01.04.02.058.033zm-.094.237c-1.567.553-3.19.93-4.84 1.126-2.533.4-5.092.683-7.65.9H.448c2.37 2.87 5.601 4.901 9.215 5.793l.031.008c3.12-1.079 6.02-2.709 8.564-4.812.344-.3.664-.624.959-.972 0 0-.346-.014-.629-.048-1.963-.302-3.85-.975-5.561-1.983 0 0-.032-.025-.062-.012z" transform="translate(-99 -226) translate(99 226) translate(4.308 95.832)"/>
                </g>
                <g fill="#F58852">
                    <path d="M17.103-.005c4.4 1.799 8.908 3.315 13.5 4.541-1.059 5.847-9.687 11.814-17.529 12.125-4.52.179-11.924-.983-13.076-1.988 2.1-.3 13.834-5.56 17.105-14.678z" transform="translate(-99 -226) translate(99 226) translate(12.891 89.033)"/>
                </g>
                <g>
                    <path d="M17.514.083c4.376 1.854 8.89 3.367 13.5 4.524l-.031.18c-.543 2.765-2.473 5.1-4.713 6.973-3.808 3.218-8.594 5.05-13.578 5.2-2.56.009-5.115-.207-7.637-.644-1.52-.164-3.011-.542-4.426-1.123-.15-.067-.29-.152-.418-.254l-.215-.18c1.464-.303 2.87-.836 4.168-1.579 3.529-1.731 6.704-4.105 9.363-7 1.607-1.748 2.869-3.783 3.719-6l.059-.169c.074.016.141.043.209.072zm-.082.274c-1.523 3.665-4.008 6.85-7.193 9.219-2.567 2.078-5.44 3.747-8.516 4.948-.36.14-.727.26-1.1.357l-.047.013c.805.396 1.665.67 2.551.811 4.738 1.051 9.752 1.586 14.354.345 3.95-1.034 7.534-3.143 10.355-6.094 1.417-1.42 2.42-3.199 2.9-5.146l.006-.024-.279-.066C26.11 3.584 21.843 2.144 17.692.409l-.244-.1c-.006.018-.01.033-.016.045v.003z" transform="translate(-99 -226) translate(99 226) translate(12.617 88.877)"/>
                </g>
                <g fill="#EEF0FF">
                    <path d="M18.656 0c-2.89 1.214-5.844 2.272-8.848 3.169-3.121.844-9.809 2.12-9.809 2.12.012.21 9.23 13.175 26.871 10.106 3.529-.482 6.973-1.453 10.234-2.886C29.23 11.383 18.656 0 18.656 0z" transform="translate(-99 -226) translate(99 226) translate(114.176 95.967)"/>
                </g>
                <g>
                    <path d="M18.912.088c3.275 3.545 6.976 6.67 11.018 9.307 2.172 1.53 4.638 2.592 7.242 3.119l.045.005.447.067c-3.869 1.7-7.97 2.813-12.168 3.3-5.142.673-10.37-.082-15.113-2.181-3.8-1.678-7.153-4.226-9.789-7.437C.386 6.031.2 5.774.039 5.502L0 5.335c4.15-.683 8.25-1.637 12.275-2.858 2.17-.722 4.3-1.543 6.418-2.42l.131-.055c.031.027.06.055.088.086zm-.205.216c-3.312 1.438-6.733 2.608-10.232 3.5-2.656.627-5.34 1.165-8.02 1.682l-.133.028c.903 1.259 1.96 2.4 3.143 3.4 4.906 4.372 11.213 6.847 17.783 6.976 1.41.02 2.821-.06 4.221-.239 3.912-.432 7.742-1.424 11.371-2.947 0 0-.2-.033-.41-.083-2.626-.694-5.101-1.868-7.3-3.463-3.77-2.556-7.24-5.527-10.346-8.857-.026-.002-.052-.001-.077.004V.304z" transform="translate(-99 -226) translate(99 226) translate(114.037 95.828)"/>
                </g>
                <g fill="#C2CCFF">
                    <path d="M0 2.204s7.689.277 12.053-2.2c0 0 7.346 3.966 14.727 1.225-.124.14-14.368 6.833-26.78.975z" transform="translate(-99 -226) translate(99 226) translate(124.51 107.236)"/>
                </g>
                <g>
                    <path d="M12.699.04c1.504.755 3.098 1.314 4.744 1.664 3.234.791 6.627.644 9.78-.425l.6-.22-.39.39c-.042.03-.087.055-.134.075-1.356.647-2.765 1.178-4.212 1.586C15.754 5.351 7.663 5.768.597 2.477l-.593-.28c3.406.19 6.82-.19 10.1-1.127.819-.25 1.611-.578 2.366-.982l.155-.09c.022.016.048.028.074.042zm-.121.254C10.096 1.507 7.39 2.195 4.63 2.316c-1.142.1-2.289.147-3.432.147h-.064C7.122 5.106 14.075 5.08 20.39 3.593c1.732-.406 3.436-.926 5.1-1.557-3.83.78-7.807.39-11.412-1.121-.486-.191-.963-.4-1.425-.633.003.001.01-.034-.075.012z" transform="translate(-99 -226) translate(99 226) translate(123.941 107.103)"/>
                </g>
                <g fill="#8BA0FF" fill-opacity=".61">
                    <path d="M13.558.115c1.223 1.139 2.505 2.212 3.84 3.217-1.325.988-2.826 1.714-4.424 2.138-2.481.927-5.067 1.545-7.7 1.838-.25.023-.502.032-.753.028-.073-.007-.143-.029-.207-.064-1.414-.88-2.736-1.9-3.947-3.044l-.095-.083-.277-.241.33.006c.543-.046 1.082-.132 1.612-.258 3.277-.545 6.485-1.443 9.568-2.68.603-.253 1.188-.544 1.754-.871l.173-.1c.047.039.086.079.126.114zm-.172.188c-1.807.986-3.732 1.741-5.728 2.246C5.36 3.225 3.02 3.747.652 4.11l-.048.006c1.014.897 2.073 1.742 3.173 2.532.23.163.468.313.714.449 0 0 .316 0 .529-.007 1.73-.154 3.439-.485 5.1-.99 2.126-.508 4.185-1.267 6.132-2.261.27-.145.528-.31.772-.495l-.412-.323c-1.075-.855-2.157-1.72-3.156-2.675-.002.001-.036-.058-.07-.039V.303z" transform="translate(-99 -226) translate(99 226) translate(118.767 98.853)"/>
                </g>
            </g>
        </g>
    </g>
</svg>
