<svg width="28" height="28" xmlns="http://www.w3.org/2000/svg">
    <g fill="none" fill-rule="evenodd">
        <path d="M14 28c7.732 0 14-6.268 14-14S21.732 0 14 0 0 6.268 0 14s6.268 14 14 14z" fill="#F5F6FA"/>
        <path d="M19.833 8.167v11.666H8.167V8.167h11.666z"/>
        <path d="M12.968 8.167c.884 0 1.6.705 1.6 1.575h0v2.1h3.02c.313-.004.611.128.817.36.205.233.297.543.25.847h0l-.737 4.725c-.08.518-.534.899-1.066.893h0-6.018v-5.775zm-2.134 4.724v5.775h-1.6c-.59 0-1.067-.47-1.067-1.05v-3.675c0-.58.477-1.05 1.067-1.05h1.6z" stroke="#21B7A8" stroke-width="1.2" stroke-linecap="round" stroke-linejoin="round" stroke-dasharray="0,0"/>
    </g>
</svg>
