<svg width="14" height="15" xmlns="http://www.w3.org/2000/svg">
    <g fill="none" fill-rule="evenodd">
        <path d="M0 0h14v14H0z"/>
        <g stroke="#919294">
            <path d="M7.49 4.083H4.575m4.084 2.8H4.574" stroke-linecap="round" stroke-linejoin="round"/>
            <path d="m3.42 13.193-.931-1.008a.579.579 0 0 1-.156-.395V1.75c0-.322.262-.583.584-.583h8.166c.322 0 .584.261.584.583v10.04a.585.585 0 0 1-.155.396l-.935 1.01a.291.291 0 0 1-.42.01l-1.281-1.252a.291.291 0 0 0-.41.001l-1.263 1.26a.293.293 0 0 1-.41.004l-1.322-1.268a.294.294 0 0 0-.41.007l-1.218 1.24a.293.293 0 0 1-.423-.005z"/>
        </g>
    </g>
</svg>
