<svg width="24" height="24" viewBox="0 0 24 24" xmlns="http://www.w3.org/2000/svg">
    <g fill="none" fill-rule="evenodd">
        <path d="M12 0c6.627 0 12 5.373 12 12s-5.373 12-12 12S0 18.627 0 12 5.373 0 12 0z" fill="#F7F9FF"/>
        <path d="M11.266 5.446A.87.87 0 0 1 12 5.05c.299 0 .576.15.735.396l2.145 3.33 3.91.962a.86.86 0 0 1 .614.56.832.832 0 0 1-.159.803l-2.585 3.021.272 3.924a.838.838 0 0 1-.356.742.883.883 0 0 1-.833.101L12 17.425l-3.743 1.464a.887.887 0 0 1-.833-.1.84.84 0 0 1-.356-.742l.271-3.925-2.584-3.02a.829.829 0 0 1-.159-.804.857.857 0 0 1 .613-.56l3.91-.961 2.146-3.33h0z" stroke="#F9BA4D" stroke-width="1.5" fill="#F9BA4D" fill-rule="nonzero" stroke-linecap="round" stroke-linejoin="round"/>
    </g>
</svg>
