<svg xmlns="http://www.w3.org/2000/svg" width="24" height="24" viewBox="0 0 24 24">
    <g fill="none" fill-rule="evenodd">
        <g fill-rule="nonzero">
            <g>
                <g>
                    <g>
                        <g transform="translate(-228 -672) translate(10 62) translate(0 598) translate(50 12) translate(168)">
                            <ellipse cx="11.881" cy="11.914" fill="#007AB9" rx="11.881" ry="11.915"/>
                            <path fill="#FFF" d="M18.98 12.873v4.912h-2.84v-4.583c0-1.15-.41-1.936-1.438-1.936-.785 0-1.251.529-1.457 1.041-.075.183-.094.437-.094.694v4.784h-2.84s.038-7.762 0-8.565h2.84v1.213l-.019.028h.02v-.028c.377-.582 1.05-1.415 2.559-1.415 1.868 0 3.269 1.225 3.269 3.855zM7.34 5.091c-.972 0-1.607.64-1.607 1.48 0 .822.617 1.48 1.57 1.48h.018c.99 0 1.606-.658 1.606-1.48-.018-.84-.615-1.48-1.587-1.48zM5.902 17.785H8.74V9.22H5.9v8.565z"/>
                        </g>
                    </g>
                </g>
            </g>
        </g>
    </g>
</svg>
