<svg xmlns="http://www.w3.org/2000/svg" width="24" height="24" viewBox="0 0 24 24">
    <g fill="none" fill-rule="evenodd">
        <g>
            <g>
                <g>
                    <g>
                        <g>
                            <path d="M0 0H24V24H0z" transform="translate(-85 -487) translate(10 62) translate(0 401) translate(61 24) translate(14)"/>
                            <g stroke="#1D1E20" stroke-linecap="round" stroke-linejoin="round" stroke-width="1.5">
                                <path d="M7.5 0h-6C.672 0 0 .716 0 1.6v12.8c0 .884.672 1.6 1.5 1.6h9c.828 0 1.5-.716 1.5-1.6V4.8L7.5 0z" transform="translate(-85 -487) translate(10 62) translate(0 401) translate(61 24) translate(14) translate(6 4)"/>
                                <path d="M7 0L7 5 12 5" transform="translate(-85 -487) translate(10 62) translate(0 401) translate(61 24) translate(14) translate(6 4)"/>
                            </g>
                        </g>
                    </g>
                </g>
            </g>
        </g>
    </g>
</svg>
