<svg xmlns="http://www.w3.org/2000/svg" width="24" height="25" viewBox="0 0 24 25">
    <g fill="none" fill-rule="evenodd">
        <g>
            <g>
                <g>
                    <g>
                        <g>
                            <path d="M0 0H24V23.585H0z" transform="translate(-34 -201) translate(10 62) translate(0 42) translate(0 72) translate(24 25.567)"/>
                            <g stroke="#1D1E20" stroke-linecap="round" stroke-linejoin="round" stroke-width="1.5" transform="translate(-34 -201) translate(10 62) translate(0 42) translate(0 72) translate(24 25.567) translate(4 3.93)">
                                <ellipse cx="8" cy="7.862" rx="2.182" ry="2.144"/>
                                <path d="M13.382 10.006c-.198.44-.103.956.24 1.3l.043.043c.274.268.427.632.427 1.012 0 .379-.153.743-.427 1.01-.272.27-.643.42-1.029.42-.386 0-.756-.15-1.029-.42l-.043-.042c-.351-.337-.875-.43-1.324-.236-.44.185-.725.61-.727 1.08v.12c0 .79-.651 1.43-1.455 1.43-.803 0-1.454-.64-1.454-1.43v-.064c-.012-.484-.323-.912-.786-1.079-.449-.194-.973-.1-1.323.236l-.044.043c-.273.268-.643.42-1.03.42-.385 0-.755-.152-1.028-.42s-.427-.632-.427-1.011c0-.38.154-.743.427-1.012l.043-.042c.343-.345.438-.86.24-1.301-.188-.432-.62-.713-1.098-.715h-.123C.65 9.348 0 8.708 0 7.918 0 7.13.651 6.49 1.455 6.49h.065c.493-.01.928-.317 1.098-.771.198-.442.103-.957-.24-1.301l-.043-.043c-.274-.268-.427-.632-.427-1.011 0-.38.153-.744.427-1.012.272-.268.643-.419 1.029-.419.386 0 .756.15 1.029.42l.043.042c.351.337.875.43 1.324.236h.058c.44-.185.726-.61.727-1.08v-.12C6.545.64 7.197 0 8 0s1.455.64 1.455 1.43v.064c.001.47.287.894.727 1.079.449.195.973.101 1.323-.236l.044-.043c.273-.268.643-.42 1.03-.42.385 0 .755.152 1.028.42s.427.632.427 1.011c0 .38-.154.744-.427 1.012l-.043.043c-.343.344-.438.86-.24 1.3v.058c.188.432.62.712 1.098.714h.123c.804 0 1.455.64 1.455 1.43 0 .789-.651 1.429-1.455 1.429h-.065c-.478.002-.91.283-1.098.715z"/>
                            </g>
                        </g>
                    </g>
                </g>
            </g>
        </g>
    </g>
</svg>
