<svg xmlns="http://www.w3.org/2000/svg" width="24" height="24" viewBox="0 0 24 24">
    <g fill="none" fill-rule="evenodd">
        <g fill-rule="nonzero">
            <g>
                <g>
                    <g>
                        <g transform="translate(-284 -672) translate(10 62) translate(0 598) translate(50 12) translate(224)">
                            <ellipse cx="11.881" cy="11.915" fill="#55ACEE" rx="11.881" ry="11.915"/>
                            <path fill="#FFF" d="M19.159 8.563c-.51.226-1.057.38-1.631.448.586-.353 1.036-.91 1.248-1.576-.548.327-1.156.564-1.803.691-.518-.553-1.256-.899-2.073-.899-1.568 0-2.84 1.276-2.84 2.848 0 .223.025.44.074.65-2.36-.12-4.453-1.253-5.854-2.977-.244.42-.385.91-.385 1.432 0 .988.502 1.86 1.264 2.37-.466-.014-.904-.142-1.286-.356v.036c0 1.38.979 2.53 2.278 2.792-.239.066-.49.1-.749.1-.183 0-.36-.017-.534-.05.361 1.13 1.41 1.954 2.653 1.977-.972.764-2.196 1.22-3.527 1.22-.23 0-.456-.014-.677-.04 1.256.808 2.749 1.28 4.352 1.28 5.224 0 8.08-4.34 8.08-8.104 0-.123-.002-.246-.008-.368.556-.402 1.037-.903 1.418-1.474z"/>
                        </g>
                    </g>
                </g>
            </g>
        </g>
    </g>
</svg>
