<svg xmlns="http://www.w3.org/2000/svg" width="24" height="24" viewBox="0 0 24 24">
    <g fill="none" fill-rule="evenodd">
        <g fill-rule="nonzero">
            <g>
                <g>
                    <g>
                        <path fill="red" d="M11.938 0c6.594 0 11.938 5.36 11.938 11.972 0 6.612-5.344 11.972-11.938 11.972C5.345 23.944 0 18.584 0 11.972 0 5.361 5.345 0 11.938 0z" transform="translate(-60 -672) translate(10 62) translate(0 598) translate(50 12)"/>
                        <path fill="red" d="M11.618 7.164c-2.162 0-3.696.377-4.642 1.151-.934.742-1.388 2.004-1.388 3.763v4.229h11.966v-4.229c0-1.76-.494-3.01-1.427-3.763-.922-.774-2.455-1.151-4.51-1.151z" transform="translate(-60 -672) translate(10 62) translate(0 598) translate(50 12)"/>
                        <path fill="#FFF" d="M12.408 17.984l-4.092-.065c-1.324-.022-.16.023-1.458-.212-1.976-.351-2.116-2.073-2.263-3.517-.201-2.03-.123-4.097.258-6.11.215-1.13 1.06-1.804 2.37-1.877 4.416-.266 3.877-.235 8.284-.11.466.011.934.073 1.393.144 2.266.346 2.321 2.296 2.468 3.939.147 1.659.085 3.326-.195 4.974-.225 1.365-.654 2.509-2.468 2.62-2.272.144-1.999.26-4.278.223 0-.009-.013-.009-.019-.009zM9.723 15c1.76-1.008 3.485-1.999 5.235-3-1.763-1.008-3.486-1.999-5.235-3v6z" transform="translate(-60 -672) translate(10 62) translate(0 598) translate(50 12)"/>
                    </g>
                </g>
            </g>
        </g>
    </g>
</svg>
